<?xml version="1.0" encoding="UTF-8"?>
<svg version="1.1" xmlns="http://www.w3.org/2000/svg" width="1280" height="297">
<path d="M0 0 C0.91386475 0.00491455 1.82772949 0.0098291 2.76928711 0.01489258 C22.61382985 0.35550395 41.84624113 8.0072829 56.30859375 21.75 C66.28311668 32.21925926 73.22767261 43.63311029 77.34204102 57.55004883 C77.60719009 58.44387772 77.87233917 59.3377066 78.14552307 60.25862122 C78.34500046 60.93640121 78.54447784 61.61418121 78.75 62.3125 C79.7267139 62.31423625 80.7034278 62.3159725 81.70973909 62.31776136 C139.86591694 62.42122179 198.02208464 62.52946183 256.17824247 62.64361694 C263.19353527 62.65738611 270.20882816 62.67111174 277.22412109 62.68481445 C278.27109368 62.68686058 278.27109368 62.68686058 279.33921723 62.68894804 C301.82665997 62.73287553 324.31410679 62.77394717 346.80155764 62.81348413 C370.63748299 62.85540787 394.47339993 62.90069951 418.30931246 62.94937855 C431.27459901 62.97576194 444.23988455 63.00063417 457.20518112 63.02157402 C550.57215757 63.17423564 550.57215757 63.17423564 582.30159879 63.59703076 C584.71197223 63.62819281 587.12240729 63.65498428 589.53288341 63.67680442 C592.69320721 63.7073382 595.8526351 63.75633542 599.01260376 63.81190491 C600.32631089 63.81998749 600.32631089 63.81998749 601.66655755 63.82823336 C610.96461386 64.04284177 617.96465959 66.56959817 624.734375 72.99609375 C637.91673951 88.14559405 633.89185856 114.43927139 633.84765625 133.16015625 C633.84578672 135.51240509 633.84436535 137.86465432 633.84336853 140.21690369 C633.83958547 146.35040397 633.82979211 152.48387984 633.81866455 158.61737061 C633.80835893 164.89920726 633.80385148 171.18104792 633.79882812 177.46289062 C633.78816525 189.74610609 633.77060355 202.02929718 633.75 214.3125 C621.54 214.3125 609.33 214.3125 596.75 214.3125 C596.71241577 209.97109863 596.71241577 209.97109863 596.67407227 205.54199219 C596.59002088 195.90287665 596.50141588 186.26380667 596.41066074 176.62475204 C596.35585506 170.78940216 596.30251056 164.95404705 596.25268555 159.11865234 C596.20440751 153.47108547 596.15205612 147.82356883 596.09705925 142.17606354 C596.07691859 140.03788785 596.05816504 137.89969855 596.04092598 135.7614975 C595.9553009 125.25063481 595.8009585 114.7518322 595.31225586 104.25097656 C595.2768422 103.44330715 595.24142855 102.63563774 595.20494175 101.8034935 C594.90052727 95.92930217 594.55935107 89.58410086 591.75 84.3125 C583.39072763 79.02573226 573.19564506 80.10616309 563.75 80.3125 C564.24371094 80.84359375 564.73742188 81.3746875 565.24609375 81.921875 C565.88675781 82.62828125 566.52742188 83.3346875 567.1875 84.0625 C567.82558594 84.75859375 568.46367188 85.4546875 569.12109375 86.171875 C573.19665625 91.52777008 572.11788344 99.20818788 572.30859375 105.625 C572.34017987 106.65432144 572.34017987 106.65432144 572.3724041 107.70443726 C572.97553878 127.87453072 572.86345877 148.05357573 572.81866455 168.23034668 C572.80637788 174.37343707 572.8020005 180.51653816 572.79621124 186.65963745 C572.7866821 195.87727958 572.76745766 205.09485422 572.75 214.3125 C560.21 214.3125 547.67 214.3125 534.75 214.3125 C534.71261719 210.13464844 534.67523437 205.95679688 534.63671875 201.65234375 C534.598575 198.30751189 534.55750251 194.96274433 534.5144577 191.61797333 C534.4699153 188.09470313 534.43045634 184.57154859 534.40356445 181.0480957 C534.37242357 176.999219 534.31763901 172.95095462 534.26171875 168.90234375 C534.25532883 167.64791977 534.2489389 166.39349579 534.24235535 165.10105896 C534.11023399 156.28347238 534.11023399 156.28347238 530.75 148.3125 C515.5671785 143.54330783 491.9791778 160.58645811 478.70947266 167.40228271 C475.97793847 168.80519983 473.2420387 170.19951892 470.5065918 171.5947876 C468.52782196 172.61071582 466.55792867 173.64255956 464.58789062 174.67529297 C463.36623815 175.30114474 462.14424911 175.92634011 460.921875 176.55078125 C459.3145752 177.386698 459.3145752 177.386698 457.67480469 178.23950195 C454.41696273 179.43467853 452.98516995 179.47438344 449.75 178.3125 C445.67629728 174.7943022 443.97054142 172.56537248 443.44140625 167.16015625 C442.88603501 150.852437 450.96028918 141.34283158 460.3828125 128.83984375 C467.07627819 120.13434042 467.07627819 120.13434042 471.75 110.3125 C467.62901551 111.57587027 464.0505424 113.10838593 460.3203125 115.26171875 C459.28865967 115.85549316 458.25700684 116.44926758 457.1940918 117.06103516 C456.0987915 117.70089355 455.00349121 118.34075195 453.875 119 C452.73909424 119.6604834 451.60318848 120.3209668 450.43286133 121.00146484 C442.36981247 125.70762424 434.37668025 130.52507851 426.4375 135.4375 C425.4367041 136.05197998 424.4359082 136.66645996 423.40478516 137.29956055 C418.65058411 140.27370409 414.47518175 143.10280634 410.75 147.3125 C411.31362302 149.36086882 411.31362302 149.36086882 412.75 151.3125 C415.80908413 152.12834568 415.80908413 152.12834568 418.75 152.3125 C418.44904602 156.52585567 417.55643308 159.97812262 414.6484375 163.171875 C409.39981896 166.32536598 402.29471741 164.91519623 396.6328125 163.57421875 C391.20358432 161.78654606 387.12315902 160.11093747 383.75 155.3125 C383.05297729 151.02974268 383.14437087 146.82839368 383.25 142.5 C383.24742187 141.34951172 383.24484375 140.19902344 383.2421875 139.01367188 C383.3442804 130.10606629 384.34137316 122.99546875 390.75 116.3125 C393.16561703 114.17509439 395.68173209 112.20023869 398.25 110.25 C398.98613525 109.68925781 399.72227051 109.12851563 400.48071289 108.55078125 C419.85777449 94.09748224 437.19431204 83.20400262 461.75 86.3125 C469.5966386 87.88628709 476.75292451 91.66687562 483.8125 95.3125 C484.43229736 95.63226807 485.05209473 95.95203613 485.69067383 96.28149414 C489.69128477 98.45582263 492.97511167 100.67755856 495.75 104.3125 C495.93256456 109.64338526 493.07848504 113.44620802 490.1875 117.6875 C489.55038086 118.64849609 489.55038086 118.64849609 488.90039062 119.62890625 C487.85941258 121.1962215 486.80595366 122.75523501 485.75 124.3125 C490.27761408 124.3125 493.88203773 121.96418775 497.86132812 119.9765625 C505.3066109 116.36307845 513.26493253 113.65604088 521.4921875 116.140625 C525.71342977 117.6410135 529.75521904 119.28729071 533.75 121.3125 C533.83772579 116.97929605 533.89063579 112.64632332 533.9375 108.3125 C533.96263672 107.09175781 533.98777344 105.87101562 534.01367188 104.61328125 C534.07765841 96.72160881 533.95159531 90.21444428 528.75 83.875 C516.17682288 74.05220537 481.63787302 79.84583727 466.59870243 79.76405907 C460.04640123 79.7282431 453.49532202 79.67469416 446.94360352 79.57861328 C440.56774425 79.48545096 434.19296664 79.43708924 427.81646538 79.41966629 C425.40243932 79.40565028 422.98844749 79.37619078 420.57481575 79.33036423 C405.88958411 79.0649553 396.16789277 79.5519533 384.75 89.3125 C382.68854786 90.84458177 380.59335958 92.32382271 378.5 93.8125 C372.98299369 98.02749282 367.77817153 102.52654936 362.75 107.3125 C361.22342773 108.54141968 361.22342773 108.54141968 359.66601562 109.79516602 C355.58527757 113.91487264 355.78059744 118.27264512 355.7421875 123.828125 C355.7122319 125.34463654 355.7122319 125.34463654 355.68167114 126.89178467 C355.65136937 129.02648618 355.63721771 131.16147037 355.63818359 133.29638672 C355.62508164 136.54227406 355.51623608 139.77581851 355.40234375 143.01953125 C354.85107005 154.05886963 354.85107005 154.05886963 359.14282227 163.79467773 C362.20980005 166.40905775 365.2258742 168.3681729 368.75 170.3125 C370.4760435 171.47545718 372.19896437 172.64306934 373.91796875 173.81640625 C375.58388211 174.84776371 377.25718989 175.86726816 378.9375 176.875 C379.83388184 177.41801758 380.73026367 177.96103516 381.65380859 178.52050781 C384.34267108 180.13525429 387.04334808 181.72778677 389.75 183.3125 C390.5529248 183.7873584 391.35584961 184.2622168 392.18310547 184.75146484 C404.14083063 191.97116227 404.14083063 191.97116227 417.75 193.3125 C421.14123015 192.37408708 424.00617297 190.71924154 427.0859375 189.03515625 C429.75 188.3125 429.75 188.3125 432.609375 189.359375 C433.56328125 189.92140625 434.5171875 190.4834375 435.5 191.0625 C436.46421875 191.61421875 437.4284375 192.1659375 438.421875 192.734375 C440.75 194.3125 440.75 194.3125 441.75 196.3125 C434.02787871 207.1285838 424.40838498 217.33377409 411.125 220.6875 C385.92854961 224.73762495 360.66168313 211.31993941 340.73828125 197.26953125 C325.15614224 185.89898156 325.15614224 185.89898156 322.75 177.3125 C322.29762735 173.19087992 322.28198495 169.09280113 322.28125 164.94921875 C322.27363647 163.76205765 322.26602295 162.57489655 322.25817871 161.35176086 C322.24739959 158.8462636 322.24451567 156.34072148 322.24902344 153.83520508 C322.24999419 150.02282864 322.20837476 146.21247609 322.1640625 142.40039062 C322.15885375 139.9583375 322.15616733 137.51627743 322.15625 135.07421875 C322.13985474 133.94473312 322.12345947 132.8152475 322.10656738 131.65153503 C322.20420654 120.34256405 326.52585338 112.88561516 334.19140625 104.8046875 C343.84237173 95.4042051 354.70588024 88.10834924 365.75 80.3125 C341.66 80.3125 317.57 80.3125 292.75 80.3125 C294.4 82.2925 296.05 84.2725 297.75 86.3125 C299.45687503 89.72625006 299.14204157 93.62477221 299.30639648 97.38745117 C299.34857772 98.32153651 299.39075895 99.25562185 299.43421841 100.21801281 C299.89956353 111.51497888 299.87514656 122.8088429 299.84765625 134.11328125 C299.84578517 136.41497262 299.84436454 138.7166644 299.84336853 141.01835632 C299.83959759 147.00055084 299.82981541 152.98272008 299.81866455 158.96490479 C299.80833205 165.09964659 299.80384586 171.23439258 299.79882812 177.36914062 C299.78818679 189.35027317 299.77063576 201.3313805 299.75 213.3125 C286.88 213.3125 274.01 213.3125 260.75 213.3125 C260.73018066 209.98776611 260.71036133 206.66303223 260.68994141 203.23754883 C260.62284939 192.21733229 260.54521306 181.19720787 260.46247292 170.17709827 C260.41253209 163.49967845 260.36632778 156.82227388 260.328125 150.14477539 C260.29108381 143.69320076 260.24467389 137.24175366 260.19193649 130.79028893 C260.17349221 128.33652688 260.15834804 125.88273761 260.14665604 123.4289341 C261.54080041 101.51339097 261.54080041 101.51339097 253.75 82.3125 C248.43389903 80.40812459 243.42673637 79.91841975 237.8125 79.6875 C237.03326172 79.64882812 236.25402344 79.61015625 235.45117188 79.5703125 C233.55112621 79.47705873 231.65059722 79.39374038 229.75 79.3125 C230.17152344 80.12074219 230.59304688 80.92898437 231.02734375 81.76171875 C231.57519531 82.83035156 232.12304688 83.89898437 232.6875 85 C233.50541016 86.58361328 233.50541016 86.58361328 234.33984375 88.19921875 C236.3326927 92.59894343 236.87545595 96.51666229 236.87025452 101.31758118 C236.87162918 102.30049637 236.87300385 103.28341156 236.87442017 104.29611206 C236.87082489 105.36282135 236.86722961 106.42953064 236.86352539 107.52856445 C236.86367142 108.66070877 236.86381744 109.79285309 236.8639679 110.95930481 C236.86327172 114.69814984 236.85549306 118.43694493 236.84765625 122.17578125 C236.84579102 124.76938347 236.84436761 127.36298605 236.84336853 129.95658875 C236.83994164 136.08339402 236.83206162 142.21017871 236.82201904 148.33697623 C236.81083173 155.31398234 236.80534086 162.29098931 236.80032361 169.26800215 C236.7898783 183.61617928 236.77154329 197.96433534 236.75 212.3125 C224.21 212.3125 211.67 212.3125 198.75 212.3125 C198.09 208.0225 197.43 203.7325 196.75 199.3125 C193.65169071 195.87531313 191.46914169 193.79381186 187.75 191.3125 C186.90179687 190.73628906 186.05359375 190.16007813 185.1796875 189.56640625 C180.49372728 186.57856923 176.18075078 184.493098 170.75 183.3125 C169.85861328 184.23869141 169.85861328 184.23869141 168.94921875 185.18359375 C162.88035337 191.38459617 156.59271046 196.96839969 149.75 202.3125 C148.81414063 203.05371094 147.87828125 203.79492188 146.9140625 204.55859375 C114.97775956 229.25999696 77.96841558 239.07056024 37.8125 234.6875 C14.83712927 230.88449914 -10.89100414 220.90790171 -29.25 206.3125 C-28.68384016 202.42899732 -26.91155353 200.55479686 -24.25 197.75 C-21.02424968 194.27025359 -17.91965927 190.75339914 -14.9375 187.0625 C-9.51378186 180.3597845 -3.88187704 173.8401409 1.75 167.3125 C6.61460224 168.88128262 10.5712706 170.36280866 14.75 173.3125 C15.88242359 176.63899429 15.98494199 178.50978155 15 181.875 C14.45466528 184.48840186 14.45466528 184.48840186 16.5625 186.75 C30.29573753 198.64964451 48.30039512 201.10483916 65.8671875 200.12890625 C83.61614181 198.71488167 100.30507838 192.98056825 115.75 184.3125 C116.68070313 183.80847656 117.61140625 183.30445313 118.5703125 182.78515625 C132.73438329 174.77068986 145.9565474 163.25350555 152.75 148.3125 C153.12382813 147.508125 153.49765625 146.70375 153.8828125 145.875 C156.45811573 138.26509496 155.31808204 129.83613441 152.01953125 122.65625 C149.85971688 118.66890039 147.43194015 114.96585155 144.75 111.3125 C144.0075 110.260625 143.265 109.20875 142.5 108.125 C137.37890485 102.88751633 130.92252885 98.42956634 123.40234375 98.0859375 C104.3215945 99.71581004 82.36900728 109.47613155 69.375 123.6875 C67.27983851 126.21243821 66.47462959 128.13906556 65.75 131.3125 C73.08090106 130.89858711 79.51538726 129.40134384 86.4375 127 C87.33533203 126.70416016 88.23316406 126.40832031 89.15820312 126.10351562 C94.41324443 124.32103641 99.03232719 122.23603733 103.75 119.3125 C103.17618522 115.98437429 102.15619252 114.61407545 99.75 112.3125 C99.75 111.6525 99.75 110.9925 99.75 110.3125 C101.80762909 109.61055625 103.87136031 108.92648303 105.9375 108.25 C107.08605469 107.86714844 108.23460937 107.48429687 109.41796875 107.08984375 C112.87786809 106.28266911 114.46381786 106.04368331 117.75 107.3125 C125.13295224 113.2528064 132.63354512 120.65738224 134.25 130.29296875 C134.56150973 135.51724651 134.49884217 138.7393101 131.16796875 142.90234375 C127.95552921 146.36182108 124.56286213 148.62298427 120.375 150.75 C119.65094971 151.12342529 118.92689941 151.49685059 118.1809082 151.8815918 C102.25285132 159.75675268 75.1328801 171.44981253 57.01953125 166.578125 C48.5401472 163.07313318 48.5401472 163.07313318 45.75 159.3125 C44.5922494 155.83924819 44.68133348 152.95182552 44.75 149.3125 C44.09 149.3125 43.43 149.3125 42.75 149.3125 C42.75 148.3225 42.75 147.3325 42.75 146.3125 C41.84121094 146.71082031 40.93242188 147.10914063 39.99609375 147.51953125 C27.9674969 152.6460239 15.86897636 155.58240045 2.75 156.3125 C2.03972656 156.35375 1.32945312 156.395 0.59765625 156.4375 C-19.55241616 157.0205039 -35.97615339 148.16173107 -52.25 137.3125 C-52.25 162.3925 -52.25 187.4725 -52.25 213.3125 C-65.12 213.3125 -77.99 213.3125 -91.25 213.3125 C-91.58 207.3725 -91.91 201.4325 -92.25 195.3125 C-96.02405735 191.93872146 -97.7374811 190.97351512 -102.25 189.3125 C-103.93613555 188.45544769 -105.62204167 187.5978863 -107.30249023 186.72973633 C-130.4696772 175.07010854 -156.47885073 171.57253733 -181.4296875 179.296875 C-185.35600972 180.77635873 -188.5271493 182.0141572 -191.25 185.3125 C-191.16791399 187.93925244 -190.5246284 189.01498591 -188.75 190.9375 C-185.11436334 192.93710016 -181.30665429 193.5757145 -177.25 194.3125 C-177.25 195.3025 -177.25 196.2925 -177.25 197.3125 C-181.55020776 200.90819149 -186.97895621 204.9732021 -192.66015625 205.5625 C-195.02723488 205.06696204 -197.0312762 204.27795453 -199.25 203.3125 C-200.29285156 202.96058594 -201.33570313 202.60867188 -202.41015625 202.24609375 C-210.06696508 199.58247369 -216.61967636 196.56324846 -221.94140625 190.33203125 C-223.97679289 185.63545252 -223.6424992 181.05914917 -223.5625 176 C-223.56733398 174.48889648 -223.56733398 174.48889648 -223.57226562 172.94726562 C-223.47418208 159.26015229 -223.47418208 159.26015229 -219.47265625 153.95703125 C-218.75980469 153.35246094 -218.04695313 152.74789062 -217.3125 152.125 C-216.27802734 151.20654297 -216.27802734 151.20654297 -215.22265625 150.26953125 C-206.42429512 144.47718049 -196.8509424 141.92954716 -186.6875 139.5625 C-184.18576866 138.96533711 -181.68444335 138.3664698 -179.18359375 137.765625 C-178.09103271 137.50942383 -176.99847168 137.25322266 -175.87280273 136.98925781 C-173.29293145 136.42128327 -173.29293145 136.42128327 -171.25 135.3125 C-171.27884537 132.91359398 -171.27884537 132.91359398 -172.25 130.3125 C-174.89375166 128.38648943 -174.89375166 128.38648943 -178.30859375 126.9140625 C-178.93108505 126.62028717 -179.55357635 126.32651184 -180.19493103 126.02383423 C-188.1288171 122.33506182 -196.26801621 119.08858783 -204.3972168 115.859375 C-206.42706619 115.05020246 -208.45002293 114.22545176 -210.47265625 113.3984375 C-211.65609619 112.9245459 -212.83953613 112.4506543 -214.05883789 111.96240234 C-217.55213566 110.15628909 -219.75670337 108.34612244 -222.25 105.3125 C-222.5774493 100.31889821 -221.66909884 97.31681084 -218.6875 93.3125 C-212.09777428 86.35132837 -201.98872066 82.80798827 -193.25 79.3125 C-211.07 79.3125 -228.89 79.3125 -247.25 79.3125 C-244.94 81.9525 -242.63 84.5925 -240.25 87.3125 C-239.52268159 90.64196626 -239.22857838 92.99597686 -239.25 96.3125 C-239.22858381 97.1982477 -239.20716763 98.0839954 -239.18510246 98.99658394 C-239.12628803 102.05427607 -239.12620865 105.10803811 -239.13647461 108.16625977 C-239.13632858 109.31849533 -239.13618256 110.4707309 -239.1360321 111.65788269 C-239.13672488 115.43991016 -239.14448743 119.22188746 -239.15234375 123.00390625 C-239.15421019 125.63663201 -239.15563302 128.26935812 -239.15663147 130.90208435 C-239.15972852 137.10667063 -239.16791981 143.31123911 -239.17798096 149.51581758 C-239.18919282 156.58481313 -239.19466529 163.65380958 -239.19967639 170.72281182 C-239.21010393 185.25271834 -239.228429 199.78260562 -239.25 214.3125 C-251.79 214.3125 -264.33 214.3125 -277.25 214.3125 C-277.58 209.3625 -277.91 204.4125 -278.25 199.3125 C-281.35332713 196.16930143 -282.85012324 194.95988053 -286.625 193.1875 C-287.44991943 192.74776855 -288.27483887 192.30803711 -289.12475586 191.85498047 C-291.47662717 190.61870788 -293.85421138 189.46060408 -296.25 188.3125 C-297.25417969 187.78140625 -298.25835937 187.2503125 -299.29296875 186.703125 C-325.69502779 173.44069534 -357.90612167 173.17212967 -385.61376953 182.32373047 C-387.49808135 182.97065643 -389.37410477 183.64155937 -391.25 184.3125 C-391.91241699 184.5482373 -392.57483398 184.78397461 -393.25732422 185.02685547 C-396.36315627 186.13270285 -399.46277544 187.25003077 -402.5546875 188.39453125 C-405.25 189.3125 -405.25 189.3125 -407.25 189.3125 C-407.25 175.7825 -407.25 162.2525 -407.25 148.3125 C-403.599375 146.29125 -399.94875 144.27 -396.1875 142.1875 C-383.67821713 135.21001406 -371.41127008 127.87961066 -359.25 120.3125 C-357.96174316 119.51150879 -357.96174316 119.51150879 -356.64746094 118.69433594 C-348.32172273 113.50480788 -340.05121594 108.23492099 -331.875 102.8125 C-331.27429688 102.41514648 -330.67359375 102.01779297 -330.0546875 101.60839844 C-326.6488333 99.32936641 -323.41242815 96.91824604 -320.25 94.3125 C-320.628315 88.88998506 -322.35647587 86.95763344 -326.25 83.3125 C-345.09087727 89.96717647 -365.52201899 97.23021258 -382.25 108.3125 C-383.56112074 111.14116925 -383.56112074 111.14116925 -382.47265625 113.13671875 C-382.08980469 113.75160156 -381.70695313 114.36648437 -381.3125 115 C-380.631875 116.093125 -379.95125 117.18625 -379.25 118.3125 C-389.34047994 123.33531668 -389.34047994 123.33531668 -394.25 122.3125 C-398.95669432 120.08515243 -403.17778246 117.57586457 -405.25 112.625 C-407.45483641 104.78058202 -408.1172375 97.00190965 -405.25 89.3125 C-402.11594805 84.78553607 -398.81702295 82.18016557 -394.25 79.3125 C-394.25 78.9825 -394.25 78.6525 -394.25 78.3125 C-397.10442753 78.25812995 -399.95780076 78.21865026 -402.8125 78.1875 C-404.01229492 78.16236328 -404.01229492 78.16236328 -405.23632812 78.13671875 C-410.31500335 78.09526018 -414.43811906 78.67193925 -419.25 80.3125 C-421.0842277 87.84508726 -421.55385254 95.00454063 -421.56884766 102.73876953 C-421.57889328 103.93991898 -421.5889389 105.14106842 -421.59928894 106.37861633 C-421.62470702 109.64032514 -421.64166718 112.90194038 -421.65471697 116.16371775 C-421.67045227 119.58436315 -421.69720873 123.00492287 -421.7227478 126.42550659 C-421.76935293 132.88855508 -421.80618481 139.35162003 -421.83942068 145.8147496 C-421.87777195 153.17886078 -421.92714759 160.54288549 -421.97740483 167.90692353 C-422.08045268 183.0420574 -422.16834563 198.17723275 -422.25 213.3125 C-435.12 213.3125 -447.99 213.3125 -461.25 213.3125 C-461.58 210.3425 -461.91 207.3725 -462.25 204.3125 C-471.90215455 193.3733915 -487.37739359 189.39347571 -501.3671875 188.23046875 C-513.25114123 188.48153819 -523.8268701 192.34244236 -534.875 196.3125 C-547.75008538 200.91769427 -559.29167281 204.70996384 -573.125 204.625 C-574.09026611 204.61936035 -575.05553223 204.6137207 -576.05004883 204.60791016 C-590.91875708 204.3549856 -603.25187089 199.88885768 -614.1875 189.55859375 C-627.38138965 175.19024801 -631.63768356 154.2151998 -631.55078125 135.18359375 C-631.1308192 131.17486511 -630.12437436 127.24718461 -629.25 123.3125 C-614.73 123.3125 -600.21 123.3125 -585.25 123.3125 C-585.25 135.3125 -585.25 135.3125 -587.25 138.3125 C-588.075 138.76625 -588.9 139.22 -589.75 139.6875 C-592.83719822 141.69417884 -593.28044966 142.79483495 -594.25 146.3125 C-593.41739793 155.75626048 -590.58660895 164.59324909 -584.125 171.625 C-573.95024094 177.59714118 -563.80854956 179.0059557 -552.39501953 176.21289062 C-546.83359758 174.73682308 -541.32245947 173.09364555 -535.8125 171.4375 C-509.39624659 163.58212256 -488.84609455 160.64119289 -462.25 170.3125 C-462.25 155.1325 -462.25 139.9525 -462.25 124.3125 C-474.10560357 128.71350418 -474.10560357 128.71350418 -485.9609375 133.11523438 C-491.60740331 135.21190447 -497.2539619 137.30832411 -502.9006958 139.40427208 C-505.25028667 140.27650309 -507.59976121 141.14904689 -509.94921875 142.02163696 C-513.03600233 143.16803267 -516.12329769 144.3130354 -519.2109375 145.4571228 C-526.05681043 147.995798 -532.89525037 150.54967559 -539.7109375 153.16845703 C-540.82359985 153.59393326 -541.93626221 154.01940948 -543.0826416 154.45777893 C-545.10288637 155.2323365 -547.12060974 156.01351929 -549.13513184 156.80284119 C-550.45172791 157.30661034 -550.45172791 157.30661034 -551.79492188 157.82055664 C-552.54189331 158.11128555 -553.28886475 158.40201447 -554.05847168 158.70155334 C-556.53604027 159.39224131 -558.69004642 159.41995011 -561.25 159.3125 C-561.49950755 155.0628107 -561.6796499 150.81711809 -561.79931641 146.56225586 C-561.84924074 145.11944271 -561.91721814 143.67712615 -562.00439453 142.23608398 C-562.70385056 130.36590376 -562.70385056 130.36590376 -559.36621094 125.65185547 C-556.81318539 123.35696131 -554.02320021 121.33582381 -551.25 119.3125 C-547.62 116.0125 -543.99 112.7125 -540.25 109.3125 C-557.41 108.9825 -574.57 108.6525 -592.25 108.3125 C-592.25 90.74107143 -592.25 90.74107143 -587.0625 84.8125 C-586.134375 83.9875 -585.20625 83.1625 -584.25 82.3125 C-583.70730469 81.79042969 -583.16460938 81.26835937 -582.60546875 80.73046875 C-562.59701406 62.06995206 -538.63722346 56.29629743 -512.1484375 56.9296875 C-503.9999517 57.2793796 -496.92897309 58.5318853 -489.25 61.3125 C-488.63060547 61.53212402 -488.01121094 61.75174805 -487.37304688 61.97802734 C-477.97616502 65.3548824 -469.09505931 69.70598221 -460.25 74.3125 C-459.83814453 73.39791016 -459.83814453 73.39791016 -459.41796875 72.46484375 C-455.6170373 65.46045167 -447.01419532 63.62808442 -439.96875 61.328125 C-420.82721561 56.10039502 -398.27467075 60.48802616 -381.11328125 70.0625 C-377.19531454 71.77293567 -374.8313394 70.87096681 -370.89404297 69.48046875 C-370.10143066 69.15691406 -369.30881836 68.83335938 -368.4921875 68.5 C-367.61949219 68.14679688 -366.74679687 67.79359375 -365.84765625 67.4296875 C-364.94917969 67.06101562 -364.05070312 66.69234375 -363.125 66.3125 C-361.33100575 65.58265312 -359.5367462 64.8534579 -357.7421875 64.125 C-356.55665283 63.63966797 -356.55665283 63.63966797 -355.34716797 63.14453125 C-347.0754655 59.86281274 -336.53774713 60.03107184 -328.125 62.9375 C-315.13445597 69.2118444 -306.17272457 82.09861811 -299.25 94.3125 C-298.55777344 95.50552734 -298.55777344 95.50552734 -297.8515625 96.72265625 C-295.59545849 100.87484767 -294.33606218 104.57908014 -294.25 109.3125 C-299.67178271 124.91358998 -320.34802883 136.69120801 -334.25 144.3125 C-333.61723145 144.45236328 -332.98446289 144.59222656 -332.33251953 144.73632812 C-321.52122616 147.16882025 -310.78577439 149.61617057 -300.625 154.125 C-299.97805176 154.40730469 -299.33110352 154.68960938 -298.66455078 154.98046875 C-291.45222018 158.35499584 -284.88666908 162.94522288 -278.25 167.3125 C-278.22664805 158.83584915 -278.20897002 150.35921214 -278.19818783 141.88253689 C-278.19300834 137.94487291 -278.18600241 134.00723123 -278.17456055 130.06958008 C-278.16355368 126.25700225 -278.1576862 122.44444562 -278.15512276 118.6318531 C-278.1533001 117.19009124 -278.1497426 115.74833031 -278.14426994 114.30657768 C-276.96948495 95.27416986 -276.96948495 95.27416986 -283.25 78.3125 C-288.36773685 73.83448026 -294.85400329 72.25820774 -301.25 70.3125 C-301.25 68.9925 -301.25 67.6725 -301.25 66.3125 C-298.5037501 64.93937505 -296.22176712 65.09709402 -293.14624023 65.00048828 C-292.50404856 64.97999798 -291.86185688 64.95950768 -291.20020485 64.93839645 C-289.00730271 64.87166891 -286.81429217 64.81392861 -284.62109375 64.7578125 C-283.45531705 64.7264086 -283.45531705 64.7264086 -282.2659893 64.69437027 C-258.55457166 64.07185245 -234.83319738 64.1581133 -211.11555099 64.18372726 C-207.27577431 64.18753643 -203.43600011 64.18957668 -199.59622192 64.19119263 C-169.02056859 64.20638447 -138.44632332 64.27857294 -107.87345505 64.71866608 C-105.69511954 64.74989078 -103.5167671 64.77963212 -101.33840942 64.80926514 C-97.41166435 64.86378989 -93.48513647 64.92845326 -89.55859375 64.99609375 C-88.43319183 65.01281631 -87.30778992 65.02953888 -86.14828491 65.04676819 C-84.6313353 65.07667091 -84.6313353 65.07667091 -83.08374023 65.10717773 C-82.21450424 65.12272202 -81.34526825 65.1382663 -80.44969177 65.15428162 C-78.25 65.3125 -78.25 65.3125 -75.25 66.3125 C-75.29253906 65.29542969 -75.33507812 64.27835938 -75.37890625 63.23046875 C-74.8721278 47.8274751 -64.55173648 33.92978516 -54.25 23.3125 C-53.70988281 22.69890625 -53.16976562 22.0853125 -52.61328125 21.453125 C-39.35080606 6.88778701 -19.31561879 -0.12443074 0 0 Z M-153.25 83.3125 C-154.01715332 83.54727051 -154.78430664 83.78204102 -155.57470703 84.02392578 C-163.06483038 86.27849816 -163.06483038 86.27849816 -170.25 89.3125 C-170.25 90.9625 -170.25 92.6125 -170.25 94.3125 C-161.96715462 98.55548347 -153.65207868 102.64325696 -145.125 106.375 C-115.5168421 119.38964463 -115.5168421 119.38964463 -112.25 127.3125 C-111.86709538 129.30360401 -111.52395385 131.30350513 -111.25 133.3125 C-112.26126953 133.71082031 -112.26126953 133.71082031 -113.29296875 134.1171875 C-116.73707308 135.50938819 -120.15059729 136.96873035 -123.5625 138.4375 C-124.20767578 138.71464844 -124.85285156 138.99179688 -125.51757812 139.27734375 C-127.09529005 139.95517554 -128.67267826 140.63376074 -130.25 141.3125 C-128.93036795 143.9517641 -127.8013866 144.08212015 -125.0859375 145.16015625 C-123.78317871 145.69104858 -123.78317871 145.69104858 -122.45410156 146.23266602 C-121.05369629 146.79812134 -121.05369629 146.79812134 -119.625 147.375 C-111.24168906 150.84324071 -103.53883458 154.79598199 -95.890625 159.66015625 C-93.62787834 161.40090829 -93.62787834 161.40090829 -92.25 161.3125 C-91.10446613 148.56510568 -91.03080397 135.82256075 -91.00976562 123.03125 C-90.999964 119.4242528 -90.96880451 115.81780405 -90.9375 112.2109375 C-90.93097661 109.89323249 -90.92572354 107.57552349 -90.921875 105.2578125 C-90.9033548 103.65910812 -90.9033548 103.65910812 -90.88446045 102.02810669 C-90.9061842 94.70260987 -91.3616757 87.53091851 -96.4375 81.875 C-112.66740365 72.85838686 -136.54300123 78.19289206 -153.25 83.3125 Z M135.75 79.3125 C138.65236414 81.54438128 141.45861954 83.20599287 144.75 84.8125 C151.78588717 88.58946219 157.13887515 93.71790276 162.75 99.3125 C163.34683594 99.88613281 163.94367187 100.45976562 164.55859375 101.05078125 C175.33138341 112.34907285 179.79374309 128.34437081 181.6875 143.375 C182.45830423 148.7706296 183.62025102 151.54185963 187.75 155.3125 C188.42160156 155.92996094 189.09320312 156.54742187 189.78515625 157.18359375 C193.50162382 160.62593892 193.50162382 160.62593892 197.75 163.3125 C197.91267164 153.81973745 198.03681051 144.32745951 198.1126852 134.83360386 C198.14911425 130.42445472 198.19847123 126.01626377 198.27807617 121.60766602 C198.35451116 117.34763711 198.39606787 113.08852575 198.4141407 108.82786369 C198.42700831 107.2079519 198.45213658 105.58808657 198.4901104 103.9685688 C198.68716888 95.21070361 198.7248265 88.52986244 192.35487366 81.77891541 C191.82526535 81.29499832 191.29565704 80.81108124 190.75 80.3125 C190.255 79.8175 190.255 79.8175 189.75 79.3125 C188.06198015 79.21896837 186.37004793 79.19505209 184.67944336 79.19897461 C183.59839828 79.19905014 182.51735321 79.19912567 181.40354919 79.19920349 C180.2275264 79.20436478 179.0515036 79.20952606 177.83984375 79.21484375 C176.64267227 79.2162587 175.44550079 79.21767365 174.21205139 79.21913147 C170.37050934 79.22475021 166.52902457 79.23730589 162.6875 79.25 C160.09049563 79.25501259 157.49349035 79.25957591 154.89648438 79.26367188 C148.51430321 79.27472573 142.1321557 79.29148208 135.75 79.3125 Z M-543.25 92.3125 C-542.4674242 94.4516202 -542.4674242 94.4516202 -540.57226562 94.91992188 C-537.73034976 95.40034668 -534.97554956 95.51327194 -532.09375 95.59375 C-530.90652344 95.63113281 -529.71929688 95.66851562 -528.49609375 95.70703125 C-527.25988281 95.74183594 -526.02367187 95.77664062 -524.75 95.8125 C-522.30196763 95.88142271 -519.85403927 95.9541752 -517.40625 96.03125 C-516.32150391 96.06154297 -515.23675781 96.09183594 -514.11914062 96.12304688 C-511.67639561 96.28434454 -509.58586045 96.61484882 -507.25 97.3125 C-507.66730344 102.16920173 -510.0500858 104.76386075 -513.3125 108.125 C-513.78494141 108.62708984 -514.25738281 109.12917969 -514.74414062 109.64648438 C-515.90408452 110.87672789 -517.07588815 112.09577065 -518.25 113.3125 C-514.30701745 114.62682752 -512.70375712 113.68148506 -508.80078125 112.3203125 C-508.1589238 112.09885056 -507.51706635 111.87738861 -506.85575867 111.6492157 C-504.75467914 110.92116036 -502.65861344 110.1797199 -500.5625 109.4375 C-499.12060733 108.93401724 -497.67854885 108.43100909 -496.23632812 107.9284668 C-483.83361068 103.58884216 -471.51519854 99.02675906 -459.25 94.3125 C-460.4567512 90.69224641 -461.13843319 90.49163352 -464.4375 88.8125 C-484.10466233 79.61782382 -524.99436946 78.89005455 -543.25 92.3125 Z " fill="#211D1E" transform="translate(636.25,57.6875)"/>
<path d="M0 0 C0.61939453 0.21962402 1.23878906 0.43924805 1.87695312 0.66552734 C11.27383498 4.0423824 20.15494069 8.39348221 29 13 C29.41185547 12.08541016 29.41185547 12.08541016 29.83203125 11.15234375 C33.6329627 4.14795167 42.23580468 2.31558442 49.28125 0.015625 C68.42278439 -5.21210498 90.97532925 -0.82447384 108.13671875 8.75 C112.05468546 10.46043567 114.4186606 9.55846681 118.35595703 8.16796875 C119.54487549 7.68263672 119.54487549 7.68263672 120.7578125 7.1875 C122.06685547 6.65769531 122.06685547 6.65769531 123.40234375 6.1171875 C124.30082031 5.74851562 125.19929688 5.37984375 126.125 5 C127.91899425 4.27015312 129.7132538 3.5409579 131.5078125 2.8125 C132.29816895 2.48894531 133.08852539 2.16539063 133.90283203 1.83203125 C142.1745345 -1.44968726 152.71225287 -1.28142816 161.125 1.625 C174.11554403 7.8993444 183.07727543 20.78611811 190 33 C190.46148437 33.79535156 190.92296875 34.59070313 191.3984375 35.41015625 C193.65454151 39.56234767 194.91393782 43.26658014 195 48 C189.57821729 63.60108998 168.90197117 75.37870801 155 83 C155.63276855 83.13986328 156.26553711 83.27972656 156.91748047 83.42382812 C167.72877384 85.85632025 178.46422561 88.30367057 188.625 92.8125 C189.27194824 93.09480469 189.91889648 93.37710938 190.58544922 93.66796875 C197.79777982 97.04249584 204.36333092 101.63272288 211 106 C211.02335195 97.52334915 211.04102998 89.04671214 211.05181217 80.57003689 C211.05699166 76.63237291 211.06399759 72.69473123 211.07543945 68.75708008 C211.08644632 64.94450225 211.0923138 61.13194562 211.09487724 57.3193531 C211.0966999 55.87759124 211.1002574 54.43583031 211.10573006 52.99407768 C212.28051505 33.96166986 212.28051505 33.96166986 206 17 C200.88226315 12.52198026 194.39599671 10.94570774 188 9 C188 7.68 188 6.36 188 5 C190.7462499 3.62687505 193.02823288 3.78459402 196.10375977 3.68798828 C196.74595144 3.66749798 197.38814312 3.64700768 198.04979515 3.62589645 C200.24269729 3.55916891 202.43570783 3.50142861 204.62890625 3.4453125 C205.40609072 3.42437656 206.18327518 3.40344063 206.9840107 3.38187027 C230.69496363 2.75936465 254.4160433 2.84430029 278.13323593 2.87082291 C281.97543057 2.87504165 285.8176246 2.87797888 289.65982056 2.88070679 C320.11555868 2.90519648 350.57278179 2.94047298 381.02681351 3.28958893 C383.17084581 3.31232341 385.31486176 3.32986208 387.45895386 3.34588623 C391.34142414 3.37581027 395.22331326 3.43006484 399.10546875 3.48828125 C400.74712006 3.49788124 400.74712006 3.49788124 402.42193604 3.50767517 C413.17909455 3.71821214 421.20990483 6.406548 429 14 C434.35686257 20.75147156 436.28241161 27.58546698 436.4140625 36.16015625 C436.4431797 37.39963516 436.4431797 37.39963516 436.47288513 38.66415405 C436.53429793 41.46349692 436.58024841 44.2628441 436.625 47.0625 C436.64368134 48.03623566 436.66236267 49.00997131 436.68161011 50.01321411 C437.33101461 84.00052707 437.07866359 118.00858798 437 152 C424.13 152 411.26 152 398 152 C397.67 146.06 397.34 140.12 397 134 C393.22594265 130.62622146 391.5125189 129.66101512 387 128 C385.31386445 127.14294769 383.62795833 126.2853863 381.94750977 125.41723633 C358.7803228 113.75760854 332.77114927 110.26003733 307.8203125 117.984375 C303.89399028 119.46385873 300.7228507 120.7016572 298 124 C298.08208601 126.62675244 298.7253716 127.70248591 300.5 129.625 C304.13563666 131.62460016 307.94334571 132.2632145 312 133 C312 133.99 312 134.98 312 136 C307.69979224 139.59569149 302.27104379 143.6607021 296.58984375 144.25 C294.22276512 143.75446204 292.2187238 142.96545453 290 142 C288.95714844 141.64808594 287.91429687 141.29617188 286.83984375 140.93359375 C279.18303492 138.26997369 272.63032364 135.25074846 267.30859375 129.01953125 C265.27320711 124.32295252 265.6075008 119.74664917 265.6875 114.6875 C265.68266602 113.17639648 265.68266602 113.17639648 265.67773438 111.63476562 C265.77581792 97.94765229 265.77581792 97.94765229 269.77734375 92.64453125 C270.49019531 92.03996094 271.20304687 91.43539062 271.9375 90.8125 C272.97197266 89.89404297 272.97197266 89.89404297 274.02734375 88.95703125 C282.82570488 83.16468049 292.3990576 80.61704716 302.5625 78.25 C305.06423134 77.65283711 307.56555665 77.0539698 310.06640625 76.453125 C311.15896729 76.19692383 312.25152832 75.94072266 313.37719727 75.67675781 C315.95706855 75.10878327 315.95706855 75.10878327 318 74 C317.97115463 71.60109398 317.97115463 71.60109398 317 69 C314.35624834 67.07398943 314.35624834 67.07398943 310.94140625 65.6015625 C310.31891495 65.30778717 309.69642365 65.01401184 309.05506897 64.71133423 C301.1211829 61.02256182 292.98198379 57.77608783 284.8527832 54.546875 C282.82293381 53.73770246 280.79997707 52.91295176 278.77734375 52.0859375 C277.59390381 51.6120459 276.41046387 51.1381543 275.19116211 50.64990234 C271.69786434 48.84378909 269.49329663 47.03362244 267 44 C266.6725507 39.00639821 267.58090116 36.00431084 270.5625 32 C277.15222572 25.03882837 287.26127934 21.49548827 296 18 C278.18 18 260.36 18 242 18 C244.31 20.64 246.62 23.28 249 26 C249.72731841 29.32946626 250.02142162 31.68347686 250 35 C250.02141619 35.8857477 250.04283237 36.7714954 250.06489754 37.68408394 C250.12371197 40.74177607 250.12379135 43.79553811 250.11352539 46.85375977 C250.11367142 48.00599533 250.11381744 49.1582309 250.1139679 50.34538269 C250.11327512 54.12741016 250.10551257 57.90938746 250.09765625 61.69140625 C250.09578981 64.32413201 250.09436698 66.95685812 250.09336853 69.58958435 C250.09027148 75.79417063 250.08208019 81.99873911 250.07201904 88.20331758 C250.06080718 95.27231313 250.05533471 102.34130958 250.05032361 109.41031182 C250.03989607 123.94021834 250.021571 138.47010562 250 153 C237.46 153 224.92 153 212 153 C211.67 148.05 211.34 143.1 211 138 C207.89667287 134.85680143 206.39987676 133.64738053 202.625 131.875 C201.80008057 131.43526855 200.97516113 130.99553711 200.12524414 130.54248047 C197.77337283 129.30620788 195.39578862 128.14810408 193 127 C191.99582031 126.46890625 190.99164063 125.9378125 189.95703125 125.390625 C163.55497221 112.12819534 131.34387833 111.85962967 103.63623047 121.01123047 C101.75191865 121.65815643 99.87589523 122.32905937 98 123 C97.33758301 123.2357373 96.67516602 123.47147461 95.99267578 123.71435547 C92.88684373 124.82020285 89.78722456 125.93753077 86.6953125 127.08203125 C84 128 84 128 82 128 C82 114.47 82 100.94 82 87 C85.650625 84.97875 89.30125 82.9575 93.0625 80.875 C105.57178287 73.89751406 117.83872992 66.56711066 130 59 C130.85883789 58.46600586 131.71767578 57.93201172 132.60253906 57.38183594 C140.92827727 52.19230788 149.19878406 46.92242099 157.375 41.5 C157.97570312 41.10264648 158.57640625 40.70529297 159.1953125 40.29589844 C162.6011667 38.01686641 165.83757185 35.60574604 169 33 C168.621685 27.57748506 166.89352413 25.64513344 163 22 C144.15912273 28.65467647 123.72798101 35.91771258 107 47 C105.68887926 49.82866925 105.68887926 49.82866925 106.77734375 51.82421875 C107.16019531 52.43910156 107.54304687 53.05398437 107.9375 53.6875 C108.618125 54.780625 109.29875 55.87375 110 57 C99.90952006 62.02281668 99.90952006 62.02281668 95 61 C90.29330568 58.77265243 86.07221754 56.26336457 84 51.3125 C81.79516359 43.46808202 81.1327625 35.68940965 84 28 C87.13405195 23.47303607 90.43297705 20.86766557 95 18 C95 17.67 95 17.34 95 17 C92.14557247 16.94562995 89.29219924 16.90615026 86.4375 16.875 C85.23770508 16.84986328 85.23770508 16.84986328 84.01367188 16.82421875 C78.93499665 16.78276018 74.81188094 17.35943925 70 19 C68.1657723 26.53258726 67.69614746 33.69204063 67.68115234 41.42626953 C67.67110672 42.62741898 67.6610611 43.82856842 67.65071106 45.06611633 C67.62529298 48.32782514 67.60833282 51.58944038 67.59528303 54.85121775 C67.57954773 58.27186315 67.55279127 61.69242287 67.5272522 65.11300659 C67.48064707 71.57605508 67.44381519 78.03912003 67.41057932 84.5022496 C67.37222805 91.86636078 67.32285241 99.23038549 67.27259517 106.59442353 C67.16954732 121.7295574 67.08165437 136.86473275 67 152 C54.13 152 41.26 152 28 152 C27.67 149.03 27.34 146.06 27 143 C17.34784545 132.0608915 1.87260641 128.08097571 -12.1171875 126.91796875 C-24.00114123 127.16903819 -34.5768701 131.02994236 -45.625 135 C-58.50008538 139.60519427 -70.04167281 143.39746384 -83.875 143.3125 C-84.84026611 143.30686035 -85.80553223 143.3012207 -86.80004883 143.29541016 C-101.66875708 143.0424856 -114.00187089 138.57635768 -124.9375 128.24609375 C-138.13138965 113.87774801 -142.38768356 92.9026998 -142.30078125 73.87109375 C-141.8808192 69.86236511 -140.87437436 65.93468461 -140 62 C-125.48 62 -110.96 62 -96 62 C-96 74 -96 74 -98 77 C-98.825 77.45375 -99.65 77.9075 -100.5 78.375 C-103.58719822 80.38167884 -104.03044966 81.48233495 -105 85 C-104.16739793 94.44376048 -101.33660895 103.28074909 -94.875 110.3125 C-84.70024094 116.28464118 -74.55854956 117.6934557 -63.14501953 114.90039062 C-57.58359758 113.42432308 -52.07245947 111.78114555 -46.5625 110.125 C-20.14624659 102.26962256 0.40390545 99.32869289 27 109 C27 93.82 27 78.64 27 63 C15.14439643 67.40100418 15.14439643 67.40100418 3.2890625 71.80273438 C-2.35740331 73.89940447 -8.0039619 75.99582411 -13.6506958 78.09177208 C-16.00028667 78.96400309 -18.34976121 79.83654689 -20.69921875 80.70913696 C-23.78600233 81.85553267 -26.87329769 83.0005354 -29.9609375 84.1446228 C-36.80681043 86.683298 -43.64525037 89.23717559 -50.4609375 91.85595703 C-51.57359985 92.28143326 -52.68626221 92.70690948 -53.8326416 93.14527893 C-55.85288637 93.9198365 -57.87060974 94.70101929 -59.88513184 95.49034119 C-61.20172791 95.99411034 -61.20172791 95.99411034 -62.54492188 96.50805664 C-63.29189331 96.79878555 -64.03886475 97.08951447 -64.80847168 97.38905334 C-67.28604027 98.07974131 -69.44004642 98.10745011 -72 98 C-72.24950755 93.7503107 -72.4296499 89.50461809 -72.54931641 85.24975586 C-72.59924074 83.80694271 -72.66721814 82.36462615 -72.75439453 80.92358398 C-73.45385056 69.05340376 -73.45385056 69.05340376 -70.11621094 64.33935547 C-67.56318539 62.04446131 -64.77320021 60.02332381 -62 58 C-58.37 54.7 -54.74 51.4 -51 48 C-68.16 47.67 -85.32 47.34 -103 47 C-103 29.42857143 -103 29.42857143 -97.8125 23.5 C-96.4203125 22.2625 -96.4203125 22.2625 -95 21 C-94.45730469 20.47792969 -93.91460937 19.95585937 -93.35546875 19.41796875 C-68.99891753 -3.29772007 -31.42753164 -11.38014879 0 0 Z M336 22 C335.23284668 22.23477051 334.46569336 22.46954102 333.67529297 22.71142578 C326.18516962 24.96599816 326.18516962 24.96599816 319 28 C319 29.65 319 31.3 319 33 C327.28284538 37.24298347 335.59792132 41.33075696 344.125 45.0625 C373.7331579 58.07714463 373.7331579 58.07714463 377 66 C377.38290462 67.99110401 377.72604615 69.99100513 378 72 C376.98873047 72.39832031 376.98873047 72.39832031 375.95703125 72.8046875 C372.51292692 74.19688819 369.09940271 75.65623035 365.6875 77.125 C365.04232422 77.40214844 364.39714844 77.67929688 363.73242188 77.96484375 C362.15470995 78.64267554 360.57732174 79.32126074 359 80 C360.31963205 82.6392641 361.4486134 82.76962015 364.1640625 83.84765625 C365.46682129 84.37854858 365.46682129 84.37854858 366.79589844 84.92016602 C368.19630371 85.48562134 368.19630371 85.48562134 369.625 86.0625 C378.00831094 89.53074071 385.71116542 93.48348199 393.359375 98.34765625 C395.62212166 100.08840829 395.62212166 100.08840829 397 100 C398.14553387 87.25260568 398.21919603 74.51006075 398.24023438 61.71875 C398.250036 58.1117528 398.28119549 54.50530405 398.3125 50.8984375 C398.31902339 48.58073249 398.32427646 46.26302349 398.328125 43.9453125 C398.3466452 42.34660812 398.3466452 42.34660812 398.36553955 40.71560669 C398.3438158 33.39010987 397.8883243 26.21841851 392.8125 20.5625 C376.58259635 11.54588686 352.70699877 16.88039206 336 22 Z M-54 31 C-53.2174242 33.1391202 -53.2174242 33.1391202 -51.32226562 33.60742188 C-48.48034976 34.08784668 -45.72554956 34.20077194 -42.84375 34.28125 C-41.65652344 34.31863281 -40.46929687 34.35601562 -39.24609375 34.39453125 C-38.00988281 34.42933594 -36.77367187 34.46414062 -35.5 34.5 C-33.05196763 34.56892271 -30.60403927 34.6416752 -28.15625 34.71875 C-27.07150391 34.74904297 -25.98675781 34.77933594 -24.86914062 34.81054688 C-22.42639561 34.97184454 -20.33586045 35.30234882 -18 36 C-18.41730344 40.85670173 -20.8000858 43.45136075 -24.0625 46.8125 C-24.53494141 47.31458984 -25.00738281 47.81667969 -25.49414062 48.33398438 C-26.65408452 49.56422789 -27.82588815 50.78327065 -29 52 C-25.05701745 53.31432752 -23.45375712 52.36898506 -19.55078125 51.0078125 C-18.9089238 50.78635056 -18.26706635 50.56488861 -17.60575867 50.3367157 C-15.50467914 49.60866036 -13.40861344 48.8672199 -11.3125 48.125 C-9.87060733 47.62151724 -8.42854885 47.11850909 -6.98632812 46.6159668 C5.41638932 42.27634216 17.73480146 37.71425906 30 33 C28.7932488 29.37974641 28.11156681 29.17913352 24.8125 27.5 C5.14533767 18.30532382 -35.74436946 17.57755455 -54 31 Z " fill="#201D1E" transform="translate(147,119)"/>
<path d="M0 0 C0.91386475 0.00491455 1.82772949 0.0098291 2.76928711 0.01489258 C22.61382985 0.35550395 41.84624113 8.0072829 56.30859375 21.75 C68.12458963 34.15206927 74.21886533 46.69833953 78.75 63.3125 C66.87 63.3125 54.99 63.3125 42.75 63.3125 C42.75 68.5925 42.75 73.8725 42.75 79.3125 C53.31 79.3125 63.87 79.3125 74.75 79.3125 C71.97310322 82.08939678 70.05390758 83.32362379 66.625 85.0625 C58.53190344 89.38738229 48.80827974 95.13766079 45.75 104.3125 C45.61026505 106.41932845 45.52456087 108.52990543 45.46875 110.640625 C45.43193115 111.9095459 45.3951123 113.1784668 45.35717773 114.48583984 C45.33968475 115.15299011 45.32219177 115.82014038 45.3041687 116.50750732 C45.0154855 127.45925329 44.65050897 138.39143377 43.75 149.3125 C43.42 148.3225 43.09 147.3325 42.75 146.3125 C41.38681641 146.90998047 41.38681641 146.90998047 39.99609375 147.51953125 C27.9674969 152.6460239 15.86897636 155.58240045 2.75 156.3125 C2.03972656 156.35375 1.32945312 156.395 0.59765625 156.4375 C-16.85825157 156.94255339 -31.76725004 150.39431946 -46.25 141.3125 C-47.15370583 140.8526899 -47.15370583 140.8526899 -48.07566833 140.3835907 C-51.01153742 138.7029859 -52.92269782 137.46327422 -53.87420654 134.11782837 C-54.09146922 131.35414974 -54.08822391 128.66574833 -54.01171875 125.89453125 C-54.01452347 124.88210861 -54.01732819 123.86968597 -54.0202179 122.82658386 C-54.02549279 119.59164146 -53.98494319 116.35956611 -53.9375 113.125 C-53.90587084 109.90872482 -53.88473914 106.69341106 -53.88691711 103.47697449 C-53.88678853 101.47890874 -53.867001 99.4807093 -53.82389832 97.48310852 C-53.79924341 89.55912579 -55.65972362 82.40962264 -60.5 76 C-64.85370901 71.74523892 -69.81360654 68.97621172 -75.25 66.3125 C-75.84194127 52.15972248 -67.92181288 38.34168698 -58.75 28 C-57.25766699 26.43017566 -55.75829462 24.86699464 -54.25 23.3125 C-53.70988281 22.69890625 -53.16976562 22.0853125 -52.61328125 21.453125 C-39.35080606 6.88778701 -19.31561879 -0.12443074 0 0 Z " fill="#E54025" transform="translate(636.25,57.6875)"/>
<path d="M0 0 C2.1782688 1.49868374 3.43571487 3.02502465 4.83349609 5.26147461 C4.83349609 5.92147461 4.83349609 6.58147461 4.83349609 7.26147461 C3.41918945 8.35546875 3.41918945 8.35546875 1.42333984 9.54663086 C0.68712402 9.99095459 -0.0490918 10.43527832 -0.80761719 10.89306641 C-1.6066748 11.36526611 -2.40573242 11.83746582 -3.22900391 12.32397461 C-4.0357959 12.80842041 -4.84258789 13.29286621 -5.67382812 13.79199219 C-7.34381856 14.7937571 -9.01572363 15.7923366 -10.68945312 16.7878418 C-13.03112542 18.18093602 -15.36746154 19.58246489 -17.70166016 20.98803711 C-21.18608828 23.08567664 -24.67490911 25.17578745 -28.16650391 27.26147461 C-30.68909452 25.28727326 -31.1594847 24.29401819 -31.85400391 21.07397461 C-31.95712891 20.14584961 -32.06025391 19.21772461 -32.16650391 18.26147461 C-25.61973581 13.36862687 -18.73606183 8.99965262 -11.79150391 4.69897461 C-10.91139648 4.13791016 -10.03128906 3.5768457 -9.12451172 2.9987793 C-8.28500977 2.48605469 -7.44550781 1.97333008 -6.58056641 1.44506836 C-5.45062256 0.74208618 -5.45062256 0.74208618 -4.29785156 0.02490234 C-2.16650391 -0.73852539 -2.16650391 -0.73852539 0 0 Z " fill="#E64125" transform="translate(743.16650390625,68.738525390625)"/>
<path d="M0 0 C5.75 0.75 5.75 0.75 8 3 C7.72548035 7.81737713 5.19088243 11.84726479 2.9375 16 C2.34110718 17.11362915 2.34110718 17.11362915 1.73266602 18.24975586 C-1.91981879 24.99842505 -5.87198752 31.53240552 -10 38 C-14.75 37.25 -14.75 37.25 -17 35 C-16.66876368 30.67840708 -15.42726905 27.39904034 -13.41796875 23.59375 C-12.89783203 22.60246094 -12.37769531 21.61117187 -11.84179688 20.58984375 C-11.29587891 19.57019531 -10.74996094 18.55054687 -10.1875 17.5 C-9.65318359 16.48035156 -9.11886719 15.46070313 -8.56835938 14.41015625 C-5.93447151 9.4274754 -3.25534965 4.60320629 0 0 Z " fill="#E64025" transform="translate(696,24)"/>
<path d="M0 0 C3.58571309 0.35284547 6.2449623 1.48678761 9.328125 3.29296875 C10.12863281 3.75896484 10.92914062 4.22496094 11.75390625 4.70507812 C12.57761719 5.19427734 13.40132812 5.68347656 14.25 6.1875 C15.05824219 6.65736328 15.86648438 7.12722656 16.69921875 7.61132812 C19.14966234 9.04826825 21.57878008 10.51437801 24 12 C24.85505127 12.52384277 25.71010254 13.04768555 26.59106445 13.58740234 C27.40792725 14.10641113 28.22479004 14.62541992 29.06640625 15.16015625 C29.80576416 15.62687744 30.54512207 16.09359863 31.30688477 16.57446289 C33 18 33 18 33.6875 21.25 C33 24 33 24 31 26 C27.22430455 25.64951016 24.44871275 24.33830771 21.19921875 22.453125 C20.30396484 21.9375 19.40871094 21.421875 18.48632812 20.890625 C17.56271484 20.34921875 16.63910156 19.8078125 15.6875 19.25 C14.77548828 18.7240625 13.86347656 18.198125 12.92382812 17.65625 C7.54703151 14.54194773 2.24987275 11.32348334 -3 8 C-2.25 2.25 -2.25 2.25 0 0 Z " fill="#E64125" transform="translate(532,68)"/>
<path d="M0 0 C1.859375 2.31640625 1.859375 2.31640625 3.75 5.5625 C4.08781494 6.1387915 4.42562988 6.71508301 4.77368164 7.30883789 C5.86842918 9.1955412 6.93596 11.09582855 8 13 C8.55953369 13.98564941 8.55953369 13.98564941 9.13037109 14.99121094 C10.24683256 16.96585879 11.34586927 18.94903043 12.4375 20.9375 C12.77942383 21.55117432 13.12134766 22.16484863 13.47363281 22.79711914 C15.46901907 26.5234979 16.54461386 29.79890255 17 34 C15.68 34.99 14.36 35.98 13 37 C6.74497085 34.71663759 4.12813865 27.49646742 1 22 C0.62166016 21.3404834 0.24332031 20.6809668 -0.14648438 20.00146484 C-1.28037398 18.00945759 -2.3940277 16.00762343 -3.5 14 C-3.85030273 13.37778564 -4.20060547 12.75557129 -4.56152344 12.11450195 C-6.4225126 8.65630431 -7.73270499 5.94533458 -7 2 C-4 0 -4 0 0 0 Z " fill="#E64125" transform="translate(580,24)"/>
<path d="M0 0 C2.97 0 5.94 0 9 0 C9 13.2 9 26.4 9 40 C6.03 40 3.06 40 0 40 C0 26.8 0 13.6 0 0 Z " fill="#E54126" transform="translate(633,8)"/>
</svg>
