<?xml version="1.0" encoding="UTF-8"?>
<svg version="1.1" xmlns="http://www.w3.org/2000/svg" width="2272" height="720">
<path d="M0 0 C12.83767492 12.32416792 18.09676685 27.2738688 18.65039062 44.81762695 C18.86775975 62.58275812 15.21181632 78.60022379 2.70703125 91.83203125 C-2.58916968 96.8339988 -12.04611128 105.15625 -19.75390625 105.15625 C-16.20150196 112.59085198 -12.17082088 119.62729119 -7.87890625 126.65625 C-1.81039502 136.67849963 4.11663579 146.76973396 9.93725586 156.93823242 C12.714831 161.78686826 15.50629653 166.62021713 18.41015625 171.39453125 C18.88348389 172.17699219 19.35681152 172.95945312 19.84448242 173.765625 C20.70508827 175.18150597 21.57436058 176.59217512 22.4543457 177.99609375 C24.57565619 181.49637048 25.86459962 184.02524166 25.24609375 188.15625 C22.26881218 191.13353157 11.10818094 189.48001968 6.87329102 189.50634766 C4.91874279 189.52290475 2.96425505 189.55019157 1.01000977 189.58837891 C-1.80354316 189.6431034 -4.61567428 189.66501523 -7.4296875 189.6796875 C-8.30273026 189.70235687 -9.17577301 189.72502625 -10.07527161 189.74838257 C-16.15187476 189.72719317 -16.15187476 189.72719317 -19.2265625 186.8112793 C-19.73058594 185.93511963 -20.23460937 185.05895996 -20.75390625 184.15625 C-21.33527344 183.16496094 -21.91664062 182.17367187 -22.515625 181.15234375 C-23.16018982 179.96757708 -23.8018974 178.78125339 -24.44140625 177.59375 C-28.71138472 169.84134219 -33.27090457 162.27314387 -37.87890625 154.71875 C-38.61023373 153.51833791 -39.34151608 152.31789834 -40.07275391 151.11743164 C-41.55470272 148.68525819 -43.03724783 146.25344918 -44.52001953 143.82177734 C-48.13063074 137.8987012 -51.72982162 131.96890537 -55.31640625 126.03125 C-55.96561035 124.96463135 -56.61481445 123.8980127 -57.28369141 122.79907227 C-57.87327637 121.82123779 -58.46286133 120.84340332 -59.0703125 119.8359375 C-59.85063843 118.54792236 -59.85063843 118.54792236 -60.64672852 117.23388672 C-61.75390625 115.15625 -61.75390625 115.15625 -61.75390625 113.15625 C-62.66567627 113.16148682 -63.57744629 113.16672363 -64.5168457 113.17211914 C-67.95174818 113.18932523 -71.38660378 113.20177912 -74.8215332 113.21118164 C-76.29842865 113.21616084 -77.7753193 113.22294663 -79.25219727 113.23168945 C-81.39470617 113.2440403 -83.53714906 113.24954244 -85.6796875 113.25390625 C-86.96270752 113.25914307 -88.24572754 113.26437988 -89.56762695 113.26977539 C-94.6519749 113.20718346 -99.69859126 112.66911226 -104.75390625 112.15625 C-104.74724442 113.04716843 -104.74058258 113.93808685 -104.73371887 114.85600281 C-104.67357572 123.25733471 -104.62791552 131.65859417 -104.59846973 140.06009197 C-104.58282236 144.37926617 -104.56160115 148.69826228 -104.52758789 153.01733398 C-104.49496115 157.18649353 -104.47704625 161.35548192 -104.46927452 165.52475929 C-104.46373695 167.11436469 -104.45292334 168.70396085 -104.43671608 170.29349327 C-104.41489725 172.52228316 -104.41194111 174.75036832 -104.41333008 176.97924805 C-104.40666824 178.24721725 -104.40000641 179.51518646 -104.3931427 180.82157898 C-104.78478378 184.44166246 -105.46171749 186.34158716 -107.75390625 189.15625 C-110.63718465 189.67475487 -112.93000013 189.85862257 -115.81640625 189.8203125 C-116.99795288 189.82748795 -116.99795288 189.82748795 -118.20336914 189.83480835 C-119.86769611 189.83820872 -121.53208974 189.82899634 -123.19628906 189.80810547 C-125.74565367 189.78133665 -128.29061627 189.80784302 -130.83984375 189.83984375 C-132.45704098 189.83653967 -134.07423547 189.83013346 -135.69140625 189.8203125 C-136.45396729 189.83043365 -137.21652832 189.84055481 -138.00219727 189.85098267 C-140.15625 189.80322266 -140.15625 189.80322266 -143.75390625 189.15625 C-147.08317908 185.14983535 -147.18046328 181.25673305 -147.13485718 176.26159668 C-147.13953715 175.47272678 -147.14421712 174.68385688 -147.14903891 173.87108183 C-147.16099327 171.23094021 -147.15153006 168.59131724 -147.14208984 165.95117188 C-147.14615535 164.05709022 -147.15149711 162.16301094 -147.15802002 160.26893616 C-147.17170188 155.12643944 -147.16639134 149.9841232 -147.15688276 144.84162331 C-147.14929071 139.46142717 -147.15633052 134.08124654 -147.16104126 128.7010498 C-147.16650013 119.66574325 -147.15930373 110.63051024 -147.14501953 101.59521484 C-147.12869279 91.14724124 -147.1339812 80.69944325 -147.15049875 70.2514739 C-147.16410985 61.28320102 -147.16603511 52.31498102 -147.15818274 43.34670115 C-147.15350417 37.9894005 -147.15288647 32.63218243 -147.16279221 27.27488708 C-147.17145409 22.23844107 -147.16545411 17.20222162 -147.14810944 12.16580009 C-147.14414044 10.3166841 -147.14528568 8.46754906 -147.15189743 6.61844063 C-147.16008673 4.0956702 -147.14982324 1.57362731 -147.13485718 -0.94909668 C-147.14154934 -1.68207489 -147.14824151 -2.41505311 -147.15513647 -3.17024279 C-147.10450142 -7.56607485 -146.42589327 -10.33066444 -143.75390625 -13.84375 C-134.63892937 -20.34480768 -115.24043444 -18.46351142 -104.31640625 -18.96875 C-103.44361023 -19.01044312 -102.57081421 -19.05213623 -101.67156982 -19.09509277 C-26.52933342 -22.65230439 -26.52933342 -22.65230439 0 0 Z M-104.75390625 17.15625 C-104.75390625 37.61625 -104.75390625 58.07625 -104.75390625 79.15625 C-66.22636316 83.00887358 -66.22636316 83.00887358 -30.58203125 71.3671875 C-23.5015165 64.02334782 -22.25129324 56.02417245 -22.33398438 46.11157227 C-22.62237026 38.265073 -24.58465141 32.22947419 -29.81640625 26.34375 C-39.61191637 17.46918528 -52.71600733 15.82640543 -65.3984375 15.92578125 C-66.37125168 15.92623947 -67.34406586 15.92669769 -68.34635925 15.9271698 C-70.38415766 15.93016829 -72.42195427 15.93798152 -74.4597168 15.95043945 C-77.57544062 15.96880325 -80.69086806 15.97094798 -83.80664062 15.97070312 C-85.79557548 15.97561556 -87.78450833 15.98144267 -89.7734375 15.98828125 C-91.16415215 15.98995049 -91.16415215 15.98995049 -92.58296204 15.99165344 C-93.4512413 15.99803329 -94.31952057 16.00441315 -95.21411133 16.01098633 C-96.35134392 16.01670403 -96.35134392 16.01670403 -97.5115509 16.02253723 C-100.23511658 16.13341245 -100.23511658 16.13341245 -104.75390625 17.15625 Z " fill="#86888B" transform="translate(1918.75390625,272.84375)"/>
<path d="M0 0 C13.43297698 13.63963816 17.91099514 30.30520268 17.84375 49.07080078 C17.59792647 59.63884898 15.75936108 70.27779784 10.5390625 79.578125 C10.13042969 80.31289063 9.72179687 81.04765625 9.30078125 81.8046875 C2.69892702 92.62800908 -7.10127858 99.4431629 -18.4609375 104.578125 C-19.1209375 104.578125 -19.7809375 104.578125 -20.4609375 104.578125 C-16.53620076 112.71812046 -12.24184008 120.49953385 -7.5234375 128.203125 C-1.44440488 138.22556006 4.48314104 148.3236305 10.29858398 158.5012207 C12.97100693 163.16911946 15.65349098 167.81645716 18.515625 172.37109375 C18.94891113 173.06444824 19.38219727 173.75780273 19.82861328 174.47216797 C20.93802351 176.23048697 22.06577745 177.97719719 23.1953125 179.72265625 C24.71364125 182.94910485 24.72852665 184.26546733 23.5390625 187.578125 C20.60391802 190.51326948 9.76278196 188.90164617 5.59350586 188.92822266 C3.68745715 188.94477864 1.78147043 188.97206407 -0.12426758 189.01025391 C-2.86832985 189.06498761 -5.61093431 189.08689147 -8.35546875 189.1015625 C-9.20663773 189.12423187 -10.0578067 189.14690125 -10.93476868 189.17025757 C-16.83971712 189.14914969 -16.83971712 189.14914969 -19.79956055 186.4284668 C-20.34781494 185.487854 -20.89606934 184.54724121 -21.4609375 183.578125 C-22.06292969 182.61704834 -22.66492188 181.65597168 -23.28515625 180.66577148 C-24.20748047 179.07357788 -24.20748047 179.07357788 -25.1484375 177.44921875 C-25.4875264 176.86688477 -25.8266153 176.28455078 -26.17597961 175.68457031 C-26.89961655 174.44101676 -27.62148207 173.19643096 -28.34170532 171.95089722 C-30.24170345 168.66559711 -32.15510184 165.38810559 -34.06640625 162.109375 C-34.44564743 161.45795029 -34.82488861 160.80652557 -35.21562195 160.13536072 C-38.36045793 154.73726486 -41.55091929 149.36773618 -44.7734375 144.015625 C-45.23975586 143.23968994 -45.70607422 142.46375488 -46.18652344 141.66430664 C-48.73449147 137.42966178 -51.2959273 133.20338578 -53.86328125 128.98046875 C-54.42297607 128.0562915 -54.9826709 127.13211426 -55.55932617 126.17993164 C-56.63773727 124.3994773 -57.7197741 122.62121259 -58.8059082 120.84545898 C-59.28503662 120.05341064 -59.76416504 119.2613623 -60.2578125 118.4453125 C-60.68416992 117.74519043 -61.11052734 117.04506836 -61.54980469 116.32373047 C-62.4609375 114.578125 -62.4609375 114.578125 -62.4609375 112.578125 C-63.3674707 112.58336182 -64.27400391 112.58859863 -65.20800781 112.59399414 C-68.62988952 112.6112213 -72.05172393 112.62366405 -75.47363281 112.63305664 C-76.94369238 112.63802956 -78.41374715 112.64481027 -79.88378906 112.65356445 C-82.01889238 112.66594397 -84.15392936 112.67142365 -86.2890625 112.67578125 C-87.5668457 112.68101807 -88.84462891 112.68625488 -90.16113281 112.69165039 C-95.61273875 112.62535342 -101.03514441 112.07787283 -106.4609375 111.578125 C-106.45427567 112.51328949 -106.44761383 113.44845398 -106.44075012 114.41195679 C-106.38001754 123.21155064 -106.33500278 132.01110214 -106.30550098 140.81085777 C-106.28982407 145.33525684 -106.26854911 149.85948714 -106.23461914 154.38378906 C-106.20209754 158.74744965 -106.18409976 163.11094761 -106.17630577 167.47472 C-106.17074926 169.14216295 -106.15989916 170.80959669 -106.14374733 172.47697067 C-106.12206818 174.80694789 -106.11896649 177.13624727 -106.12036133 179.46630859 C-106.1095755 180.16042343 -106.09878967 180.85453827 -106.087677 181.56968689 C-106.10017395 183.49032593 -106.10017395 183.49032593 -106.4609375 186.578125 C-110.1552555 189.04100367 -113.02602392 188.9012058 -117.3046875 188.9140625 C-118.45294006 188.9240477 -118.45294006 188.9240477 -119.62438965 188.93423462 C-121.24159341 188.94435193 -122.85883884 188.94905192 -124.47607422 188.94873047 C-126.95219384 188.95310954 -129.42653884 188.98945129 -131.90234375 189.02734375 C-133.47395224 189.03321095 -135.04556919 189.03718099 -136.6171875 189.0390625 C-137.35787476 189.05343353 -138.09856201 189.06780457 -138.86169434 189.08261108 C-143.95555597 189.03723891 -143.95555597 189.03723891 -146.15582371 187.03840542 C-147.96147819 183.63455175 -147.87900306 180.48764982 -147.84861755 176.72779846 C-147.85400309 175.93161588 -147.85938863 175.1354333 -147.86493737 174.31512398 C-147.87925773 171.64425211 -147.87210326 168.97387301 -147.86499023 166.30297852 C-147.87069168 164.3893392 -147.87765506 162.47570328 -147.88578796 160.56207275 C-147.90375951 155.36167765 -147.90254347 150.16145091 -147.89684558 144.96103406 C-147.89375948 140.6219091 -147.89983972 136.28281676 -147.90588433 131.94369644 C-147.91994109 121.70844918 -147.9183587 111.47328536 -147.90698242 101.23803711 C-147.89549984 90.67360094 -147.90957668 80.10941859 -147.9363789 69.54501587 C-147.95851953 60.4790965 -147.96517697 51.41325689 -147.95930248 42.34731239 C-147.95592781 36.93071952 -147.95838184 31.51428937 -147.97555351 26.09771919 C-147.99099445 21.00460602 -147.98709876 15.9118695 -147.96824837 10.81877136 C-147.96455458 8.94868989 -147.96769388 7.07858068 -147.97813416 5.2085247 C-147.99129198 2.65705788 -147.97984355 0.10684754 -147.96214294 -2.44456482 C-147.97174795 -3.18600705 -147.98135296 -3.92744928 -147.99124902 -4.69135946 C-147.92200841 -9.53644037 -146.91386393 -12.0249688 -143.4609375 -15.421875 C-141.50585938 -16.31030273 -141.50585938 -16.31030273 -139.4296875 -16.66796875 C-138.63949219 -16.8057373 -137.84929688 -16.94350586 -137.03515625 -17.08544922 C-132.35107169 -17.69761429 -127.67207097 -18.13989383 -122.9609375 -18.484375 C-121.87361328 -18.56671387 -120.78628906 -18.64905273 -119.66601562 -18.73388672 C-29.18437666 -25.31034436 -29.18437666 -25.31034436 0 0 Z M-106.4609375 16.578125 C-106.4609375 37.038125 -106.4609375 57.498125 -106.4609375 78.578125 C-100.1084375 78.784375 -93.7559375 78.990625 -87.2109375 79.203125 C-85.2525293 79.27354004 -83.29412109 79.34395508 -81.27636719 79.41650391 C-72.29938596 79.69568134 -63.47221063 79.61039937 -54.52734375 78.734375 C-53.71469055 78.65555084 -52.90203735 78.57672668 -52.0647583 78.49551392 C-43.40227059 77.53116068 -35.67375274 75.28030235 -29.3984375 68.953125 C-23.3490002 61.07410179 -22.5588046 51.19228419 -23.4609375 41.578125 C-24.66660448 33.5167046 -28.2077279 27.79945183 -34.4609375 22.578125 C-44.3226939 16.54331885 -54.97606633 15.26080706 -66.32421875 15.34765625 C-67.81673409 15.34834358 -67.81673409 15.34834358 -69.33940125 15.3490448 C-71.42427782 15.352044 -73.50915262 15.35985943 -75.59399414 15.37231445 C-78.78214449 15.39067514 -81.97000517 15.39282301 -85.15820312 15.39257812 C-87.19271084 15.39749063 -89.2272166 15.40331778 -91.26171875 15.41015625 C-92.68524406 15.41182549 -92.68524406 15.41182549 -94.13752747 15.41352844 C-95.02582748 15.41990829 -95.9141275 15.42628815 -96.8293457 15.43286133 C-97.99322563 15.43857903 -97.99322563 15.43857903 -99.18061829 15.44441223 C-101.93600384 15.55320945 -101.93600384 15.55320945 -106.4609375 16.578125 Z " fill="#86888B" transform="translate(936.4609375,273.421875)"/>
<path d="M0 0 C0.76569809 0.01437103 1.53139618 0.02874207 2.32029724 0.04354858 C3.50540138 0.04492325 3.50540138 0.04492325 4.71444702 0.04632568 C6.38301102 0.0523634 8.05156409 0.06811475 9.71995544 0.09286499 C12.27919759 0.12940123 14.8369933 0.13388421 17.39646912 0.13339233 C19.01692438 0.14322244 20.63736982 0.15487898 22.25779724 0.16854858 C23.02551956 0.17077423 23.79324188 0.17299988 24.58422852 0.17529297 C29.99048112 0.27232621 29.99048112 0.27232621 32.22264099 2.50448608 C32.4787674 4.67367744 32.4787674 4.67367744 32.48765564 7.42077637 C32.50006538 8.98049164 32.50006538 8.98049164 32.51272583 10.57171631 C32.51125298 12.29051498 32.51125298 12.29051498 32.50975037 14.04403687 C32.5165834 15.24757813 32.52341644 16.45111938 32.53045654 17.69113159 C32.54408135 20.31470471 32.55410169 22.93800989 32.5581665 25.56158829 C32.56488699 29.72483128 32.58665773 33.88791243 32.61070251 38.05108643 C32.65973163 46.9105149 32.6919063 55.76997822 32.72264099 64.62948608 C32.75579078 74.1471297 32.79214744 83.66471027 32.84677172 93.18225849 C32.86612099 96.63459911 32.88146692 100.0868571 32.88711548 103.53924942 C31.8096271 134.8162511 31.8096271 134.8162511 44.18748474 162.50057983 C53.77808627 171.94391685 65.79889377 173.77029054 78.72264099 173.87948608 C91.64638821 173.77029054 103.66719571 171.94391685 113.25779724 162.50057983 C127.25145055 145.89240107 124.5279246 120.91110698 124.56149483 100.60551572 C124.56980106 97.15382217 124.590726 93.70220691 124.61070251 90.25056458 C124.66334256 80.77818131 124.69729829 71.30575063 124.73046112 61.83328247 C124.76117183 53.09893027 124.79587655 44.36464781 124.84677172 35.63038677 C124.86627995 32.20218893 124.8815297 28.7740781 124.88711548 25.3458271 C124.89451391 21.54257864 124.91373348 17.73955989 124.93553162 13.93637085 C124.93405876 12.23395485 124.93405876 12.23395485 124.93255615 10.49714661 C124.94082932 9.46719574 124.94910248 8.43724487 124.95762634 7.37608337 C124.96055946 6.47821389 124.96349258 5.58034441 124.96651459 4.65526676 C125.22264099 2.50448608 125.22264099 2.50448608 127.22264099 0.50448608 C129.91223839 0.2924619 132.49627822 0.20050995 135.18748474 0.20370483 C135.97659744 0.19941971 136.76571014 0.19513458 137.57873535 0.1907196 C139.24900858 0.18497246 140.91930685 0.18447888 142.58958435 0.18881226 C145.14674071 0.19196954 147.70273739 0.16852857 150.25975037 0.14315796 C151.8814937 0.14088474 153.50324014 0.14018157 155.12498474 0.14120483 C155.89068283 0.13199509 156.65638092 0.12278534 157.44528198 0.11329651 C162.7316946 0.15940989 162.7316946 0.15940989 164.92509747 1.70110798 C166.68131716 4.14197265 166.59739589 5.73551724 166.59686279 8.73085022 C166.60387711 9.81410583 166.61089142 10.89736145 166.61811829 12.01344299 C166.61047455 13.20246719 166.60283081 14.39149139 166.59495544 15.61654663 C166.59860611 16.86900177 166.60225677 18.12145691 166.60601807 19.41186523 C166.61274709 22.85293184 166.60598562 26.29345994 166.59268594 29.73447394 C166.58135417 33.34781918 166.58548111 36.96115076 166.58743286 40.57450867 C166.58831676 46.65676487 166.57722769 52.73890985 166.55882263 58.82113647 C166.53777708 65.81516952 166.53411811 72.80903822 166.54038459 79.80309647 C166.54612348 86.55789364 166.54037189 93.3126339 166.52921104 100.06742287 C166.52461177 102.92623783 166.52367082 105.78501745 166.52579689 108.64383507 C166.54707344 156.80698059 166.54707344 156.80698059 153.22264099 177.50448608 C152.7340863 178.27018921 152.24553162 179.03589233 151.74217224 179.82479858 C140.49343802 195.76744906 121.19755943 204.14297658 102.59764099 207.69198608 C81.53879617 210.74758318 59.51658564 210.31942908 39.22264099 203.50448608 C38.31643005 203.20671265 37.41021912 202.90893921 36.47654724 202.60214233 C19.85744877 196.56119078 6.79206771 184.58769424 -0.74757385 168.66073608 C-7.51553422 153.46661027 -8.92281684 137.95233351 -8.93849182 121.49911499 C-8.94345673 120.23611572 -8.94842163 118.97311646 -8.95353699 117.67184448 C-8.96653249 114.23839373 -8.97307837 110.80496239 -8.97754765 107.37149096 C-8.98049424 105.22359367 -8.9846015 103.07570152 -8.98905182 100.92780685 C-9.00268156 94.19810408 -9.01237498 87.46841326 -9.01625371 80.73869765 C-9.02074888 72.9847522 -9.03838282 65.23098175 -9.0672543 57.47708952 C-9.08885229 51.46752965 -9.09895668 45.45801916 -9.10029483 39.44842088 C-9.10134253 35.86461962 -9.10724512 32.28098391 -9.12511444 28.69722366 C-9.14461966 24.70925426 -9.14031377 20.72150605 -9.13380432 16.73348999 C-9.1430191 15.54798553 -9.15223389 14.36248108 -9.16172791 13.14105225 C-9.15337418 11.51372162 -9.15337418 11.51372162 -9.14485168 9.85351562 C-9.14631824 8.91152628 -9.14778481 7.96953693 -9.14929581 6.99900246 C-8.28779189 1.22104329 -5.56652139 0.04796796 0 0 Z " fill="#86888B" transform="translate(1190.777359008789,255.49551391601563)"/>
<path d="M0 0 C0.84433594 -0.00006042 1.68867187 -0.00012085 2.55859375 -0.00018311 C14.45799944 0.01183932 26.31160682 0.30820247 38.1875 1.0625 C39.43571533 1.14089111 40.68393066 1.21928223 41.9699707 1.30004883 C66.84101553 3.04770764 66.84101553 3.04770764 71.6875 6.1875 C73.67775899 10.16801798 73.00381959 15.12297503 73.0625 19.5 C73.11857422 21.06911133 73.11857422 21.06911133 73.17578125 22.66992188 C73.18738281 23.68248047 73.19898438 24.69503906 73.2109375 25.73828125 C73.23075684 26.66294189 73.25057617 27.58760254 73.27099609 28.5402832 C72.41840949 32.40831524 70.77769546 33.74513231 67.6875 36.1875 C64.61529976 36.679894 62.09696616 36.86984521 59.02929688 36.83105469 C58.16853043 36.8399321 57.30776398 36.84880951 56.4209137 36.85795593 C53.58229834 36.88161093 50.74492416 36.87045194 47.90625 36.859375 C45.92995869 36.86995592 43.95367861 36.8828679 41.97741699 36.89801025 C36.77771909 36.93222833 31.57839624 36.93759254 26.37860107 36.93609619 C19.05152237 36.93931947 11.72454906 36.98205206 4.39758301 37.01983643 C0.49673552 37.03981874 -3.40391307 37.04918387 -7.30480957 37.04998779 C-9.08797206 37.0538094 -10.87113449 37.05765342 -12.65429688 37.06152344 C-13.460681 37.05942368 -14.26706512 37.05732391 -15.09788513 37.05516052 C-18.96050299 37.0683868 -22.55808655 37.24427586 -26.3125 38.1875 C-28.21011193 43.83039865 -28.64695732 48.90835524 -28.7265625 54.83984375 C-28.74592865 55.73997696 -28.7652948 56.64011017 -28.7852478 57.56752014 C-28.84464471 60.41991945 -28.89126831 63.27236001 -28.9375 66.125 C-28.97571655 68.06837619 -29.01477038 70.01173612 -29.0546875 71.95507812 C-29.15031312 76.69908533 -29.23449019 81.44317175 -29.3125 86.1875 C-28.14374329 86.18083817 -26.97498657 86.17417633 -25.77081299 86.16731262 C-14.76441202 86.10653693 -3.75804504 86.06154435 7.24848557 86.03206348 C12.90726456 86.01639764 18.56590825 85.99514241 24.22460938 85.96118164 C29.68404727 85.92862124 35.1433549 85.91065391 40.60288239 85.90286827 C42.68733013 85.89731881 44.77177063 85.88648227 46.85616302 85.87030983 C49.77243033 85.84857986 52.68815714 85.84553124 55.60449219 85.84692383 C56.46908051 85.836138 57.33366882 85.82535217 58.22445679 85.8142395 C61.75662047 85.83252941 64.06839101 85.85857019 67.224823 87.53556824 C69.43249229 90.02888633 69.17303235 92.00000732 69.1484375 95.28125 C69.14457031 96.47621094 69.14070313 97.67117188 69.13671875 98.90234375 C69.11222656 100.15144531 69.08773438 101.40054688 69.0625 102.6875 C69.06056641 104.56115234 69.06056641 104.56115234 69.05859375 106.47265625 C68.96836515 115.76620228 68.96836515 115.76620228 66.6875 119.1875 C62.72441946 120.50852685 58.94044975 120.3183172 54.80981445 120.30102539 C53.90229431 120.30117142 52.99477417 120.30131744 52.05975342 120.3014679 C49.05673848 120.30077061 46.05378537 120.29298676 43.05078125 120.28515625 C40.96998631 120.28329142 38.88919092 120.28186782 36.80839539 120.28086853 C31.3289977 120.27704849 25.84962648 120.26722255 20.37023926 120.25616455 C14.78003294 120.24593943 9.18982235 120.24136855 3.59960938 120.23632812 C-7.37110538 120.22559985 -18.34180049 120.20852955 -29.3125 120.1875 C-29.21738957 126.78968996 -29.11275734 133.39157812 -28.99511719 139.9934082 C-28.95685921 142.23879513 -28.92200079 144.48424269 -28.890625 146.72973633 C-28.84490583 149.95936737 -28.78692193 153.18858222 -28.7265625 156.41796875 C-28.71501129 157.42022995 -28.70346008 158.42249115 -28.69155884 159.4551239 C-28.67168915 160.39572159 -28.65181946 161.33631927 -28.63134766 162.30541992 C-28.61802399 163.12926682 -28.60470032 163.95311371 -28.5909729 164.80192566 C-28.13797861 168.68256019 -27.07935069 171.42064931 -24.3125 174.1875 C-20.2001719 175.53216626 -16.01792612 175.33972602 -11.73608398 175.34521484 C-10.44033447 175.35283592 -10.44033447 175.35283592 -9.1184082 175.36061096 C-7.24522854 175.37129977 -5.37203623 175.37992577 -3.49883842 175.38673019 C-0.53619087 175.3985267 2.42631142 175.41797932 5.38890076 175.43984985 C13.81122028 175.50145693 22.23352288 175.55559643 30.65600586 175.58886719 C35.80895222 175.60977052 40.96163032 175.64503267 46.11442375 175.68962479 C48.07962839 175.70381316 50.04488044 175.7125136 52.01013374 175.71567917 C54.75386944 175.72056857 57.49688775 175.743673 60.24047852 175.77099609 C61.4631971 175.76648689 61.4631971 175.76648689 62.71061707 175.7618866 C68.2048548 175.84345413 68.2048548 175.84345413 70.65293884 177.58853149 C72.60888491 180.61154868 72.81578289 182.50724227 72.8203125 186.08984375 C72.82160156 187.06244141 72.82289063 188.03503906 72.82421875 189.03710938 C72.82035156 190.05611328 72.81648438 191.07511719 72.8125 192.125 C72.81636719 193.14013672 72.82023437 194.15527344 72.82421875 195.20117188 C72.82228516 196.66200195 72.82228516 196.66200195 72.8203125 198.15234375 C72.81918457 199.0455835 72.81805664 199.93882324 72.81689453 200.85913086 C72.6875 203.1875 72.6875 203.1875 71.6875 206.1875 C46.07394981 219.29269632 -17.94620064 216.49563079 -44.3125 208.1875 C-50.35599292 205.85689768 -55.06815787 203.18084368 -59.3125 198.1875 C-59.993125 197.445 -60.67375 196.7025 -61.375 195.9375 C-72.65550907 179.92645488 -70.76002294 158.6569755 -70.7109375 140.0625 C-70.71160882 137.34358394 -70.71587487 134.62467501 -70.71963501 131.90576172 C-70.72505919 126.23074895 -70.71798961 120.55585414 -70.70361328 114.88085938 C-70.68729318 108.36422455 -70.69258408 101.84787153 -70.7090925 95.33124352 C-70.72280355 89.68823053 -70.72458055 84.04530129 -70.71677649 78.40227699 C-70.71215223 75.05291925 -70.71254435 71.70379698 -70.72138596 68.35443115 C-70.80725068 26.69591616 -70.80725068 26.69591616 -58.58203125 12.125 C-56.90215606 10.5873568 -55.25143935 9.37711126 -53.3125 8.1875 C-52.74273438 7.81496094 -52.17296875 7.44242187 -51.5859375 7.05859375 C-36.70397381 -1.52228318 -16.60192114 -0.01830735 0 0 Z " fill="#86888B" transform="translate(1652.3125,252.8125)"/>
<path d="M0 0 C0.81816193 -0.00006042 1.63632385 -0.00012085 2.47927856 -0.00018311 C14.19672255 0.01201562 25.86823997 0.32191441 37.5625 1.0625 C38.81466309 1.14089111 40.06682617 1.21928223 41.35693359 1.30004883 C66.27104017 3.04333429 66.27104017 3.04333429 71.125 6.1875 C73.17717837 10.29185673 72.30989112 15.61425128 72.3125 20.125 C72.32474609 21.23552734 72.33699219 22.34605469 72.34960938 23.49023438 C72.35154297 24.55435547 72.35347656 25.61847656 72.35546875 26.71484375 C72.35957764 27.69187256 72.36368652 28.66890137 72.36791992 29.67553711 C72.125 32.1875 72.125 32.1875 70.125 35.1875 C66.29541737 36.46402754 62.68477627 36.34010178 58.69384766 36.34521484 C57.83337326 36.35029556 56.97289886 36.35537628 56.08634949 36.36061096 C54.21697636 36.37131366 52.34759042 36.37993424 50.47819901 36.38673019 C47.5192825 36.39851629 44.56051213 36.41796813 41.60165405 36.43984985 C33.18858702 36.50147807 24.77553515 36.55552673 16.36230469 36.58886719 C11.2169865 36.60980717 6.07193507 36.64510444 0.92676926 36.68962479 C-1.03399135 36.7037896 -2.99479916 36.71250831 -4.95560837 36.71567917 C-7.69904262 36.7205855 -10.44176824 36.74373602 -13.18505859 36.77099609 C-13.99458481 36.76798996 -14.80411102 36.76498383 -15.63816833 36.7618866 C-20.18875578 36.82906756 -23.41050642 37.11059661 -26.875 40.1875 C-29.3028984 45.10134522 -29.21556053 50.15305186 -29.2890625 55.5234375 C-29.30842865 56.40278961 -29.3277948 57.28214172 -29.3477478 58.18814087 C-29.40722815 60.97949718 -29.4538021 63.77089543 -29.5 66.5625 C-29.53820885 68.46225694 -29.57726226 70.3619971 -29.6171875 72.26171875 C-29.71290357 76.9035085 -29.7970504 81.54537929 -29.875 86.1875 C-28.0997419 86.17750725 -28.0997419 86.17750725 -26.28862 86.16731262 C-15.14946174 86.10656666 -4.01033698 86.0615587 7.12894917 86.03206348 C12.8561371 86.01639007 18.5831916 85.99512113 24.31030273 85.96118164 C29.83457442 85.9286481 35.35871755 85.91065962 40.88307762 85.90286827 C42.9934714 85.89731396 45.10385793 85.88646813 47.21419716 85.87030983 C50.1641945 85.8486155 53.11365677 85.84552973 56.0637207 85.84692383 C56.94125504 85.836138 57.81878937 85.82535217 58.72291565 85.8142395 C64.68591464 85.84484601 64.68591464 85.84484601 66.84671307 87.53109264 C69.92486531 91.5197699 68.63456606 98.37577025 68.625 103.1875 C68.65335938 104.48429687 68.68171875 105.78109375 68.7109375 107.1171875 C68.71351563 108.35726562 68.71609375 109.59734375 68.71875 110.875 C68.72583984 112.01324219 68.73292969 113.15148437 68.74023438 114.32421875 C68.125 117.1875 68.125 117.1875 66.15559387 118.84516907 C62.02349674 120.6753852 58.49007978 120.58468523 54.02026367 120.52807617 C53.11245148 120.52851425 52.20463928 120.52895233 51.26931763 120.52940369 C48.27698046 120.52731829 45.28520771 120.50399879 42.29296875 120.48046875 C40.21503506 120.47487192 38.1370974 120.47060223 36.05915833 120.46760559 C30.59613065 120.45616375 25.13334311 120.42670206 19.67041016 120.39349365 C14.09345752 120.36277865 8.516466 120.34909718 2.93945312 120.33398438 C-7.99880329 120.30183189 -18.93688166 120.25064335 -29.875 120.1875 C-29.80780279 126.6108039 -29.71791935 133.03350856 -29.61254883 139.45629883 C-29.57937448 141.6394945 -29.5513194 143.82277439 -29.52856445 146.00610352 C-29.49488096 149.15156817 -29.44255724 152.29626624 -29.38671875 155.44140625 C-29.38032883 156.4114711 -29.3739389 157.38153595 -29.36735535 158.3809967 C-29.24617986 164.01564131 -28.8171588 168.30730049 -25.875 173.1875 C-21.76665299 175.90972295 -16.97729614 175.4672508 -12.20092773 175.44287109 C-11.33855499 175.44649155 -10.47618225 175.450112 -9.587677 175.45384216 C-7.72051995 175.46072094 -5.85334286 175.46324445 -3.98617363 175.46189499 C-1.03150218 175.46092864 1.92280663 175.47388355 4.87742615 175.49087524 C13.27592193 175.53712462 21.67437926 175.5617673 30.07299805 175.56835938 C35.2141637 175.57336745 40.35494832 175.59757706 45.49598503 175.63368607 C47.45478976 175.64349627 49.41364681 175.64580938 51.37246895 175.64051437 C54.10883629 175.63346203 56.84406281 175.6506863 59.58032227 175.67333984 C60.39030167 175.66516739 61.20028107 175.65699493 62.0348053 175.64857483 C65.62637398 175.70156146 67.70972358 175.87748974 70.62867737 178.05653381 C72.53976586 180.77818279 72.61409757 182.41440073 72.5859375 185.72265625 C72.58207031 186.77904297 72.57820313 187.83542969 72.57421875 188.92382812 C72.54972656 190.02146484 72.52523438 191.11910156 72.5 192.25 C72.49806641 193.90225586 72.49806641 193.90225586 72.49609375 195.58789062 C72.40617236 203.76574146 72.40617236 203.76574146 70.125 207.1875 C68.25244141 207.78759766 68.25244141 207.78759766 65.9765625 208.1015625 C65.13480469 208.22273437 64.29304688 208.34390625 63.42578125 208.46875 C62.10126953 208.63890625 62.10126953 208.63890625 60.75 208.8125 C59.90566406 208.93367187 59.06132813 209.05484375 58.19140625 209.1796875 C45.39480788 210.95538441 32.586461 211.48443322 19.6875 211.8125 C18.40999878 211.84518982 18.40999878 211.84518982 17.10668945 211.87854004 C-43.99439941 213.37166542 -43.99439941 213.37166542 -58.6875 200 C-70.12706146 187.51069055 -71.02720145 169.61548572 -71.02026367 153.5559082 C-71.02362228 152.42616074 -71.0269809 151.29641327 -71.03044128 150.13243103 C-71.03989761 146.41770308 -71.0418918 142.70302047 -71.04296875 138.98828125 C-71.04618532 136.38909385 -71.04954969 133.78990663 -71.05305481 131.1907196 C-71.059033 125.74799096 -71.06093912 120.3052801 -71.06030273 114.86254883 C-71.05970315 108.60567336 -71.07023771 102.34888443 -71.0860464 96.09203082 C-71.10079362 90.03561641 -71.10428818 83.97924292 -71.10369301 77.92281151 C-71.1048666 75.36378819 -71.10925315 72.80476412 -71.11702538 70.24575233 C-71.2388052 26.00425792 -71.2388052 26.00425792 -58.875 12.1875 C-42.73700896 -1.46542006 -19.90595636 -0.02273033 0 0 Z " fill="#86888B" transform="translate(1067.875,252.8125)"/>
<path d="M0 0 C1.10980225 0.08507812 2.21960449 0.17015625 3.36303711 0.2578125 C14.58286438 1.20123097 25.5932503 3.03273834 36.625 5.25 C37.46401855 5.40339844 38.30303711 5.55679687 39.16748047 5.71484375 C40.36655029 5.94880859 40.36655029 5.94880859 41.58984375 6.1875 C42.64933228 6.38666016 42.64933228 6.38666016 43.73022461 6.58984375 C46.15472605 7.43456117 47.15258851 8.12881073 48.625 10.25 C48.99731445 13.12915039 48.99731445 13.12915039 48.98828125 16.59765625 C48.98731445 18.46454102 48.98731445 18.46454102 48.98632812 20.36914062 C48.97021484 21.67044922 48.95410156 22.97175781 48.9375 24.3125 C48.94072266 25.61767578 48.94394531 26.92285156 48.94726562 28.26757812 C48.89186327 37.98313673 48.89186327 37.98313673 46.625 40.25 C40.90598358 40.94128558 34.95866456 40.07494766 29.26953125 39.375 C27.67566041 39.19106704 26.08166044 39.00825047 24.48754883 38.82641602 C23.66332428 38.73159943 22.83909973 38.63678284 21.98989868 38.53909302 C8.64039254 37.02708432 -4.62160415 35.84685153 -18.0625 35.8125 C-19.24030029 35.80283203 -20.41810059 35.79316406 -21.6315918 35.78320312 C-32.3162237 35.8881587 -44.44850389 37.44905951 -52.9375 44.55859375 C-55.98823155 47.75666176 -57.29471006 50.85766884 -57.56640625 55.171875 C-57.08365534 60.41317054 -54.33794674 64.63476238 -50.625 68.25 C-40.22276961 76.2144317 -26.96168289 80.8065328 -14.80883789 85.37985229 C-10.85680941 86.8692806 -6.91691518 88.3901619 -2.9765625 89.91015625 C-1.83595367 90.34957298 -1.83595367 90.34957298 -0.67230225 90.79786682 C41.45487257 107.08053423 41.45487257 107.08053423 51.50390625 128.1328125 C56.86618338 143.04255867 56.54608912 161.17437049 50.11328125 175.65234375 C41.68342523 192.19001634 28.92551721 201.29106919 11.625 207.25 C2.85849162 209.79767923 -6.27560366 210.86737098 -15.375 211.25 C-16.34566406 211.29125 -17.31632812 211.3325 -18.31640625 211.375 C-36.15985856 211.7253009 -53.98327656 209.69961254 -71.5625 206.8125 C-73.46805664 206.50469604 -73.46805664 206.50469604 -75.41210938 206.19067383 C-81.43048755 205.15591099 -86.97741492 204.1792249 -92.375 201.25 C-94.54646805 196.9070639 -93.60466856 191.0827644 -93.625 186.3125 C-93.645625 185.10658203 -93.66625 183.90066406 -93.6875 182.65820312 C-93.69523437 180.92666992 -93.69523437 180.92666992 -93.703125 179.16015625 C-93.7124707 178.09933838 -93.72181641 177.03852051 -93.73144531 175.94555664 C-93.375 173.25 -93.375 173.25 -92.30737305 171.3671875 C-89.23082678 169.58850453 -86.62252317 170.16309016 -83.12890625 170.46484375 C-82.41746964 170.52236313 -81.70603302 170.57988251 -80.97303772 170.6391449 C-78.77140827 170.8232876 -76.57352678 171.03210336 -74.375 171.25 C-73.11800293 171.37391113 -71.86100586 171.49782227 -70.56591797 171.62548828 C-68.09753676 171.88045235 -65.62968292 172.14056837 -63.16235352 172.40551758 C-50.5757368 173.73609593 -38.0974439 174.55310906 -25.4375 174.5625 C-23.52022095 174.57035522 -23.52022095 174.57035522 -21.56420898 174.57836914 C-11.42724843 174.50183566 -2.43738262 173.9078499 5.625 167.25 C10.84597746 160.69031038 11.41757419 154.44381845 10.625 146.25 C8.59224296 139.1216155 2.03159854 134.75920985 -4.11230469 131.26074219 C-15.60296424 125.03489392 -27.65499203 120.23245325 -39.98046875 115.9375 C-83.51783166 100.75667036 -83.51783166 100.75667036 -94.5546875 80.03515625 C-100.71790275 67.23636254 -101.35079351 51.5683907 -97.4140625 37.9921875 C-95.64466889 33.32258482 -93.2676362 29.30657791 -90.375 25.25 C-89.89546875 24.56292969 -89.4159375 23.87585938 -88.921875 23.16796875 C-78.08136417 9.28882988 -59.17276675 2.85574677 -42.29296875 0.55078125 C-28.14011859 -0.90808014 -14.18608829 -1.0892948 0 0 Z " fill="#86888B" transform="translate(2072.375,253.75)"/>
<path d="M0 0 C0.66521119 -0.00382555 1.33042237 -0.00765109 2.01579148 -0.01159257 C4.25524095 -0.02194995 6.49443534 -0.01792534 8.73390198 -0.01396179 C10.33522276 -0.01830677 11.93654147 -0.0234892 13.53785706 -0.02944946 C17.89526241 -0.04287399 22.25258122 -0.0434143 26.61000323 -0.04088616 C30.24337786 -0.03981876 33.87673481 -0.0446939 37.51010567 -0.04949158 C46.07967223 -0.06059877 54.64919497 -0.06101742 63.21876526 -0.05497742 C72.06882938 -0.04893577 80.91873459 -0.06125069 89.76877159 -0.08254749 C97.35861523 -0.10014233 104.94840819 -0.10616819 112.53827149 -0.10290974 C117.07508254 -0.10109331 121.61178026 -0.10376871 126.14857292 -0.11762428 C130.41426487 -0.13016364 134.67970847 -0.12829568 138.94539642 -0.11521339 C140.51315709 -0.11283951 142.08093503 -0.11561121 143.64867592 -0.12383652 C145.78479294 -0.13423777 147.92006639 -0.1262579 150.05615234 -0.11352539 C151.25280738 -0.11369313 152.44946241 -0.11386087 153.68237972 -0.1140337 C156.59156799 0.26069641 156.59156799 0.26069641 158.47577 1.6051302 C160.22116761 4.19486538 159.98083027 6.48682489 159.99000549 9.57319641 C159.99387268 10.81327454 159.99773987 12.05335266 160.00172424 13.33100891 C159.9843219 15.27620422 159.9843219 15.27620422 159.96656799 17.26069641 C159.97816956 18.55749329 159.98977112 19.85429016 160.00172424 21.19038391 C159.99785706 22.43046204 159.99398987 23.67054016 159.99000549 24.94819641 C159.9866217 26.0864386 159.98323792 27.22468079 159.97975159 28.39741516 C159.59156799 31.26069641 159.59156799 31.26069641 158.43856812 32.91836548 C155.80478852 34.83249844 153.88761129 34.62129049 150.65138245 34.60127258 C149.43034317 34.60104599 148.20930389 34.6008194 146.95126343 34.60058594 C144.97303841 34.57736015 144.97303841 34.57736015 142.95484924 34.55366516 C141.59150662 34.54806884 140.22815795 34.54379891 138.86480713 34.540802 C135.27913207 34.5293559 131.69382245 34.49989127 128.10829163 34.46669006 C124.44847049 34.43598381 120.78859023 34.42229551 117.12867737 34.40718079 C109.94947444 34.3750209 102.77057245 34.32382794 95.59156799 34.26069641 C95.59433337 35.12891179 95.59709875 35.99712717 95.59994793 36.89165211 C95.66614313 57.99769715 95.71581705 79.10372434 95.74700451 100.20985126 C95.76248663 110.41653478 95.78360179 120.6231491 95.81788635 130.82978821 C95.8477476 139.7238131 95.86713321 148.61778788 95.87383348 157.5118615 C95.8777513 162.22310251 95.88698653 166.93420014 95.90875816 171.64539528 C95.92907164 176.07682691 95.93541225 180.50805566 95.93089104 184.93952942 C95.93171855 186.56857594 95.93771478 188.19762901 95.94918442 189.82663536 C95.96404855 192.04602178 95.96054444 194.26463607 95.95233154 196.48403931 C95.95509692 197.72753804 95.9578623 198.97103678 95.96071148 200.25221729 C95.59156799 203.26069641 95.59156799 203.26069641 94.28813648 205.15898418 C91.38361174 207.04511519 88.10100209 206.70758016 84.74781799 206.69429016 C83.98231628 206.69953201 83.21681458 206.70477386 82.42811584 206.71017456 C80.81089999 206.71659323 79.19363743 206.71525971 77.57643127 206.70674133 C75.10016452 206.69822597 72.6262008 206.7269992 70.15016174 206.75874329 C68.57854785 206.76035527 67.00692987 206.75977782 65.43531799 206.75679016 C64.69463074 206.76802414 63.95394348 206.77925812 63.19081116 206.79083252 C58.07928456 206.7214205 58.07928456 206.7214205 55.8949995 204.65802383 C54.14384511 201.43722518 54.22260515 199.06410025 54.23080444 195.40174866 C54.22824117 194.71229416 54.22567789 194.02283967 54.22303694 193.31249261 C54.21809675 191.00299687 54.23459517 188.69415533 54.25099182 186.38471985 C54.25183805 184.72897863 54.25136304 183.07323629 54.24966431 181.41749573 C54.24880275 176.92190975 54.26645452 172.42656338 54.28738618 167.93103313 C54.30612617 163.23317361 54.30790131 158.53530874 54.3114624 153.8374176 C54.32079074 144.94100679 54.34541521 136.04470643 54.37551087 127.14834428 C54.40903032 117.02028566 54.42553472 106.8922218 54.44059718 96.76412153 C54.47196406 75.92958482 54.52473991 55.09514757 54.59156799 34.26069641 C53.47403389 34.26735825 53.47403389 34.26735825 52.33392334 34.27415466 C45.31526937 34.31421673 38.29665496 34.34467333 31.27791882 34.36432076 C27.66944695 34.37476123 24.0610695 34.38892514 20.45265198 34.41157532 C16.97079858 34.43329445 13.48903604 34.44526305 10.00712013 34.4504509 C8.03118516 34.45594868 6.05528678 34.47156309 4.07940674 34.48728943 C2.87838821 34.48744049 1.67736969 34.48759155 0.43995667 34.48774719 C-0.61927505 34.49218842 -1.67850677 34.49662964 -2.76983643 34.50120544 C-5.40843201 34.26069641 -5.40843201 34.26069641 -8.40843201 32.26069641 C-8.78074646 29.31147766 -8.78074646 29.31147766 -8.77171326 25.57319641 C-8.77221176 24.91488831 -8.77271027 24.2565802 -8.77322388 23.57832336 C-8.77088305 22.1862842 -8.76115381 20.79424084 -8.74461365 19.40229797 C-8.72102135 17.26877591 -8.72405161 15.13650322 -8.73069763 13.00288391 C-8.67710696 0.01489033 -8.67710696 0.01489033 0 0 Z " fill="#85888A" transform="translate(1393.408432006836,255.7393035888672)"/>
<path d="M0 0 C5.46122076 4.73305799 9.19551477 11.23864088 10.05078125 18.4453125 C10.31360089 25.94258869 7.94869156 31.87718074 4.125 38.25 C-2.07427633 44.11418031 -9.23915801 46.84989049 -17.6875 46.7109375 C-25.05722715 45.90487359 -30.84524851 42.67408518 -35.78515625 37.234375 C-40.52218351 31.16464648 -41.69070905 24.98563581 -41.1875 17.4375 C-39.65789089 9.64912335 -35.7502268 3.79644356 -29.3515625 -0.9140625 C-19.49219286 -6.89857071 -9.79268088 -4.80033376 0 0 Z " fill="#F3711F" transform="translate(630.1875,336.5625)"/>
<path d="M0 0 C5.64273423 4.66731735 10.03412436 9.93889982 10.7890625 17.48828125 C11.34305398 24.69017054 9.35027884 30.30339991 6.2265625 36.67578125 C1.49350451 42.13700201 -5.01207838 45.87129602 -12.21875 46.7265625 C-19.74140037 46.99027165 -26.12226482 44.95921939 -32.0234375 40.23828125 C-37.904417 32.84504988 -40.85462068 27.14352902 -40.2109375 17.48828125 C-38.68132839 9.6999046 -34.7736643 3.84722481 -28.375 -0.86328125 C-19.43439022 -6.29011426 -8.61683096 -5.89172011 0 0 Z " fill="#F37120" transform="translate(186.2109375,336.51171875)"/>
<path d="M0 0 C4.71911687 3.66726552 8.76322847 8.00220532 10 14 C10.85106363 21.38225979 10.73476602 27.69470586 6.6328125 34.05859375 C3.1591886 38.18871595 -0.87572317 41.29190772 -6 43 C-13.90801051 43.61294618 -21.53118018 44.14496833 -28 39 C-32.61535391 34.63300594 -35.62518678 30.40382703 -36.3359375 23.94921875 C-36.43443951 15.72430089 -35.86703604 10.14677907 -30.1640625 4.03125 C-21.80629065 -3.7821459 -10.22528995 -6.00364534 0 0 Z " fill="#F47A1F" transform="translate(192,280)"/>
<path d="M0 0 C4.71311432 3.66260089 8.77680574 8.00416385 10 14 C10.78451624 21.65883984 10.88954124 28.72365905 6 35 C1.55580859 39.7074729 -2.69574347 42.66049455 -9.26953125 43.3359375 C-22.63009945 43.48324255 -22.63009945 43.48324255 -28 39 C-34.27252524 32.26336415 -36.50705628 26.1740514 -36.3046875 17 C-35.6414607 10.46976689 -32.85247212 6.53549602 -28.125 2.125 C-20.11651613 -4.33772871 -9.02010846 -5.29603878 0 0 Z " fill="#F47A1F" transform="translate(620,280)"/>
<path d="M0 0 C5.61924131 1.89935085 9.80304278 4.95864438 13 10 C13.5775 10.825 14.155 11.65 14.75 12.5 C17.32055019 19.69754054 17.1331782 27.41425333 14.0625 34.4375 C10.68162606 40.38551317 5.40932839 43.8635572 -1 46 C-8.40719213 46.6693907 -14.94279794 46.67642052 -21 42 C-25.85483591 37.39511604 -29.457716 33.03573464 -30.37109375 26.23828125 C-30.53935564 18.82486011 -29.62715748 12.97497629 -25 7 C-17.03197661 0.25465606 -10.35538724 -0.99206616 0 0 Z " fill="#F47A1F" transform="translate(614,392)"/>
<path d="M0 0 C6.79585406 3.73924804 10.60951454 8.63323112 13.04296875 15.93359375 C13.92425141 24.20506097 13.2386407 31.2090804 8.04296875 37.93359375 C1.42635913 43.62318276 -4.24873288 45.29822707 -12.87890625 45.21484375 C-18.64112707 44.68834642 -22.31380124 42.27805466 -26.70703125 38.68359375 C-31.83940058 32.41069791 -33.70070837 27.17037683 -33.41015625 18.97265625 C-32.49246802 12.81781624 -29.90056878 7.87713128 -25.51953125 3.49609375 C-17.36087769 -1.47869501 -9.31427469 -3.3590449 0 0 Z " fill="#F47A1F" transform="translate(188.95703125,393.06640625)"/>
<path d="M0 0 C4.67680051 2.76135415 7.52308119 6.19717012 9.875 11.125 C11.3407655 18.05407328 11.48716121 24.28345358 7.89453125 30.5546875 C4.22084966 35.57502657 -0.26727222 39.14095444 -6.4375 40.375 C-13.73006957 41.40271733 -19.41939157 39.58662562 -25.4375 35.375 C-30.9267325 29.63454404 -31.79809033 24.11181055 -31.71484375 16.453125 C-31.18534013 10.57638056 -28.87893493 6.40370168 -24.5 2.5 C-17.27602741 -2.51255241 -8.17456226 -3.72983829 0 0 Z " fill="#F5851D" transform="translate(595.4375,227.625)"/>
<path d="M0 0 C4.7251363 4.28882706 8.60955326 8.77739079 9.2109375 15.28125 C9.48791741 22.35489089 8.12586889 26.73527277 4.25 32.6875 C-0.88835236 37.96858437 -4.64305347 39.2816443 -11.9375 39.5625 C-19.85379278 39.32694612 -24.02623828 37.1302755 -29.375 31.5 C-33.42484076 25.26947576 -33.91794207 19.28675666 -33 12 C-30.48313743 5.41078898 -25.49098138 0.59370889 -19.125 -2.3125 C-12.3571005 -3.80143789 -6.02278858 -3.6305033 0 0 Z " fill="#F5851D" transform="translate(597,450)"/>
<path d="M0 0 C5.34027885 3.14199359 8.61363425 7.4854762 10.5625 13.375 C11.23157017 19.83109266 11.42846028 25.90933201 7.5625 31.375 C3.51679067 36.22985119 -1.34833144 39.73159935 -7.671875 40.7265625 C-13.98068276 40.9658621 -19.66318158 39.89810061 -24.421875 35.5703125 C-29.7687151 29.71530165 -32.00314617 25.05362102 -31.8125 17.0703125 C-31.04216426 11.53352437 -28.71672352 6.54948896 -24.65234375 2.671875 C-17.60578459 -2.53449992 -8.08312199 -3.71761908 0 0 Z " fill="#F5851D" transform="translate(211.4375,227.625)"/>
<path d="M0 0 C4.74082369 4.10871387 8.65615863 8.19519795 9.23828125 14.63671875 C9.40107681 21.32847303 9.12756486 26.54300474 5 32 C1.31354382 35.85402237 -2.59756065 38.72670663 -7.953125 39.3359375 C-15.76613279 39.42850868 -21.60909743 39.00810593 -27.5234375 33.609375 C-32.21595665 28.45574125 -33.45397303 23.06278567 -33.23828125 16.296875 C-32.60617322 10.20376805 -30.70336875 6.30412137 -26.1875 2.125 C-18.2225914 -4.24402527 -8.9185751 -4.82292044 0 0 Z " fill="#F5851D" transform="translate(213,450)"/>
<path d="M0 0 C4.98780867 4.21192732 7.91651558 8.21789574 8.9375 14.6875 C9.3331544 20.45889359 8.10398208 25.1127003 5 30 C0.20940911 34.82977772 -4.01550243 36.8010335 -10.75 37.25 C-16.08103072 37.14100123 -20.72380982 36.03950669 -24.765625 32.41796875 C-29.78709892 26.82365678 -31.49147695 22.07953189 -31.3125 14.5625 C-30.64206182 9.06490692 -28.21518975 4.81693443 -24.125 1.125 C-16.3333774 -4.17330337 -8.25759293 -4.36348595 0 0 Z " fill="#F3711F" transform="translate(563,272)"/>
<path d="M0 0 C5.42710012 5.63104125 7.37928456 10.59703261 7.27734375 18.3671875 C6.69075989 23.93560332 4.22488208 28.18586032 0.0625 31.875 C-5.58563078 35.79411116 -10.19780173 36.85165734 -17 36 C-22.47769638 34.65539249 -26.12676415 32.42363545 -29.5 27.875 C-32.74637644 22.36791573 -33.65747056 17.13907602 -32.65625 10.8359375 C-30.9326803 4.96219339 -26.93649864 1.40090841 -22 -2 C-14.35488524 -5.58852325 -6.94569589 -4.55062834 0 0 Z " fill="#F37120" transform="translate(247,410)"/>
<path d="M0 0 C5.12039955 2.76657753 7.99235321 6.26064889 10.10546875 11.59375 C11.16323201 17.26720746 10.74807576 21.85660531 8.10546875 27.03125 C5.01074799 31.38058729 1.83227595 33.60148093 -3.20703125 35.28125 C-10.09210517 36.01549739 -14.61160941 35.42186216 -20.20703125 31.28125 C-24.40332708 26.85812736 -26.28582916 22.90984346 -26.51953125 16.84375 C-26.36837314 11.77155555 -25.21850413 8.26478575 -21.51953125 4.6171875 C-15.14418506 -0.98780436 -8.45871796 -2.75469753 0 0 Z " fill="#F47A1E" transform="translate(265.20703125,447.71875)"/>
<path d="M0 0 C4.66270701 3.21151459 7.1936814 6.24876619 8.68359375 11.8359375 C9.60264566 18.217082 8.95070359 22.84703303 5.18359375 28.14453125 C1.18524521 32.65308572 -3.13514474 34.69052007 -9.06640625 35.0859375 C-14.15813415 34.9833569 -18.30805387 33.79001008 -22.05078125 30.1484375 C-26.91887294 24.58490413 -27.61607823 21.2434824 -27.52734375 13.81640625 C-27.14447625 8.40663021 -25.31168772 5.8091016 -21.50390625 2.0859375 C-14.82523215 -2.62842069 -7.49084041 -3.76436837 0 0 Z " fill="#F47A1F" transform="translate(231.31640625,366.1640625)"/>
<path d="M0 0 C3.97221595 3.40475653 7.41139387 6.71474031 7.86328125 12.078125 C8.11147181 23.5210162 8.11147181 23.5210162 3.625 28.25 C-0.53578278 32.09072257 -4.03226531 34.02898729 -9.6875 34.5625 C-15.47515269 34.07202096 -20.31593073 32.86446728 -24.25 28.375 C-28.10712146 22.70276256 -29.27316216 18.06011562 -28.375 11.25 C-26.71747688 5.70176394 -23.92112579 2.35478888 -19.15625 -0.83984375 C-13.03560747 -3.96727733 -5.94374727 -3.08194303 0 0 Z " fill="#F47A1F" transform="translate(574.375,316.75)"/>
<path d="M0 0 C4.24149069 2.39479792 6.58390385 5.32602694 8.9375 9.5625 C10.6721854 15.92301314 10.35919835 21.73144058 7.078125 27.51953125 C3.72276406 31.84568482 -0.91152598 34.30021451 -6.25 35.3125 C-10.97051242 35.60927092 -15.17090063 34.58197419 -19.3125 32.3125 C-22.94853611 29.01876855 -26.09068388 25.54967401 -26.5859375 20.5546875 C-26.777799 14.19374077 -26.85051354 9.12213597 -22.921875 3.90234375 C-16.5324552 -2.40953455 -8.12035459 -3.69107027 0 0 Z " fill="#F47A1F" transform="translate(537.3125,233.6875)"/>
<path d="M0 0 C3.9933322 2.35902402 6.99485285 4.61941748 8.671875 9.05859375 C10.05425822 15.4480343 10.20495776 20.31733426 6.671875 26.05859375 C3.13406519 29.74659359 -0.10389934 32.73924187 -5.37890625 33.26171875 C-10.47704133 33.36737958 -13.98495883 33.01984341 -18.328125 30.05859375 C-22.67085181 25.64525349 -24.49446628 22.49341537 -24.640625 16.30859375 C-24.59008919 11.02760166 -24.02221363 8.05220308 -20.328125 4.05859375 C-14.54761375 -1.15796518 -7.45515897 -3.0145861 0 0 Z " fill="#F68E1C" transform="translate(557.328125,184.94140625)"/>
<path d="M0 0 C4.54648344 2.44163 7.38678368 4.88098629 9.75 9.5 C10.87486427 15.46178063 10.38810776 20.70835311 7.75 26.1875 C4.10351931 30.21782077 1.03823729 32.43314353 -4.3125 33.1953125 C-10.2512408 33.43738074 -14.05848095 32.93350499 -18.625 28.8125 C-23.45503032 23.32976288 -23.97996513 20.00703879 -23.90234375 12.796875 C-23.52833603 8.77234118 -22.39891295 6.73240837 -19.625 3.8125 C-13.16705728 -1.06390572 -7.87176649 -2.57868212 0 0 Z " fill="#F68E1C" transform="translate(556.625,498.1875)"/>
<path d="M0 0 C3.77702297 2.63513231 6.60374735 5.7074947 8.6875 9.875 C9.1947965 15.43031248 9.45010422 20.29330236 7 25.375 C3.35626812 29.3141696 0.18247201 32.52883134 -5.36328125 33.078125 C-11.98591646 33.21538169 -15.85145493 31.88858233 -21.0625 27.625 C-24.7129765 23.1633065 -25.56755323 18.96579173 -25.1875 13.3125 C-24.30570088 7.42047863 -21.93195266 4.10578402 -17.1875 0.5 C-11.65845302 -2.34181124 -5.75561772 -1.95473809 0 0 Z " fill="#F68E1C" transform="translate(244.3125,185.125)"/>
<path d="M0 0 C3.16756589 2.14154998 5.10760454 4.83630283 6.796875 8.21484375 C7.3041715 13.77015623 7.55947922 18.63314611 5.109375 23.71484375 C-1.53756052 30.90071999 -1.53756052 30.90071999 -6.5234375 31.48828125 C-13.44097168 31.73877692 -17.95351498 30.87113175 -23.203125 26.21484375 C-26.68335567 22.17328555 -27.34248558 17.43215535 -27.203125 12.21484375 C-26.08579384 6.6381641 -23.70517577 2.77460483 -19.203125 -0.78515625 C-12.35748694 -3.91033884 -6.49604309 -3.53757385 0 0 Z " fill="#F68E1D" transform="translate(246.203125,499.78515625)"/>
<path d="M0 0 C3.73107009 1.85749394 6.35734981 4.48377366 8.21484375 8.21484375 C9.99018946 13.92956602 9.81278005 19.42955105 7.1875 24.77734375 C2.88974306 29.53972306 -0.31071021 32.10134462 -6.8125 32.65234375 C-11.5737546 32.57342793 -15.27936044 31.12814561 -19.125 28.33984375 C-22.88355383 23.61755817 -24.55857527 19.62814033 -24.46875 13.53125 C-23.63417651 8.21084402 -20.28927998 4.44868183 -16.5 0.83984375 C-11.13418846 -1.54496138 -5.6391289 -1.75186174 0 0 Z " fill="#F5851D" transform="translate(297.125,480.66015625)"/>
<path d="M0 0 C3.88446678 2.58964452 6.69907021 5.64814041 8.8125 9.875 C9.53160796 16.98355901 9.32642888 22.20365346 4.8125 27.875 C-0.17574796 31.84523818 -4.26545937 32.5182003 -10.6015625 32.2578125 C-15.86509932 31.47861823 -18.39173274 28.92885393 -21.5 24.8125 C-24.09639516 20.29284917 -24.61234212 17.05807381 -24.1875 11.875 C-22.28846173 6.05851706 -19.68117807 2.79716919 -14.1875 -0.125 C-9.20670617 -1.78526461 -4.88476371 -1.72403425 0 0 Z " fill="#F5851D" transform="translate(572.1875,362.125)"/>
<path d="M0 0 C4.80573582 2.61707707 7.09652397 6.22707191 8.8125 11.375 C9.18076224 16.99099916 9.02806007 20.55165989 5.8125 25.375 C1.64076929 29.49110763 -1.50292883 31.53361124 -7.375 31.6875 C-12.94812756 31.6145533 -15.81590412 30.85443346 -20.1875 27.375 C-24.15773818 22.38675204 -24.8307003 18.29704063 -24.5703125 11.9609375 C-23.79111823 6.69740068 -21.24135393 4.17076726 -17.125 1.0625 C-11.36166287 -2.24835325 -6.11155613 -2.74791983 0 0 Z " fill="#F5851D" transform="translate(504.1875,203.625)"/>
<path d="M0 0 C4.19826665 3.19068266 6.46295531 6.38886593 8.125 11.375 C8.71217652 17.36420055 7.43067074 21.46981116 4.125 26.375 C-0.54192116 30.81426647 -4.35248682 31.68715581 -10.59765625 31.5859375 C-15.50584233 31.13131992 -18.57221516 28.94256125 -21.6875 25.3125 C-25.56859058 20.10074979 -25.49205384 15.75709973 -24.875 9.375 C-23.58155528 5.10507405 -21.27151756 2.6842837 -17.75 -0.0625 C-12.12638297 -2.85017282 -5.5928168 -2.85641716 0 0 Z " fill="#F5851D" transform="translate(229.875,322.625)"/>
<path d="M0 0 C4.91084135 2.28003348 7.47820794 5.236615 10 10 C11.66762469 15.89227389 10.75531248 20.64021331 8 26 C3.99320072 30.3795248 -0.12532447 32.55829507 -6 33 C-11.99906707 32.54894233 -15.84899319 30.24984031 -20 26 C-22.80776178 21.53310627 -22.63837114 16.10696915 -22 11 C-20.69456592 7.08369777 -18.45249419 4.44118183 -15.5 1.5625 C-10.32575261 -0.74743187 -5.57666708 -0.75070518 0 0 Z " fill="#F37120" transform="translate(309,437)"/>
<path d="M0 0 C4.8846525 2.26787438 7.73212562 5.1153475 10 10 C10.75381535 15.5997712 10.77303575 20.33499991 8.375 25.5 C3.80134327 30.3143755 0.6912538 32.25156236 -6 32.5 C-12.6912538 32.25156236 -15.80134327 30.3143755 -20.375 25.5 C-22.77303575 20.33499991 -22.75381535 15.5997712 -22 10 C-17.52212837 0.3553534 -9.85292056 -1.32635469 0 0 Z " fill="#F37120" transform="translate(489,246)"/>
<path d="M0 0 C3.98801016 2.09539517 6.3245777 4.15318131 8.09375 8.28125 C9.47713849 13.17631696 8.97805258 16.57049355 7.09375 21.28125 C3.32396202 25.7454726 0.53836589 28.05489668 -5.28125 28.59375 C-11.15950993 28.08700345 -15.12013148 25.76850158 -18.90625 21.28125 C-20.55737454 16.32787639 -20.76592138 11.3173138 -18.71875 6.46875 C-13.84377846 0.58516366 -7.70697265 -2.90590772 0 0 Z " fill="#F47B1E" transform="translate(513.90625,280.71875)"/>
<path d="M0 0 C3.99158481 2.07158199 6.51119161 4.04932385 8.0390625 8.2734375 C8.74100258 12.89334923 9.09637005 17.22785623 6.90234375 21.47265625 C3.86075832 25.28062541 0.95029907 27.48763965 -3.9609375 28.2734375 C-8.43906857 28.40832097 -11.77828195 27.7723531 -15.3359375 24.9609375 C-18.97442686 21.23581744 -20.25482091 18.60612288 -20.3359375 13.3984375 C-20.22296956 8.60436042 -19.29931195 5.87536783 -15.9609375 2.2734375 C-11.0047277 -1.10579645 -5.66321147 -2.09832138 0 0 Z " fill="#F47D1E" transform="translate(342.9609375,462.7265625)"/>
<path d="M0 0 C2.98340516 2.46775488 4.65398883 3.96196649 5.8984375 7.6953125 C6.29400803 12.18351661 6.40812331 16.31616265 4.8359375 20.5703125 C1.17879849 24.58136819 -2.69160037 26.89067386 -8.1015625 27.1953125 C-13.50138297 26.89124494 -17.33396268 24.57695101 -21.0390625 20.6328125 C-22.72958602 15.95901217 -22.969795 11.58962311 -22.1015625 6.6953125 C-20.06992113 2.88259886 -17.37731502 0.52282765 -13.7890625 -1.8046875 C-8.88756818 -2.71659342 -4.33122637 -2.68890262 0 0 Z " fill="#F47B1E" transform="translate(286.1015625,408.3046875)"/>
<path d="M0 0 C3.50672434 3.45698357 4.57649257 6.33974738 4.77734375 11.25390625 C4.492381 16.08501885 3.51081987 19.06062126 0.15234375 22.69140625 C-3.68478821 26.07711092 -7.48167087 26.20431797 -12.41015625 26.04296875 C-17.07291771 25.37045508 -19.69955917 22.99258294 -22.72265625 19.56640625 C-24.41249876 15.24791983 -24.50726608 11.26470105 -23.84765625 6.69140625 C-21.22086376 1.34053266 -18.09030042 -1.16928634 -12.53515625 -3.12109375 C-7.78787907 -3.45229913 -3.87311759 -2.74311711 0 0 Z " fill="#F47D1E" transform="translate(458.84765625,227.30859375)"/>
<path d="M0 0 C3.29165681 1.83181754 5.47363241 4.09081962 7.375 7.375 C8.48480721 12.03619027 8.4933136 15.67584245 6.8125 20.1875 C3.84065055 24.79899053 1.49857341 26.63744192 -3.875 27.9375 C-9.26234793 28.36442191 -13.28285827 26.44601409 -17.375 23 C-20.92353335 18.63257434 -20.44584601 13.35015208 -20 8 C-18.67444997 4.18904367 -16.75638401 2.61880412 -13.375 0.625 C-8.76369234 -1.45178378 -4.80772337 -1.53740507 0 0 Z " fill="#F7951B" transform="translate(510,536)"/>
<path d="M0 0 C3.36849199 2.77405223 4.83718625 4.89072319 5.515625 9.2734375 C5.80834463 14.1299223 5.68479741 17.84108093 2.6875 21.8125 C-0.93592379 25.37596169 -4.85569503 26.56042193 -9.875 26.75 C-14.47041759 25.86626585 -17.52777197 24.00424947 -20.875 20.75 C-23.12871975 16.77916043 -23.27056434 13.25943346 -22.875 8.75 C-21.13083626 4.06829732 -19.00464161 1.53750809 -14.875 -1.25 C-9.838947 -2.92868433 -4.82744113 -2.09888745 0 0 Z " fill="#F7951C" transform="translate(290.875,537.25)"/>
<path d="M0 0 C3.85432136 1.78950635 5.49773376 3.26334285 7.875 6.75 C9.2361704 10.68227005 9.74677599 13.88862888 9 18 C6.30455136 23.10209922 3.4785689 26.17381037 -2 28 C-8.10489702 28.58700933 -11.130903 27.46454979 -16 24 C-19.47102301 20.19307154 -19.45374094 16.307452 -19.28515625 11.3671875 C-18.76375335 7.03882921 -16.76324842 4.88250599 -14 1.6875 C-9.42070597 -0.88835289 -5.1326829 -0.73862397 0 0 Z " fill="#F7951C" transform="translate(509,152)"/>
<path d="M0 0 C3.48488515 1.99223329 6.19540905 4.3908181 8 8 C8.52383318 13.25550671 8.61997842 17.66466186 6.375 22.5 C2.72938546 26.33748898 -0.2354043 27.81093617 -5.5 28.375 C-10.68879762 27.8190574 -13.76635201 26.3336735 -17.3125 22.5 C-20.14112473 18.30944484 -20.41496987 14.97963845 -20 10 C-18.65723697 6.43875893 -16.72478185 3.68085568 -13.9375 1.0625 C-9.27130859 -0.62527136 -4.88536078 -0.88634403 0 0 Z " fill="#F7951C" transform="translate(288,152)"/>
<path d="M0 0 C3.20303177 1.83838468 5.43844255 4.12104051 7.4375 7.25 C8.27247009 11.33207602 8.13744492 14.98248622 7 19 C4.48106916 22.19972296 1.92379266 24.76680802 -2 26 C-6.77667642 26.46225901 -9.01903323 26.49973779 -13.3125 24.3125 C-16.66981719 21.42364567 -18.64419083 19.37206115 -19.31640625 14.890625 C-19.52660989 10.84929058 -19.15883351 8.34308038 -17.4375 4.625 C-12.52774303 -0.66243058 -6.78329509 -2.25651196 0 0 Z " fill="#F68E1C" transform="translate(238,281)"/>
<path d="M0 0 C4.35944153 2.22084757 7.16830464 4.42076159 9 9 C9.70599788 13.70665253 9.45316426 17.0588127 7.375 21.375 C3.78174634 25.34649089 0.79988182 26.77501477 -4.5 27.4375 C-9.48223782 26.81472027 -12.31619867 24.68380133 -15.8125 21.1875 C-17.52125109 18.03980063 -17.87865751 15.57960359 -18 12 C-16.50624711 7.36150419 -14.80130239 4.08855819 -11 1 C-7.27148658 -0.24283781 -3.87253239 -0.5280726 0 0 Z " fill="#F68E1C" transform="translate(558,408)"/>
<path d="M0 0 C3.55586038 1.2747424 5.444669 2.31062358 7.8125 5.25 C9.9167943 10.1231026 10.43811691 13.56395013 8.875 18.6875 C6.5222792 22.84397342 4.61973225 25.24165645 -0.078125 26.6015625 C-4.14969915 27.30785598 -7.16769744 27.30719583 -10.875 25.375 C-14.07273126 22.94472424 -15.59070118 21.73049687 -17 18 C-17.55042588 13.74389005 -17.47698255 10.19245639 -15.875 6.1875 C-11.28244294 0.82951676 -6.87591131 -1.12539866 0 0 Z " fill="#F68E1C" transform="translate(333,505)"/>
<path d="M0 0 C3.24929952 2.7077496 5.6908318 4.85930372 6.30859375 9.13671875 C6.55928861 14.09743834 6.42919359 17.18750897 3.125 21.0625 C-0.07098218 24.34339958 -2.17268656 25.18072886 -6.75 25.3125 C-11.59662636 25.26347343 -14.31412449 24.31728796 -18 21 C-20.91134174 16.34588276 -20.74492458 11.30662765 -20 6 C-18.31123483 2.32530498 -15.79057069 0.43122037 -12.25 -1.5 C-7.80185395 -2.18433016 -4.18369889 -1.65652903 0 0 Z " fill="#F68E1C" transform="translate(464,185)"/>
<path d="M0 0 C3.4277917 2.68664755 5.88664858 4.66868387 6.76953125 9.11328125 C7.0866584 13.97343924 6.64867788 17.06674869 3.5 20.875 C0.55525635 23.96516309 -1.68457356 24.73680744 -6 25.0625 C-10.8240863 24.7354433 -13.95727325 23.42340076 -17.5 20.125 C-20.05687524 15.1458219 -20.11739406 11.1926862 -18.5 6 C-14.55709171 -0.9340801 -7.49663241 -3.31246549 0 0 Z " fill="#F3711F" transform="translate(371.6875,440.1875)"/>
<path d="M0 0 C3.3170383 2.61128547 5.4091157 5.11277138 7 9 C7.24137178 13.49756077 6.55333627 17.10321363 4.1875 20.9375 C0.23509278 24.66405537 -2.48801702 25.4022635 -8.0390625 25.2578125 C-12.20660842 24.70988814 -15.36858792 22.1576945 -18 19 C-19.76074588 13.71776236 -19.79625804 9.62314139 -17.375 4.6875 C-12.36826474 -0.97801621 -7.11971315 -2.16744035 0 0 Z " fill="#F3711F" transform="translate(427,251)"/>
<path d="M0 0 C3.97058723 3.3389029 5.55763254 5.54913163 6.125 10.75 C5.6298907 15.45353834 4.28428013 18.60118755 1.125 22.125 C-3.12426102 24.24963051 -7.65780076 25.06378999 -12.28515625 23.72265625 C-15.77239814 21.99754508 -17.17623077 20.432375 -19.25 17.0625 C-20.49677698 12.38708633 -20.38774579 10.01518261 -19.25 5.3125 C-14.88029403 -1.86630267 -7.55524452 -3.92291542 0 0 Z " fill="#F5881D" transform="translate(271.25,370.6875)"/>
<path d="M0 0 C2.87727074 3.04652196 4.09432253 5.14475852 4.15625 9.39453125 C3.81922467 14.4751881 2.95538209 17.63849689 -0.875 21.25 C-3.91970604 23.53352953 -7.08390858 23.67464146 -10.84765625 23.5625 C-14.30156706 23.03010527 -16.29344495 21.53137423 -18.875 19.25 C-21.98183074 14.94052511 -22.30551506 11.46712987 -21.515625 6.3671875 C-20.21952855 2.08374678 -17.25779986 0.07220532 -13.5625 -2.125 C-8.51859456 -3.29800127 -4.42041439 -2.69068702 0 0 Z " fill="#F6881D" transform="translate(530.875,322.75)"/>
<path d="M0 0 C3.10605182 2.6492795 4.82033521 4.80245545 5.4453125 8.92578125 C5.72028454 14.3793933 4.76705801 17.54608919 1.125 21.8125 C-3.20841099 24.70144066 -6.30585989 25.06025897 -11.4375 24.25 C-15.46569401 22.56548251 -18.03867486 20.77766224 -19.875 16.8125 C-20.81781824 11.71797339 -20.44480601 7.95211202 -18.125 3.3125 C-13.23452751 -2.12135832 -6.64443347 -2.74443991 0 0 Z " fill="#F6891D" transform="translate(383.875,476.1875)"/>
<path d="M0 0 C3.12177233 1.68287927 5.39137035 3.7827407 7 7 C7.50260166 12.11664964 7.84102072 16.52821374 5.25 21.0625 C0.99234633 24.72881288 -2.30614134 25.39476886 -7.81640625 25.25 C-11.99833502 24.7712103 -14.15037226 22.99611528 -16.8125 19.875 C-18.48087822 15.83576852 -18.69030273 12.30870276 -18 8 C-13.99990071 0.1426621 -8.3981325 -1.33576596 0 0 Z " fill="#F68A1D" transform="translate(415,215)"/>
<path d="M0 0 C4.14613048 1.79037453 6.20962547 3.85386952 8 8 C8.40359922 11.76692609 8.31158806 14.23834029 6.875 17.75 C4.44220674 20.66935191 2.60755484 21.7747927 -1 23 C-5.46769643 23.29784643 -8.26229179 22.51796534 -11.9375 19.9375 C-14.51796534 16.26229179 -15.29784643 13.46769643 -15 9 C-13.7747927 5.39244516 -12.66935191 3.55779326 -9.75 1.125 C-6.23834029 -0.31158806 -3.76692609 -0.40359922 0 0 Z " fill="#F47C1E" transform="translate(452,265)"/>
<path d="M0 0 C3.00517067 1.29060234 3.80734822 2.31400157 6 5 C7.05285085 8.07930572 7.35315106 10.76468059 7 14 C5.04164766 17.84676353 3.58550738 19.60966175 0 22 C-3.73455906 22.67577735 -7.36218785 22.69852858 -10.88671875 21.1953125 C-13.31657042 19.48912125 -14.78731029 17.66450514 -15.69140625 14.83984375 C-16.28547374 11.09409186 -16.27233704 8.65934231 -14.8125 5.125 C-10.42123562 -0.02337893 -6.71813308 -1.19717596 0 0 Z " fill="#F47C1E" transform="translate(342,428)"/>
<path d="M0 0 C3.44823817 1.46869403 5.36467279 2.57524493 6.91796875 6.05859375 C8.02970959 10.05412295 8.20367534 12.38897398 6.875 16.375 C4.5333979 19.65324294 2.63529305 21.68091843 -1.40234375 22.46875 C-8.28614193 22.55360421 -8.28614193 22.55360421 -12.0625 19.625 C-14.74781439 15.98683212 -15.39279906 13.69292064 -15.359375 9.10546875 C-14.72418186 5.38406547 -12.66020984 3.59687151 -10 1 C-6.77327815 -0.61336093 -3.49798011 -0.44212388 0 0 Z " fill="#F47C1E" transform="translate(394,248)"/>
<path d="M0 0 C2.89728868 1.2328888 4.39683427 2.2245012 6.3125 4.6875 C7.70825988 9.38232868 7.6759863 13.44523152 5.75 17.875 C3.81140938 20.22900289 2.91533206 21.13327966 0 22 C-4.94511588 22.4785596 -7.04079932 22.52320037 -11.4375 20.125 C-14.123544 17.89754887 -14.87207279 17.1848996 -15.23828125 13.79296875 C-15.43980708 6.71835156 -15.43980708 6.71835156 -13.125 2.9375 C-9.0979385 -0.73423254 -5.2451855 -0.50818406 0 0 Z " fill="#F47C1E" transform="translate(400,445)"/>
<path d="M0 0 C3.2403811 2.41304976 4.6743756 4.06382984 6 7.875 C6 12.56233446 4.28863538 15.96531255 1.8125 19.875 C-1.24943362 21.77551052 -4.47517782 22.10013699 -8 22 C-11.92303116 20.74166925 -13.52954361 19.65256854 -15.9375 16.3125 C-17.25898025 12.19259098 -17.40394427 9.11034285 -16 5 C-11.38624688 -0.70648412 -7.07229583 -1.998992 0 0 Z " fill="#F8991B" transform="translate(456,561)"/>
<path d="M0 0 C3.81357279 3.23324649 5.83136779 5.24622504 6.3125 10.25 C5.9413702 14.70355765 4.89685726 16.6333821 2 20 C-1.56351285 22.27668877 -4.89899809 22.35016699 -9.0625 21.65625 C-11.76318728 20.74150108 -13.5094444 19.19010365 -15.15234375 16.87890625 C-16.77814274 13.27517668 -16.76426462 9.83547617 -16 6 C-14.20726402 2.87931144 -12.75740595 1.45034948 -9.6875 -0.375 C-6.04992671 -1.22094728 -3.60960985 -0.96685978 0 0 Z " fill="#F8991B" transform="translate(341,561)"/>
<path d="M0 0 C3.03522895 1.63435405 5.28352297 3.055553 7.375 5.8125 C8.70650588 10.47277057 8.49824485 13.89970929 6.5 18.3125 C3.7158648 21.30544534 2.03637167 22.22101064 -1.90625 22.94921875 C-6.34362907 23.05684175 -9.62631917 21.15211941 -12.9375 18.375 C-14.61992272 14.61429038 -14.65688915 11.04239475 -14 7 C-10.56417713 1.2327259 -6.66321886 -0.79958626 0 0 Z " fill="#F7941C" transform="translate(376,518)"/>
<path d="M0 0 C3.33048034 0.05842948 5.57118839 0.37157134 8.3125 2.3125 C11.53643818 6.26182427 12.21593488 9.33206396 11.8125 14.375 C10.29037572 18.06014299 8.37667575 20.54474759 4.8125 22.375 C-0.54711156 22.8854392 -3.83116399 22.8344433 -8.1875 19.375 C-11.00204595 15.15318108 -10.99434081 11.33469791 -10.1875 6.375 C-7.75 3.3125 -7.75 3.3125 -5.1875 1.375 C-3.63766739 -0.17483261 -2.15081622 0.09367039 0 0 Z " fill="#F7961B" transform="translate(531.1875,449.625)"/>
<path d="M0 0 C2.96861409 3.2159986 3.91247884 6.10165121 4.25 10.4375 C3.33764065 14.45188115 1.56060418 16.99810744 -1.75 19.4375 C-6.29908544 20.53808519 -8.61894284 20.80029192 -13.0625 19.375 C-16.40256854 16.96704361 -17.49166925 15.36053116 -18.75 11.4375 C-19.04840929 6.82572012 -18.3167455 4.15741996 -15.4375 0.5 C-10.25589744 -3.47657871 -5.72214797 -3.25122044 0 0 Z " fill="#F8991B" transform="translate(457.75,134.5625)"/>
<path d="M0 0 C3.81357279 3.23324649 5.83136779 5.24622504 6.3125 10.25 C5.9413702 14.70355765 4.89685726 16.6333821 2 20 C-1.56351285 22.27668877 -4.89899809 22.35016699 -9.0625 21.65625 C-11.76318728 20.74150108 -13.5094444 19.19010365 -15.15234375 16.87890625 C-16.77814274 13.27517668 -16.76426462 9.83547617 -16 6 C-14.20726402 2.87931144 -12.75740595 1.45034948 -9.6875 -0.375 C-6.04992671 -1.22094728 -3.60960985 -0.96685978 0 0 Z " fill="#F8991B" transform="translate(341,133)"/>
<path d="M0 0 C2.93423195 1.79646854 4.47205355 2.9441071 6 6 C6.6326744 10.51910283 6.77294479 14.66253178 4.0625 18.5 C0.61076209 21.31774523 -1.41119984 22.02706216 -5.78125 22.23828125 C-9.35517431 21.85446191 -11.37644628 20.36759726 -14 18 C-16.58644464 14.5905957 -16.36503115 11.1613551 -16 7 C-12.56238275 -0.36632267 -7.49569379 -1.00420778 0 0 Z " fill="#F7941B" transform="translate(418,175)"/>
<path d="M0 0 C2.63093935 2.02958179 4.03622291 3.64966878 4.5234375 6.9921875 C4.62941794 13.96570069 4.62941794 13.96570069 2.3125 17.75 C-0.64890944 20.45010861 -2.27182977 20.84247782 -6.1875 20.875 C-6.95835937 20.88917969 -7.72921875 20.90335937 -8.5234375 20.91796875 C-11.0920857 20.65935059 -12.6410815 20.07142982 -14.8125 18.6875 C-17.40086091 14.62007571 -18.51295238 11.49060204 -17.8125 6.6875 C-16.17814595 3.65227105 -14.756947 1.40397703 -12 -0.6875 C-7.66891708 -1.92495226 -4.09284678 -1.90999517 0 0 Z " fill="#F7951B" transform="translate(260.8125,244.3125)"/>
<path d="M0 0 C3.0625 1.875 3.0625 1.875 5 5 C5.9961698 10.02201303 5.7743543 13.7094095 3.125 18.125 C-1.29486216 20.7769173 -4.97377154 20.98876625 -10 20 C-13.125 18.125 -13.125 18.125 -15 15 C-15.74155598 11.49341744 -15.79197712 8.50076844 -15 5 C-10.93819711 -0.2074396 -6.46123411 -1.42527223 0 0 Z " fill="#F89B1B" transform="translate(398,126)"/>
<path d="M0 0 C4.37758112 2.34513274 4.37758112 2.34513274 6 5 C6.79637068 8.49486415 6.76412732 11.50110122 6 15 C3.63095184 18.41421647 2.02503506 19.64346607 -1.875 21 C-5.90306262 21 -8.47273862 19.89929459 -12 18 C-14.6790573 13.98141405 -14.69610694 10.72358279 -14 6 C-10.40061871 0.24098994 -6.67055043 -1.03764118 0 0 Z " fill="#F89B1B" transform="translate(397,569)"/>
<path d="M0 0 C2.60865509 1.6722148 3.63837061 2.89147591 4.59765625 5.83203125 C5.3857385 9.83365278 5.18206292 11.63587416 3.3125 15.375 C-0.12977099 19.28244275 -0.12977099 19.28244275 -3 20 C-6.9977087 20.0578181 -10.0448804 19.61225616 -13.4375 17.4375 C-15.61371748 14.04260074 -16.20004515 11.01690657 -16 7 C-14.72774704 3.8193676 -13.39802885 2.34116758 -10.8125 0.125 C-6.93874712 -1.42450115 -3.96564241 -1.19467052 0 0 Z " fill="#F7941B" transform="translate(423,477)"/>
<path d="M0 0 C2.8100346 1.79363911 4.50940468 3.01880935 6 6 C6.5811138 13.08958838 6.5811138 13.08958838 4.125 16.9375 C0.8698054 20.09695358 -1.42413238 20.33421243 -5.9609375 20.29296875 C-9.13134567 19.83745033 -10.8192402 18.24684343 -13 16 C-14.60086627 12.79826746 -14.49917089 9.47422941 -14 6 C-10.32759145 0.24655994 -6.71744997 -0.96515086 0 0 Z " fill="#F7911C" transform="translate(267,331)"/>
<path d="M0 0 C2.75329021 1.79562405 4.52627461 3.05254922 6 6 C6.6469176 10.7040151 6.63833677 13.99101607 4.0625 18.0625 C-0.04140419 20.65884755 -3.26274904 20.95259938 -8 20 C-10.87029869 18.20606332 -12.49131638 17.01736724 -14 14 C-14.3751455 9.02932218 -14.15878799 5.94848498 -11 2 C-7.57905881 -0.56570589 -4.15226516 -0.43708054 0 0 Z " fill="#F7921C" transform="translate(527,364)"/>
<path d="M0 0 C1.875 1.125 1.875 1.125 3 3 C3.97249497 7.30676344 4.5137552 9.71561199 2.875 13.8125 C0.65883242 16.39802885 -0.8193676 17.72774704 -4 19 C-6.85283853 19.19322014 -9.2919781 18.92911212 -12 18 C-14.52981749 15.66478386 -15.68326407 13.80239768 -16.9375 10.625 C-17.03121827 6.68883279 -15.99935826 4.37391707 -14 1 C-8.79924085 -2.30048177 -5.63111566 -2.38239509 0 0 Z " fill="#F7921C" transform="translate(375,220)"/>
<path d="M0 0 C3.0625 1.9375 3.0625 1.9375 5 5 C5.91259488 9.50593723 5.55514129 12.88971742 3.5 17 C0.10611461 19.71510831 -2.69206109 20.28995743 -7 20 C-10.2548109 18.85478876 -12.23766484 17.97024475 -14.375 15.25 C-15.28311671 11.98077984 -15.35569512 9.37910365 -15 6 C-10.99881489 -0.1351505 -7.03777522 -1.03139809 0 0 Z " fill="#F3701F" transform="translate(432,411)"/>
<path d="M0 0 C2.8100346 1.79363911 4.50940468 3.01880935 6 6 C6.70153846 13.13230769 6.70153846 13.13230769 3.625 16.9375 C-0.17367482 19.92217308 -2.15772359 20.4656035 -7 20 C-12.57894737 16.84210526 -12.57894737 16.84210526 -14 14 C-14.5811138 6.91041162 -14.5811138 6.91041162 -12.125 3.0625 C-8.49059499 -0.46501074 -4.90782663 -0.7051475 0 0 Z " fill="#F5891D" transform="translate(364,255)"/>
<path d="M0 0 C5.57894737 3.15789474 5.57894737 3.15789474 7 6 C7.44851142 10.4851142 7.68822212 13.71029797 5.0625 17.5 C1.46212166 20.43908436 -0.32574711 20.76995019 -4.84375 20.46875 C-8.01247216 19.77989736 -9.80517228 18.33200445 -12 16 C-13.53214888 12.93570224 -13.22938548 10.3834358 -13 7 C-11.73001681 4.14253783 -10.7161997 2.51862737 -8.1875 0.6875 C-5.22019177 -0.24508259 -3.10315844 -0.37237901 0 0 Z " fill="#F6891D" transform="translate(429,440)"/>
<path d="M0 0 C3.17457096 2.5914865 4.54580349 4.07435695 5.47265625 8.00390625 C5.76969168 12.01769266 5.14518213 13.82043263 2.625 16.9375 C-1.18335279 19.9297772 -3.155128 20.37998996 -8 20 C-10.77428577 18.73896101 -12.48317435 17.68910086 -14.3125 15.25 C-15.31199111 11.9789382 -15.3581657 9.40257412 -15 6 C-11.067585 -0.029703 -6.97606069 -1.23885216 0 0 Z " fill="#F6881D" transform="translate(320,408)"/>
<path d="M0 0 C2.77428577 1.26103899 4.48317435 2.31089914 6.3125 4.75 C7.32815881 8.0739743 7.41796486 10.53686262 7 14 C4.63888889 18.3287037 4.63888889 18.3287037 2 20 C-1.51843913 20.85942202 -4.4808132 20.85383549 -8 20 C-10.82597535 18.26673512 -11.34204655 17.09484645 -13 14 C-13.72380155 10.90574837 -13.52203325 9.28880946 -13 6 C-8.99198039 1.04271259 -6.32512692 -0.49608839 0 0 Z " fill="#F37220" transform="translate(362,284)"/>
<path d="M0 0 C3.49218239 2.84888563 4.8567349 4.75836912 5.375 9.25 C4.89525078 14.04749221 3.53080572 15.77622087 0 19 C-3.32228645 20.10742882 -5.23495214 20.18215425 -8.625 19.375 C-11.68054389 17.60600091 -13.17863582 16.03560696 -15 13 C-15.43342998 8.8824152 -15.62998478 5.34725336 -13 2 C-8.40863827 -1.09649977 -5.32454277 -1.47903966 0 0 Z " fill="#F6891D" transform="translate(476,288)"/>
<path d="M0 0 C2.93052231 1.99524923 4.64521503 3.42836485 5.4453125 6.97265625 C5.64529931 10.53908774 5.30896766 12.59834205 3.125 15.4375 C-0.41699942 18.04191134 -2.58936125 18.43241556 -7 18 C-9.69990662 16.20006226 -11.5418865 14.916227 -13 12 C-13.43023798 8.12785818 -13.31669086 6.47503629 -11.125 3.1875 C-7.5841408 -0.45750212 -5.02152545 -0.5106636 0 0 Z " fill="#F47C1E" transform="translate(384,278)"/>
<path d="M0 0 C2.69990662 1.79993774 4.5418865 3.083773 6 6 C6.25491388 9.9086795 6.23289019 12.70942498 4 16 C0.33218328 18.44521115 -2.73453233 18.72237759 -7 18 C-9.43119623 16.12984906 -10.64069173 14.71861655 -12 12 C-12.43023798 8.12785818 -12.31669086 6.47503629 -10.125 3.1875 C-6.82233621 -0.21230096 -4.68601439 -0.45941318 0 0 Z " fill="#F47B1E" transform="translate(409,419)"/>
<path d="M0 0 C3.34265205 1.20706879 3.94704566 1.92056849 6 5 C6.6779661 12.11864407 6.6779661 12.11864407 4.125 15.4375 C0.58300058 18.04191134 -1.58936125 18.43241556 -6 18 C-8.69990662 16.20006226 -10.5418865 14.916227 -12 12 C-12.43023798 8.12785818 -12.31669086 6.47503629 -10.125 3.1875 C-6.78940571 -0.2462 -4.7066745 -0.28240047 0 0 Z " fill="#F47B1E" transform="translate(344,299)"/>
<path d="M0 0 C2.69990662 1.79993774 4.5418865 3.083773 6 6 C6.25303321 9.87984253 6.30454139 12.77364205 4 16 C0.77706714 18.3020949 -2.11996324 18.47510654 -6 18 C-8.69990662 16.20006226 -10.5418865 14.916227 -12 12 C-12.43023798 8.12785818 -12.31669086 6.47503629 -10.125 3.1875 C-6.82233621 -0.21230096 -4.68601439 -0.45941318 0 0 Z " fill="#F47C1E" transform="translate(448,398)"/>
<path d="M0 0 C3.30748965 2.61117604 4.81680509 4.62603815 5.375 8.8125 C5 12 5 12 2.8125 14.8125 C-0.08634468 17.06715697 -1.3586271 18 -5 18 C-8.13749359 16.83112984 -10.29707221 15.85573818 -12.4375 13.25 C-13.29488416 9.82046336 -12.91108416 7.40138086 -12 4 C-8.39663975 -0.13326617 -5.3652492 -0.78039988 0 0 Z " fill="#F89A1B" transform="translate(422,520)"/>
<path d="M0 0 C3.3795917 1.95265298 4.71224763 3.17271195 6 6.875 C6 10.74826713 5.12269877 12.7793536 3 16 C0.37358513 18.15741221 -1.05286942 17.9990559 -4.5 17.9375 C-8 17 -8 17 -10.4375 14.8125 C-12.27363413 11.50745856 -12.47580309 9.7271242 -12 6 C-11.13676251 3.41028753 -10.46898968 2.33499263 -8.25 0.75 C-5.26448836 -0.24517055 -3.13343215 -0.38368557 0 0 Z " fill="#F8991C" transform="translate(289,213)"/>
<path d="M0 0 C2.74703988 2.39258312 2.97154858 3.80439649 3.5 7.4375 C3 11 3 11 0.9375 13.9375 C-2.7595073 16.53327109 -4.56644342 16.71253588 -9 16 C-11.9375 14.5625 -11.9375 14.5625 -14 12 C-14.65269998 8.87963604 -14.63146359 6.12287449 -14 3 C-9.94036327 -2.59949894 -6.14373106 -2.30389915 0 0 Z " fill="#F8991B" transform="translate(506,486)"/>
<path d="M0 0 C3.38216497 2.16805447 3.898503 3.594012 4.875 7.5 C4.99677465 10.90969032 4.99358484 12.30866047 3 15 C-0.6884086 17.45893906 -3.71739539 17.6821084 -8 17 C-11.34238038 14.85744848 -11.89167954 13.39717502 -12.9375 9.5625 C-13.00698608 5.60179332 -12.43366566 4.06461602 -10 1 C-6.79468579 -0.6026571 -3.47781792 -0.48207377 0 0 Z " fill="#F8981B" transform="translate(372,178)"/>
<path d="M0 0 C3.91936232 0.96265039 5.35438059 1.5186585 7.5625 4.875 C8.125 8.3125 8.125 8.3125 7.5625 11.875 C5.11249553 15.26177089 3.69857554 16.66198584 -0.4375 17.4375 C-4.20741795 16.73064038 -5.84168092 15.69331785 -8.4375 12.875 C-9.67424251 9.24206886 -9.78208203 7.63308047 -8.1875 4.125 C-5.59972266 0.7978577 -4.26538153 -0.15510478 0 0 Z " fill="#F8981B" transform="translate(512.4375,405.125)"/>
<path d="M0 0 C2.5 2.125 2.5 2.125 4 5 C4.07481382 9.26438773 3.64839572 11.23718151 0.875 14.5 C-2.94963184 16.49546009 -4.89631321 16.19379979 -9 15 C-11.4375 13.375 -11.4375 13.375 -13 11 C-13.5 7.5 -13.5 7.5 -13 4 C-9.01693752 -1.04521248 -6.191012 -1.49438221 0 0 Z " fill="#F8981B" transform="translate(279,294)"/>
<path d="M0 0 C2.875 2.0625 2.875 2.0625 5 5 C5.51749792 8.68717269 5.4590889 10.97380129 3.9375 14.375 C1.03326481 16.81081016 -1.25957491 16.93550991 -5 17 C-7.94755732 15.65437601 -9.54277272 14.91445456 -11 12 C-11.28395581 9.06578994 -11.49548029 6.84901166 -11 4 C-7.75032314 0.17685075 -4.94151119 -0.92653335 0 0 Z " fill="#F8991C" transform="translate(333,234)"/>
<path d="M0 0 C2.23759858 1.80451498 2.83522338 3.09835714 3.34765625 5.90234375 C3.63106754 9.80469927 3.47305237 11.4434678 0.875 14.5 C-2.53285587 16.27801176 -4.21545532 16.70960213 -8 16 C-10.875 13.9375 -10.875 13.9375 -13 11 C-13.5625 7.4375 -13.5625 7.4375 -13 4 C-8.99828585 -1.06883792 -6.21426986 -1.41728962 0 0 Z " fill="#F8981C" transform="translate(461,465)"/>
<path d="M0 0 C2.88293954 1.72976372 3.02200887 3.07923193 3.9375 6.375 C4 10 4 10 2.4375 12.875 C-0.51902195 15.45248068 -2.08967888 16 -6 16 C-9.52906067 14.39588152 -10.82772908 13.25840638 -13 10 C-12.92433357 5.83834648 -12.59563245 3.70074406 -9.875 0.5 C-6.08386986 -1.47798094 -4.07202027 -1.13111674 0 0 Z " fill="#F89A1B" transform="translate(466,509)"/>
<path d="M0 0 C3.5538378 0.05101203 4.41247905 0.15891211 7.3125 2.4375 C9.12028778 6.29959208 8.87067743 8.30782758 7.6875 12.375 C6.0625 14.8125 6.0625 14.8125 3.6875 16.375 C-0.2616615 16.93916593 -2.3589384 17.02743688 -5.6875 14.75 C-7.69756043 11.81221938 -8.23983979 9.9353504 -8.3125 6.375 C-6.04875643 1.74461543 -5.08113435 0.21621848 0 0 Z " fill="#F89A1B" transform="translate(324.3125,190.625)"/>
<path d="M0 0 C0.79148437 -0.02578125 1.58296875 -0.0515625 2.3984375 -0.078125 C5.14840652 0.32713359 5.96164071 1.06299056 7.625 3.25 C8.71945546 6.84606794 8.94466474 8.54673757 7.375 12 C5.625 14.25 5.625 14.25 2.625 16.25 C-0.7425602 16.06959499 -3.36613606 15.88894716 -6.25 14.0625 C-7.89761692 11.40800608 -8.25033099 9.36672513 -8.375 6.25 C-6.07299424 1.54135185 -5.15490958 0.10009533 0 0 Z " fill="#F6881D" transform="translate(383.375,420.75)"/>
<path d="M0 0 C1.90625 0.44921875 1.90625 0.44921875 4.40625 2.57421875 C6.16209708 5.93959231 6.54281938 7.70937366 5.90625 11.44921875 C3.83729835 14.3934961 2.39715073 15.2925483 -1.03125 16.38671875 C-4.69247681 16.46143766 -6.2242174 15.66285819 -9.09375 13.44921875 C-10.63961876 10.35748123 -10.38734521 7.85492323 -10.09375 4.44921875 C-7.53483537 0.29098247 -4.61835112 -0.24987347 0 0 Z " fill="#F7931C" transform="translate(335.09375,271.55078125)"/>
<path d="M0 0 C2.5 1.5 2.5 1.5 4 4 C4.60473284 6.81056787 4.653842 9.19536194 4 12 C1.9375 14.5625 1.9375 14.5625 -1 16 C-5.26438773 16.07481382 -7.23718151 15.64839572 -10.5 12.875 C-12.47798094 9.08386986 -12.13111674 7.07202027 -11 3 C-8.71481962 -1.16709364 -4.22971694 -0.74041323 0 0 Z " fill="#F7931C" transform="translate(304,383)"/>
<path d="M0 0 C2.48038907 3.7205836 2.46337203 5.59796571 2 10 C0.07017583 12.71604883 -1.34200775 13.74692606 -4.4375 14.9375 C-7.81879751 15.01997067 -9.33086744 14.0198841 -12 12 C-14 9 -14 9 -13.8125 5.5 C-12.74468085 0.90016367 -12.74468085 0.90016367 -10 -1 C-6.00471255 -2.33176248 -3.90144863 -1.41870859 0 0 Z " fill="#F7931C" transform="translate(459,429)"/>
<path d="M0 0 C1.9375 1.6875 1.9375 1.6875 3 4 C2.87971231 7.42819926 2.6667364 9.94725831 0.8125 12.875 C-1.84199392 14.52261692 -3.88327487 14.87533099 -7 15 C-11.56521739 12.86956522 -11.56521739 12.86956522 -13 10 C-13.57801822 3.75740319 -13.57801822 3.75740319 -11.1875 0.625 C-6.96854597 -2.50908013 -4.65543084 -2.03675099 0 0 Z " fill="#F5881D" transform="translate(463,382)"/>
<path d="M0 0 C1.9375 1.6875 1.9375 1.6875 3 4 C2.87971231 7.42819926 2.6667364 9.94725831 0.8125 12.875 C-1.84199392 14.52261692 -3.88327487 14.87533099 -7 15 C-11.56521739 12.86956522 -11.56521739 12.86956522 -13 10 C-13.57801822 3.75740319 -13.57801822 3.75740319 -11.1875 0.625 C-6.96854597 -2.50908013 -4.65543084 -2.03675099 0 0 Z " fill="#F7931C" transform="translate(491,318)"/>
<path d="M0 0 C2.41486943 2.41486943 2.2961925 3.12707789 2.3125 6.4375 C2.32925781 7.21996094 2.34601563 8.00242187 2.36328125 8.80859375 C2 11 2 11 0.76171875 12.76171875 C-1.4620675 14.32477915 -2.79920637 14.40200794 -5.5 14.375 C-6.2734375 14.38273437 -7.046875 14.39046875 -7.84375 14.3984375 C-10.50698365 13.90631824 -11.36561587 13.12570206 -13 11 C-14.08444457 7.43682497 -14.30100515 5.69706457 -12.8125 2.25 C-8.72986739 -2.81809565 -5.96172892 -2.20804775 0 0 Z " fill="#F6881D" transform="translate(334,320)"/>
<path d="M0 0 C2.59191186 1.69814915 2.96408796 2.8820033 3.875 5.875 C4.0235372 9.58842999 3.18476995 11.05896353 1 14 C0 15 0 15 -3.8125 15.3125 C-6.78617685 15.25377389 -7.87751147 15.07349312 -10.5 13.5 C-12.75389302 9.74351164 -12.48380069 7.35420619 -12 3 C-8.94544455 -1.50910567 -4.89532431 -1.22383108 0 0 Z " fill="#F6881D" transform="translate(407,279)"/>
<path d="M0 0 C2.375 1 2.375 1 4 3 C4.66300779 6.57577233 4.65930485 9.75895557 2.9375 13 C-0.17909511 14.60856522 -2.56262469 14.42213381 -6 14 C-8.4375 12.375 -8.4375 12.375 -10 10 C-10.61195145 6.3282913 -10.48706506 4.71186432 -8.375 1.625 C-5.30522452 -0.4753727 -3.65443439 -0.53293835 0 0 Z " fill="#F7931C" transform="translate(467,360)"/>
<path d="M0 0 C1.875 0.3125 1.875 0.3125 3.875 1.375 C5.48356522 4.49159511 5.29713381 6.87512469 4.875 10.3125 C3.25 12.75 3.25 12.75 0.875 14.3125 C-2.7967087 14.92445145 -4.41313568 14.79956506 -7.5 12.6875 C-9.6003727 9.61772452 -9.65793835 7.96693439 -9.125 4.3125 C-7.22664871 -0.19608432 -4.46900058 -0.26288239 0 0 Z " fill="#F7921C" transform="translate(426.125,285.6875)"/>
<path d="M0 0 C2.375 1.625 2.375 1.625 4 4 C4.48288863 7.31123632 4.29618989 9.296549 3 12.375 C0.29455964 14.5731703 -1.7087924 14.5712063 -5.125 14.3828125 C-7 14 -7 14 -9 12.375 C-10.29618989 9.296549 -10.48288863 7.31123632 -10 4 C-7.21921757 -0.06422047 -4.81255755 -0.80209293 0 0 Z " fill="#F7931C" transform="translate(365,415)"/>
<path d="M0 0 C2.375 1.625 2.375 1.625 4 4 C4.61195145 7.6717087 4.48706506 9.28813568 2.375 12.375 C-0.71186432 14.48706506 -2.3282913 14.61195145 -6 14 C-8.375 12.375 -8.375 12.375 -10 10 C-10.61195145 6.3282913 -10.48706506 4.71186432 -8.375 1.625 C-5.28813568 -0.48706506 -3.6717087 -0.61195145 0 0 Z " fill="#F7911D" transform="translate(325,341)"/>
<path d="M0 0 C1.9375 1.125 1.9375 1.125 3 3 C3.53852618 6.61581862 3.42236225 8.34111489 1.4375 11.4375 C-1 13 -1 13 -4.625 12.875 C-8 12 -8 12 -10 10 C-10.54587156 3.99541284 -10.54587156 3.99541284 -8.9375 1.0625 C-5.88023824 -0.6140629 -3.4093712 -0.36528977 0 0 Z " fill="#F89A1A" transform="translate(478,407)"/>
<path d="M0 0 C3.5625 0.3125 3.5625 0.3125 5.5 1.375 C7.19585287 4.46743758 6.99310657 6.86764741 6.5625 10.3125 C5 12.3125 5 12.3125 2.5625 13.3125 C-1.0625 13.1875 -1.0625 13.1875 -4.4375 12.3125 C-6.4375 9.3125 -6.4375 9.3125 -6.1875 5.75 C-5.19120735 1.18365869 -4.69283396 0.42662127 0 0 Z " fill="#F8981C" transform="translate(294.4375,353.6875)"/>
<path d="M0 0 C3.375 0.9375 3.375 0.9375 5.375 3.9375 C5.69662076 7.0250593 5.86224515 9.07765561 4.3125 11.8125 C1.2680714 13.58023274 -1.1881012 13.30573916 -4.625 12.9375 C-6.5625 11.8125 -6.5625 11.8125 -7.625 9.9375 C-8.16352618 6.32168138 -8.04736225 4.59638511 -6.0625 1.5 C-3.625 -0.0625 -3.625 -0.0625 0 0 Z " fill="#F8981B" transform="translate(492.625,348.0625)"/>
<path d="M0 0 C2 2 2 2 2.4375 5.9375 C2.34864908 9.18944363 2.28016798 9.71983202 -0.125 12.125 C-3.8458289 13.25742619 -5.54231359 12.69042446 -9 11 C-11 8 -11 8 -10.875 5 C-10 2 -10 2 -8.3125 0.0625 C-5.16096578 -1.38550221 -3.29050737 -0.929926 0 0 Z " fill="#F8991B" transform="translate(316,296)"/>
<path d="M0 0 C3.4375 0.8125 3.4375 0.8125 5.4375 3.8125 C5.25 7.375 5.25 7.375 4.4375 10.8125 C1.4375 12.8125 1.4375 12.8125 -2.125 12.625 C-5.5625 11.8125 -5.5625 11.8125 -7.5625 8.8125 C-7.375 5.25 -7.375 5.25 -6.5625 1.8125 C-3.5625 -0.1875 -3.5625 -0.1875 0 0 Z " fill="#F89C1A" transform="translate(489.5625,441.1875)"/>
<path d="M0 0 C3.4375 0.8125 3.4375 0.8125 5.4375 3.8125 C5.25 7.375 5.25 7.375 4.4375 10.8125 C1.4375 12.8125 1.4375 12.8125 -2.125 12.625 C-5.5625 11.8125 -5.5625 11.8125 -7.5625 8.8125 C-7.375 5.25 -7.375 5.25 -6.5625 1.8125 C-3.5625 -0.1875 -3.5625 -0.1875 0 0 Z " fill="#F89B1A" transform="translate(298.5625,261.1875)"/>
<path d="M0 0 C3.96691176 1.42401961 3.96691176 1.42401961 5.4375 3.875 C5.3125 7.4375 5.3125 7.4375 4.4375 10.875 C1.4375 12.875 1.4375 12.875 -1.5625 12.75 C-4.5625 11.875 -4.5625 11.875 -6.5 10.125 C-7.5625 7.875 -7.5625 7.875 -7.5 5.3125 C-6.01477618 1.45091806 -4.2196729 -0.2058377 0 0 Z " fill="#F8971B" transform="translate(443.5625,299.125)"/>
<path d="M0 0 C3 0.875 3 0.875 4.9375 2.625 C6 4.875 6 4.875 5.9375 7.4375 C4.78452423 10.43523701 3.8687479 11.44062605 1 12.875 C-2.16087718 12.79790543 -3.52270469 12.30456578 -5.875 10.1875 C-7.41959084 7.01250771 -7.0140792 5.20697451 -6 1.875 C-3 -0.125 -3 -0.125 0 0 Z " fill="#F8991A" transform="translate(323,364.125)"/>
<path d="M0 0 C0.75 3.25 0.75 3.25 1 7 C-0.5625 9.5 -0.5625 9.5 -3 11 C-6.6985004 10.85205998 -8.35805573 10.64194427 -11 8 C-11.4375 4.5625 -11.4375 4.5625 -11 1 C-7.16208857 -2.72503168 -4.66089361 -2.05946462 0 0 Z " fill="#F8981B" transform="translate(469,340)"/>
<path d="M0 0 C2.99773701 1.15297577 4.00312605 2.0687521 5.4375 4.9375 C5.35946617 8.13688696 4.87495759 9.46879544 2.6875 11.8125 C0.4375 12.9375 0.4375 12.9375 -2.125 12.875 C-5.12273701 11.72202423 -6.12812605 10.8062479 -7.5625 7.9375 C-7.48446617 4.73811304 -6.99995759 3.40620456 -4.8125 1.0625 C-2.5625 -0.0625 -2.5625 -0.0625 0 0 Z " fill="#F8971C" transform="translate(344.5625,403.0625)"/>
<path d="M0 0 C1 1 1 1 1.25 4.4375 C1.1675 5.613125 1.085 6.78875 1 8 C-2 10 -2 10 -4.5625 9.75 C-7 9 -7 9 -9 7 C-8.75 3.4375 -8.75 3.4375 -8 0 C-5.11795733 -1.44102133 -3.08226581 -0.65580124 0 0 Z " fill="#F89A1A" transform="translate(460,319)"/>
<path d="M0 0 C0.33 0.33 0.66 0.66 1 1 C0.71269945 3.33944736 0.38063221 5.6739143 0 8 C-2.8125 8.625 -2.8125 8.625 -6 9 C-6.99 8.34 -7.98 7.68 -9 7 C-9.25660094 3.92078868 -9.39431504 1.78863007 -8 -1 C-4.36442231 -2.21185923 -3.36216382 -1.59260392 0 0 Z " fill="#F8991C" transform="translate(334,388)"/>
<path d="M0 0 C2.375 1.0625 2.375 1.0625 3.8125 3.375 C4.375 6.0625 4.375 6.0625 3.5 8.375 C2.943125 9.2103125 2.943125 9.2103125 2.375 10.0625 C0.065 10.0625 -2.245 10.0625 -4.625 10.0625 C-5.285 8.0825 -5.945 6.1025 -6.625 4.0625 C-3.36672185 0.08016004 -3.36672185 0.08016004 0 0 Z " fill="#F8991B" transform="translate(488.625,379.9375)"/>
<path d="M0 0 C3.625 0.375 3.625 0.375 7 1 C7.92054342 4.01268757 8.27861489 5.42729162 6.875 8.3125 C5 10 5 10 2.4375 10.375 C0 10 0 10 -2 8 C-2.25 5 -2.25 5 -2 2 C-1.34 1.34 -0.68 0.68 0 0 Z " fill="#F89A1B" transform="translate(296,325)"/>
</svg>
