<?xml version="1.0" encoding="UTF-8"?>
<svg version="1.1" xmlns="http://www.w3.org/2000/svg" width="2400" height="2400">
<path d="M0 0 C722.7 0 1445.4 0 2190 0 C2190 258.06 2190 516.12 2190 782 C1467.3 782 744.6 782 0 782 C0 523.94 0 265.88 0 0 Z " fill="#CF4037" transform="translate(105,809)"/>
<path d="M0 0 C2.21229489 -0.00363103 4.42455084 -0.01092672 6.63683319 -0.01909256 C25.02256415 -0.0787134 43.24049518 0.46227863 61.55535126 2.24631882 C62.86436401 2.37337708 62.86436401 2.37337708 64.19982147 2.50300217 C75.23983215 3.59155473 86.19669277 5.14002796 97.15300751 6.87278366 C99.37879382 7.21886629 101.60654505 7.5424296 103.83660126 7.85960007 C116.84543021 9.78230287 129.48517605 13.11732564 142.2040329 16.41062546 C145.46087987 17.22276119 148.72769755 17.94045709 152.00847626 18.64866257 C159.21980498 20.29737048 166.06889353 22.72677462 172.99285126 25.30881882 C173.96738251 25.67055191 173.96738251 25.67055191 174.96160126 26.03959274 C225.08109292 44.69215624 271.50550455 74.24764636 294.55535126 124.24631882 C303.66929671 145.312199 303.66929671 145.312199 301.55535126 154.24631882 C290.74031458 157.07791267 279.8892047 159.47602609 268.91490936 161.6036129 C266.21565855 162.12699127 263.51749626 162.65570998 260.81951141 163.18557358 C255.06568789 164.31459757 249.31058962 165.43703302 243.55535126 166.55881882 C212.44718053 172.60637154 212.44718053 172.60637154 181.43035126 179.10178757 C180.15724091 179.37702759 178.88413055 179.65226761 177.5724411 179.93584824 C171.54132139 181.26680213 165.64158243 182.76892901 159.74529266 184.60412216 C156.63337 185.51668828 153.50377246 186.07661396 150.30535126 186.59788132 C149.03820282 186.80928757 147.77105438 187.02069382 146.46550751 187.23850632 C145.17515594 187.44733444 143.88480438 187.65616257 142.55535126 187.87131882 C139.95047495 188.29691495 137.34658223 188.7277614 134.74285126 189.16038132 C133.60203094 189.34552292 132.46121063 189.53066452 131.28582001 189.72141647 C128.60386155 190.10943023 128.60386155 190.10943023 126.55535126 191.24631882 C124.70550729 191.5452536 122.85011355 191.81009909 120.99285126 192.05881882 C115.57341937 192.85614674 110.30803958 193.95012021 104.99285126 195.24631882 C86.75923036 199.66467696 86.75923036 199.66467696 77.55535126 199.24631882 C76.84701792 197.82965215 76.13868459 196.41298548 75.43035126 194.99631882 C74.96886688 194.08366257 74.50738251 193.17100632 74.03191376 192.23069382 C73.05559215 190.25738772 72.1120568 188.26748365 71.20378876 186.26194382 C67.70224101 178.71112019 63.4583361 173.08987764 57.55535126 167.24631882 C56.55761688 166.198311 56.55761688 166.198311 55.53972626 165.12913132 C43.32965114 153.1520729 24.09780756 146.60090275 7.65447235 143.64963913 C5.40349316 143.21714115 3.18178506 142.69777351 0.94988251 142.17600632 C-13.23141572 139.10985167 -27.24329646 138.8382115 -41.69464874 138.80881882 C-42.6682132 138.80282669 -43.64177765 138.79683456 -44.64484406 138.79066086 C-62.02830365 138.71953407 -79.03479599 140.24061054 -95.81964874 144.99631882 C-96.73391632 145.25308395 -97.6481839 145.50984909 -98.59015656 145.77439499 C-113.03141033 150.00871322 -126.43340452 156.45564887 -134.06964874 170.05881882 C-137.09038335 176.79540026 -138.1277569 183.6009403 -135.56574249 190.67210007 C-134.55489498 192.78437651 -134.55489498 192.78437651 -133.41730499 194.62522507 C-132.44464874 196.24631882 -132.44464874 196.24631882 -131.44464874 199.24631882 C-129.67163329 200.31372422 -129.67163329 200.31372422 -127.44464874 201.24631882 C-126.61835968 201.72327194 -125.79207062 202.20022507 -124.94074249 202.69163132 C-89.83475184 221.97078327 -43.79954999 224.12232002 -4.87866974 229.88499069 C19.38472146 233.48686827 43.49456463 237.47662115 67.4865036 242.600811 C70.64761828 243.26572645 73.81319762 243.90380694 76.98113251 244.53538132 C94.94948459 248.13841384 94.94948459 248.13841384 103.39910126 251.24631882 C106.74198503 252.30545031 110.05627221 253.00081189 113.48943329 253.69480515 C136.3480828 258.3797706 159.72511909 266.70412713 180.55535126 277.24631882 C181.2852829 277.6140239 182.01521454 277.98172897 182.76726532 278.36057663 C219.26690988 297.03734073 244.2668126 325.02332462 256.87859344 363.9096489 C267.18457072 399.49352643 255.41694235 440.83567847 238.55535126 472.24631882 C237.96367157 473.38069382 237.37199188 474.51506882 236.76238251 475.68381882 C227.72317111 492.3360121 215.79507276 506.79125244 202.55535126 520.24631882 C201.57541037 521.2638029 200.59620644 522.28199742 199.61785126 523.30100632 C193.62472169 529.44736931 187.35259674 535.00603402 180.55535126 540.24631882 C180.01458954 540.66349167 179.47382782 541.08066452 178.91667938 541.51047897 C163.10859352 553.61775019 146.16941022 563.71186642 128.64519501 573.11545944 C126.09344328 574.49626715 123.57729536 575.93696311 121.05535126 577.37131882 C106.63215371 585.14838613 91.35834303 591.03250839 75.91912079 596.43162155 C73.05327323 597.43454604 70.19278046 598.45170218 67.33269501 599.47092819 C47.17991772 606.60896799 26.27805696 613.89622627 5.19207001 617.72678757 C2.41673257 618.27363183 -0.32348065 618.93191335 -3.07086945 619.60374069 C-20.3298543 623.80986184 -37.88707725 626.60903781 -55.44464874 629.24631882 C-56.4570462 629.40100632 -57.46944366 629.55569382 -58.51251984 629.71506882 C-76.77437721 632.49245512 -95.04487941 634.63618949 -113.44464874 636.24631882 C-114.44615967 636.3359137 -115.44767059 636.42550858 -116.47953033 636.51781845 C-126.82983459 637.3543675 -137.14407419 637.42819971 -147.52277374 637.44944382 C-148.4714608 637.45227119 -149.42014786 637.45509857 -150.39758301 637.45801163 C-155.43589799 637.47292194 -160.47418503 637.48219819 -165.51251984 637.48655319 C-169.5982244 637.49090303 -173.68371364 637.50466991 -177.76935577 637.52756882 C-210.64462557 637.70805006 -243.26986978 636.81215132 -275.69464874 630.80881882 C-282.69977684 629.53061251 -289.71991912 628.39213005 -296.76203156 627.33640671 C-301.35071815 626.6333337 -305.86088587 625.75081748 -310.38556671 624.71287155 C-312.09782649 624.3249028 -313.81924774 623.97763932 -315.54230499 623.64085007 C-363.59335179 614.20790412 -418.54300454 594.46800385 -453.17902374 558.54710007 C-455.21082154 556.48377438 -457.29233861 554.60798009 -459.50714874 552.74631882 C-484.17709173 531.37554984 -499.81442321 497.65356657 -505.25714874 465.80881882 C-505.38114044 465.08783005 -505.50513214 464.36684128 -505.63288116 463.62400436 C-506.43898788 458.45648605 -506.54251917 453.47466033 -506.44464874 448.24631882 C-505.31027374 448.10194382 -504.17589874 447.95756882 -503.00714874 447.80881882 C-499.63687673 447.63460404 -499.63687673 447.63460404 -498.44464874 446.24631882 C-495.76576427 445.90744681 -493.10122182 445.62580466 -490.41339874 445.37913132 C-488.71677415 445.21386948 -487.02015993 445.04850107 -485.32355499 444.88303757 C-482.66084017 444.62863806 -479.99795213 444.37631508 -477.33478546 444.12668991 C-467.60607185 443.20847011 -458.01345245 442.10239363 -448.40561676 440.3047905 C-441.90032578 439.10148405 -435.40542806 438.44233206 -428.81964874 437.87131882 C-416.76239129 436.74733061 -404.76350412 435.32151234 -392.75714874 433.74631882 C-380.25125366 432.10636331 -367.7500449 430.54005882 -355.20368195 429.23460007 C-347.90978036 428.46307755 -340.68840014 427.39105121 -333.44464874 426.24631882 C-319.41845226 424.11809932 -305.41697431 422.10553741 -291.27838898 420.89915085 C-286.95330914 420.52156791 -282.76431275 420.00977044 -278.50714874 419.12131882 C-272.19847419 417.81888278 -265.85614586 418.07784152 -259.44464874 418.24631882 C-259.11593781 419.62690475 -259.11593781 419.62690475 -258.78058624 421.03538132 C-255.53785552 433.97994056 -251.64278106 446.20532975 -242.44464874 456.24631882 C-241.71503937 457.05585007 -240.98542999 457.86538132 -240.23371124 458.69944382 C-226.01900927 473.69618441 -208.273745 482.36776894 -188.44464874 487.24631882 C-187.28578156 487.53249069 -186.12691437 487.81866257 -184.93292999 488.11350632 C-147.65057962 496.07035557 -103.67247175 497.50000119 -66.44464874 489.24631882 C-65.08654083 488.94951218 -65.08654083 488.94951218 -63.7009964 488.64670944 C-46.57311349 484.78144319 -29.46417331 479.42123823 -18.81574249 464.45725632 C-14.63277815 457.71207735 -13.28543345 451.17314341 -14.44464874 443.24631882 C-17.55739223 433.75590978 -23.2714967 427.75983145 -31.9365921 423.16770554 C-42.7214828 417.71739997 -53.58053868 413.66647439 -65.44074249 411.36350632 C-66.30378494 411.19360184 -67.16682739 411.02369736 -68.05602264 410.84864426 C-77.60943504 408.98752958 -87.19248801 407.29532601 -96.78278351 405.63645554 C-99.77301307 405.11857124 -102.76216761 404.59477378 -105.75128937 404.07053757 C-115.24336319 402.41634325 -124.71495408 400.88851062 -134.27521515 399.6830864 C-137.94476582 399.17739959 -141.54145109 398.46783987 -145.16388702 397.70188522 C-149.04379099 396.92690119 -152.96114261 396.45072105 -156.88214874 395.93381882 C-183.33038555 392.25780034 -209.38814825 386.63567668 -235.03522491 379.20847702 C-239.25229327 378.01839708 -243.49557611 376.963874 -247.74958038 375.91526413 C-298.37653575 363.33492801 -359.78937875 341.95104995 -389.31134796 295.15891647 C-405.7000729 267.50073656 -408.5962145 235.61327984 -400.92121124 204.62522507 C-393.77441532 177.92596309 -380.70115828 154.69546622 -363.79962921 132.99192429 C-362.64652871 131.50639842 -361.51403605 130.00491327 -360.38605499 128.50022507 C-349.62054147 114.61552855 -336.36040223 101.93345402 -322.44464874 91.24631882 C-321.35686053 90.35039353 -320.27245408 89.45035272 -319.19074249 88.54710007 C-303.52574627 75.55188156 -286.44923865 64.68931189 -268.44464874 55.24631882 C-267.64607452 54.81786667 -266.84750031 54.38941452 -266.02472687 53.94797897 C-235.38969114 37.56026763 -201.97636985 26.92122553 -168.44464874 18.24631882 C-167.75129425 18.06117722 -167.05793976 17.87603561 -166.34357452 17.68528366 C-152.45837998 13.98972303 -138.22837421 12.0009765 -124.04718781 9.80588913 C-120.94625063 9.32423096 -117.84730358 8.83258425 -114.74933624 8.33225632 C-101.3299745 6.16609729 -87.98013101 4.18805197 -74.39386749 3.49241257 C-71.51443297 3.43591464 -71.51443297 3.43591464 -69.44464874 2.24631882 C-64.67154526 1.68895296 -59.86638154 1.45827096 -55.06964874 1.18381882 C-54.29954468 1.13962814 -53.52944061 1.09543747 -52.73600006 1.04990768 C-35.16858093 0.09112753 -17.5883491 0.02098452 0 0 Z " fill="#FEFEFE" transform="translate(648.4446487426758,875.7536811828613)"/>
<path d="M0 0 C79.86 0 159.72 0 242 0 C240.76138317 8.05100939 239.50268696 15.73861445 237.5390625 23.5859375 C237.3072226 24.5307901 237.07538269 25.4756427 236.83651733 26.4491272 C236.10458288 29.42573848 235.36478383 32.40033115 234.625 35.375 C234.13753823 37.35665218 233.65055611 39.33842241 233.1640625 41.3203125 C229.58285272 55.86769513 225.78097006 70.33769999 221.6875 84.75 C218.80023041 94.97072976 216.08554972 105.22895329 213.48510742 115.52636719 C212.11817218 120.89184573 210.65720986 126.19950997 209.00390625 131.484375 C206.98575802 137.93742451 205.27736792 144.44508763 203.625 151 C201.59582404 159.04775126 199.42756459 167.03318326 197.1171875 175.00390625 C194.23279861 184.98867222 191.66717494 195.03621377 189.18988037 205.12869263 C188.00312161 209.96051117 186.80294619 214.78898754 185.6015625 219.6171875 C185.37042755 220.54630447 185.1392926 221.47542145 184.90115356 222.43269348 C183.10609833 229.6253976 181.20869292 236.78392768 179.21582031 243.92431641 C176.7794582 252.69064963 174.5171901 261.50123618 172.25 270.3125 C172.05291443 271.07619904 171.85582886 271.83989807 171.652771 272.6267395 C170.41814979 277.41365974 169.20339438 282.20513478 168 287 C167.77038574 287.88155762 167.54077148 288.76311523 167.30419922 289.67138672 C165.91823725 295.29078748 165.6334091 300.72295096 165.625 306.5 C165.60050781 307.38558594 165.57601563 308.27117187 165.55078125 309.18359375 C165.51703107 316.84488436 167.79066292 322.31777153 171.6875 328.8125 C180.85987677 337.48907262 196.49102375 338.53264224 208.47265625 338.22265625 C234.22178384 336.59729604 260.16181559 328.60776225 277.859375 308.90625 C290.11852403 294.50217087 296.63180988 276.58314969 300.9375 258.375 C302.62511378 251.42959546 304.35312353 244.52497773 306.4375 237.6875 C310.01511695 225.8995603 312.96254503 213.93588746 316 202 C316.19980469 201.21737793 316.39960937 200.43475586 316.60546875 199.62841797 C318.54453001 192.01978941 320.38738986 184.39032031 322.20898438 176.75292969 C324.37385638 167.67917604 326.56441289 158.62617233 329.015625 149.625 C329.72766655 147.00287872 330.42615076 144.37959158 331.109375 141.75 C332.85669398 135.02881976 334.61297502 128.31374915 336.5234375 121.63671875 C340.82681835 106.59162543 344.69763537 91.46372005 348.44799805 76.27270508 C350.22690838 69.07135975 352.01317423 61.87703787 353.9453125 54.71484375 C355.62301917 48.48731743 357.20616586 42.23958717 358.76171875 35.98046875 C359.00035141 35.02041931 359.23898407 34.06036987 359.48484802 33.07122803 C360.47327279 29.08985233 361.45988119 25.10803128 362.44458008 21.12573242 C363.17326617 18.18097081 363.90480871 15.23693044 364.63671875 12.29296875 C364.85962082 11.38790085 365.08252289 10.48283295 365.31217957 9.55033875 C365.51942154 8.7179921 365.72666351 7.88564545 365.94018555 7.02807617 C366.12131393 6.29610519 366.30244232 5.56413422 366.48905945 4.8099823 C367 3 367 3 368 1 C448.19 1 528.38 1 611 1 C608.69913439 14.80519365 608.69913439 14.80519365 606.875 21.4375 C606.66472168 22.22133057 606.45444336 23.00516113 606.23779297 23.81274414 C604.89879245 28.77840154 603.51972385 33.73285567 602.140625 38.6875 C601.46846186 41.10408654 600.79659453 43.52075537 600.125 45.9375 C599.61380615 47.77646851 599.61380615 47.77646851 599.09228516 49.65258789 C595.74873659 61.76095401 592.72629195 73.94258914 589.71240234 86.13623047 C587.69398316 94.25002657 585.47381264 102.30653459 583.2265625 110.359375 C579.10764001 125.1474439 575.20421349 139.95938216 571.5234375 154.86328125 C570.06620064 160.76089895 568.5330378 166.63218394 566.9453125 172.49609375 C566.26234874 175.02757514 565.58997811 177.56028727 564.9296875 180.09765625 C562.74043744 188.50459874 560.48271448 196.88831187 558.15039062 205.25683594 C554.09137614 219.82676506 550.34138431 234.45403891 546.71240234 249.13623047 C544.69398316 257.25002657 542.47381264 265.30653459 540.2265625 273.359375 C535.80587903 289.23084914 531.66582326 305.1414188 527.71240234 321.13623047 C525.69398316 329.25002657 523.47381264 337.30653459 521.2265625 345.359375 C517.10764001 360.1474439 513.20421349 374.95938216 509.5234375 389.86328125 C508.06748832 395.75568759 506.53605994 401.62187786 504.94921875 407.48046875 C504.25247735 410.06385971 503.5674847 412.64871015 502.89453125 415.23828125 C500.43298677 424.70420413 497.87708642 434.14108523 495.25 443.5625 C494.94408936 444.66384277 494.63817871 445.76518555 494.32299805 446.89990234 C493.89241089 448.43638428 493.89241089 448.43638428 493.453125 450.00390625 C493.19692383 450.91986572 492.94072266 451.8358252 492.67675781 452.77954102 C492 455 492 455 491 457 C415.76 457 340.52 457 263 457 C264.29298179 449.24210924 265.65685284 442.04263732 267.8125 434.5625 C272.49342302 417.8535277 276.29580353 400.94825091 280 384 C279.2678125 384.7321875 278.535625 385.464375 277.78125 386.21875 C272.1875 391.8125 266.59375 397.40625 261 403 C260.50516113 403.51369141 260.01032227 404.02738281 259.50048828 404.55664062 C255.42803095 408.73679735 251.18760668 412.40442993 246.5 415.875 C245.807854 416.3896582 245.11570801 416.90431641 244.40258789 417.43457031 C238.11054008 422.0415418 231.60087867 426.14707483 224.81054688 429.97509766 C223.07586264 430.95705618 221.3577699 431.96815193 219.640625 432.98046875 C207.70663234 439.74396459 194.88037079 444.36842235 182 449 C181.13294434 449.31243652 180.26588867 449.62487305 179.37255859 449.94677734 C165.87678928 454.7208472 152.05832513 457.43423032 138 460 C136.9982373 460.18836426 135.99647461 460.37672852 134.96435547 460.57080078 C132.04061298 461.12053555 129.11474882 461.65677924 126.1875 462.1875 C124.93888184 462.41977295 124.93888184 462.41977295 123.66503906 462.65673828 C104.59106196 466.0006881 85.51018021 466.40526908 66.1875 466.375 C64.23052185 466.37418427 64.23052185 466.37418427 62.23400879 466.37335205 C19.24936734 466.29093526 -31.78375556 461.73742023 -65 431 C-66.08861328 430.01386719 -66.08861328 430.01386719 -67.19921875 429.0078125 C-75.64375943 420.99756248 -81.18823775 411.51839493 -86 401 C-86.47953125 399.96939453 -86.47953125 399.96939453 -86.96875 398.91796875 C-90.81026118 389.79437971 -91.18044627 379.8296988 -91.25 370.0625 C-91.26389771 368.88445801 -91.26389771 368.88445801 -91.27807617 367.68261719 C-91.20853984 354.29346457 -88.1214168 341.25163317 -85.22363281 328.25073242 C-84.62701068 325.5715292 -84.039474 322.89045249 -83.453125 320.20898438 C-80.47730072 306.68809328 -76.96163955 293.37393861 -73.21044922 280.046875 C-69.65551257 267.38139657 -66.4136455 254.67153474 -63.36935425 241.87445068 C-61.16148652 232.6049736 -58.78169837 223.41710544 -56.08203125 214.27685547 C-54.06296463 207.38900939 -52.3807222 200.44403784 -50.75317383 193.45458984 C-49.2948707 187.19630877 -47.70968083 180.99141365 -46.02734375 174.7890625 C-44.85042764 170.44834529 -43.70441536 166.10002788 -42.5625 161.75 C-42.13673618 160.13020375 -41.71095483 158.51041211 -41.28515625 156.890625 C-41.07262207 156.08173828 -40.86008789 155.27285156 -40.64111328 154.43945312 C-39.80258411 151.24882727 -38.96300342 148.05847868 -38.12329102 144.86816406 C-37.70571413 143.28160089 -37.2882346 141.6950121 -36.87084961 140.10839844 C-35.85551611 136.24894822 -34.83919126 132.38976591 -33.8203125 128.53125 C-31.07075717 118.11212055 -28.35787712 107.68373677 -25.65673828 97.25195312 C-23.77857843 89.99935101 -21.89337813 82.74864335 -20 75.5 C-17.84612066 67.25207807 -15.70139994 59.00181911 -13.5625 50.75 C-13.2727832 49.63310791 -12.98306641 48.51621582 -12.68457031 47.36547852 C-11.15262092 41.45731679 -9.62562728 35.54792585 -8.10546875 29.63671875 C-7.79472412 28.43112305 -7.48397949 27.22552734 -7.16381836 25.98339844 C-6.57316938 23.69149736 -5.98403404 21.39920543 -5.39672852 19.10644531 C-4.99151978 17.53588379 -4.99151978 17.53588379 -4.578125 15.93359375 C-4.34512695 15.02665771 -4.11212891 14.11972168 -3.87207031 13.18530273 C-2.6624829 8.76719327 -1.31625385 4.38751282 0 0 Z " fill="#FEFEFE" transform="translate(1002,1048)"/>
<path d="M0 0 C3.96264007 0.59008386 7.80971636 0.63453385 11.81103516 0.6965332 C34.9533361 1.11997084 59.15271754 3.95897886 81.41015625 10.5078125 C82.19503418 10.73130371 82.97991211 10.95479492 83.78857422 11.18505859 C103.71033964 16.9602006 121.8009631 25.73881549 137.41015625 39.5078125 C138.12300781 40.12140625 138.83585937 40.735 139.5703125 41.3671875 C151.75144105 52.61130616 159.91127402 71.88359438 161.3203125 88.2421875 C162.534019 118.84869915 157.02714108 148.98057348 149.41015625 178.5078125 C149.12374268 179.62470459 149.12374268 179.62470459 148.83154297 180.76416016 C147.38196885 186.38654406 145.84213384 191.98242083 144.265625 197.5703125 C143.85507214 199.02853423 143.44492654 200.48687067 143.03515625 201.9453125 C142.82826172 202.68160889 142.62136719 203.41790527 142.40820312 204.17651367 C140.31193098 211.71815538 138.44491976 219.31408441 136.56860352 226.9128418 C135.29231293 232.05777292 133.97494719 237.17313548 132.47265625 242.2578125 C130.04932603 250.50119105 128.04954876 258.85210836 125.98120117 267.19018555 C124.174583 274.4677201 122.32465578 281.72637595 120.3671875 288.96484375 C119.21663468 293.22423726 118.09348142 297.4905176 116.97265625 301.7578125 C116.76237793 302.55775635 116.55209961 303.3577002 116.33544922 304.18188477 C115.90730668 305.81068791 115.47924731 307.43951293 115.05126953 309.06835938 C114.00526144 313.04844806 112.95764034 317.02811206 111.91015625 321.0078125 C111.49348157 322.59114372 111.07681491 324.17447706 110.66015625 325.7578125 C106.49348958 341.59114583 102.32682292 357.42447917 98.16015625 373.2578125 C97.95390625 374.04164307 97.74765625 374.82547363 97.53515625 375.63305664 C97.11864983 377.21561835 96.70198328 378.79813793 96.28515625 380.38061523 C95.23971761 384.35042346 94.1971136 388.32093604 93.16015625 392.29296875 C91.15923429 399.9455765 89.12025666 407.58249239 86.97265625 415.1953125 C84.66796523 423.37563897 82.61701452 431.61242143 80.58154297 439.86328125 C78.92206687 446.55740243 77.14241196 453.1907522 75.171875 459.80078125 C74.45806842 462.33754001 73.92697585 464.92371452 73.41015625 467.5078125 C-6.11984375 467.5078125 -85.64984375 467.5078125 -167.58984375 467.5078125 C-166.97282696 463.80571176 -166.36941415 460.39366058 -165.42578125 456.8046875 C-165.19439453 455.92039062 -164.96300781 455.03609375 -164.72460938 454.125 C-164.47388672 453.17882813 -164.22316406 452.23265625 -163.96484375 451.2578125 C-163.70123047 450.25492188 -163.43761719 449.25203125 -163.16601562 448.21875 C-160.88001994 439.5458858 -158.54375068 430.88658744 -156.20336914 422.22827148 C-154.23447479 414.93459845 -152.30317829 407.63200746 -150.40234375 400.3203125 C-150.15427979 399.36616455 -149.90621582 398.4120166 -149.65063477 397.42895508 C-149.41143311 396.50880615 -149.17223145 395.58865723 -148.92578125 394.640625 C-146.81485729 386.52145768 -144.69932351 378.40309682 -142.41015625 370.33203125 C-139.87405922 361.37367362 -137.57730857 352.39362279 -135.46508789 343.32568359 C-133.96439227 336.93732605 -132.26607023 330.62782142 -130.46484375 324.31860352 C-128.61770233 317.7778469 -127.04134809 311.18383185 -125.55273438 304.55273438 C-124.30737217 299.12994665 -122.8118327 293.80517525 -121.21484375 288.4765625 C-118.55287066 279.57481659 -116.2922187 270.59498687 -114.08984375 261.5703125 C-111.93891872 252.77738424 -109.76135492 244.00394743 -107.296875 235.29296875 C-104.09188284 223.91716347 -101.17914737 212.46514308 -98.3124752 201.00021076 C-97.46046515 197.59328744 -96.60116019 194.18859805 -95.72387695 190.78808594 C-87.78471883 162.70776056 -87.78471883 162.70776056 -94.40234375 135.1953125 C-101.15143597 126.90357064 -109.64690614 124.13808897 -120.15234375 122.7578125 C-121.62984429 122.64886012 -123.10949502 122.56651598 -124.58984375 122.5078125 C-125.42 122.46785156 -126.25015625 122.42789062 -127.10546875 122.38671875 C-153.20981157 121.7669229 -177.90847311 127.64507391 -197.24584961 145.95043945 C-208.6490994 157.28632977 -214.65989909 174.40136589 -219.52734375 189.4453125 C-219.74784393 190.12235229 -219.96834412 190.79939209 -220.19552612 191.49694824 C-226.3020321 210.42693007 -230.86373803 229.82012058 -235.57983398 249.13256836 C-236.05883294 251.09346298 -236.53784114 253.05435531 -237.01696777 255.01521873 C-237.34040136 256.33897742 -237.66365215 257.66278077 -237.98672485 258.98662758 C-240.68785709 270.03879594 -243.55267595 281.04289612 -246.47265625 292.0390625 C-249.95012797 305.14088539 -253.31234877 318.26572285 -256.546875 331.4296875 C-256.74816324 332.24875328 -256.94945148 333.06781906 -257.15683937 333.91170502 C-258.57632974 339.69268558 -259.9898019 345.47513093 -261.40234375 351.2578125 C-262.83641032 357.12649112 -264.27276993 362.99459659 -265.71338463 368.86167145 C-266.42697239 371.77295707 -267.13579771 374.68539334 -267.84320545 377.59818649 C-270.2438491 387.30829721 -272.90745533 396.8512142 -275.58984375 406.5078125 C-280.53984375 426.3078125 -285.48984375 446.1078125 -290.58984375 466.5078125 C-371.10984375 466.5078125 -451.62984375 466.5078125 -534.58984375 466.5078125 C-526.74415835 431.76263431 -526.74415835 431.76263431 -522.37109375 415.44335938 C-520.91508025 409.97238864 -519.50638027 404.48910886 -518.08984375 399.0078125 C-517.4975603 396.72391567 -516.90511384 394.44006112 -516.3125 392.15625 C-515.21193526 387.91253134 -514.11576164 383.66772158 -513.0234375 379.421875 C-510.46203321 369.49570735 -507.78078255 359.62243006 -504.91210938 349.78076172 C-502.41716444 341.1116381 -500.28217923 332.35851787 -498.12744141 323.59985352 C-496.39773762 316.61156273 -494.53831797 309.69875409 -492.43334961 302.81542969 C-490.2962428 295.73424375 -488.58200029 288.5519596 -486.82006836 281.37011719 C-485.21104753 274.85974756 -483.43758603 268.43362423 -481.484375 262.01953125 C-479.64693629 255.89863668 -478.11230892 249.71359691 -476.58984375 243.5078125 C-474.90123171 236.62478983 -473.15430525 229.78807012 -471.08984375 223.0078125 C-469.03331717 216.24698136 -467.27970481 209.43158788 -465.58984375 202.5703125 C-463.68709024 194.84492859 -461.71007754 187.15562941 -459.55029297 179.49829102 C-457.72244593 173.01453934 -455.96207836 166.51372866 -454.21484375 160.0078125 C-453.91843994 158.90453613 -453.62203613 157.80125977 -453.31665039 156.66455078 C-452.70993084 154.40532522 -452.10340566 152.14604745 -451.49707031 149.88671875 C-450.03095962 144.42628496 -448.56022237 138.96709825 -447.08984375 133.5078125 C-446.50648706 131.34115212 -445.92315375 129.17448545 -445.33984375 127.0078125 C-444.17317708 122.67447917 -443.00651042 118.34114583 -441.83984375 114.0078125 C-441.55101318 112.93499023 -441.26218262 111.86216797 -440.96459961 110.75683594 C-440.38212679 108.5934119 -439.79960737 106.43000041 -439.21704102 104.26660156 C-437.74515661 98.80042533 -436.27412032 93.33402332 -434.8046875 87.8671875 C-433.06958224 81.41320456 -431.33142676 74.9600505 -429.58984375 68.5078125 C-429.32816406 67.53827637 -429.06648438 66.56874023 -428.796875 65.56982422 C-425.87146907 54.74619353 -422.89308409 43.94088056 -419.76928711 33.17260742 C-417.59465749 25.64290408 -415.61112298 18.08760961 -413.58984375 10.5078125 C-339.33984375 10.5078125 -265.08984375 10.5078125 -188.58984375 10.5078125 C-191.04630687 24.01835968 -193.5624128 37.27498833 -196.83984375 50.5703125 C-197.55999846 53.49713595 -198.27234661 56.42571415 -198.98046875 59.35546875 C-199.29016602 60.61367432 -199.59986328 61.87187988 -199.91894531 63.16821289 C-200.50269618 66.07400917 -200.73422448 68.56097378 -200.58984375 71.5078125 C-200.20876465 71.11102295 -199.82768555 70.7142334 -199.43505859 70.30541992 C-190.6872563 61.24790309 -181.80767605 52.8811827 -171.58984375 45.5078125 C-171.01862793 45.09225098 -170.44741211 44.67668945 -169.85888672 44.24853516 C-152.90910145 32.0600857 -134.26504536 23.31481148 -114.58984375 16.5078125 C-112.94242188 15.92966797 -112.94242188 15.92966797 -111.26171875 15.33984375 C-79.60305455 4.97036149 -33.7077985 -6.40600695 0 0 Z " fill="#FEFEFE" transform="translate(2074.58984375,1038.4921875)"/>
<path d="M0 0 C16.83 0 33.66 0 51 0 C47.24050633 16.29113924 47.24050633 16.29113924 45.5625 23.125 C45.37107422 23.92808594 45.17964844 24.73117187 44.98242188 25.55859375 C43.40148408 31.97443838 41.29318667 37.69373665 39 44 C52.53 44 66.06 44 80 44 C80.33 41.69 80.66 39.38 81 37 C81.45556139 35.16394468 81.95081283 33.33720789 82.48828125 31.5234375 C82.78283203 30.52183594 83.07738281 29.52023437 83.38085938 28.48828125 C83.68830078 27.46089844 83.99574219 26.43351563 84.3125 25.375 C84.60833984 24.37082031 84.90417969 23.36664062 85.20898438 22.33203125 C87.41531831 14.86957133 89.71130663 7.43825345 92 0 C108.5 0 125 0 142 0 C141.13197324 5.20816053 140.03517563 10.20370596 138.75 15.3125 C138.52747559 16.2005835 138.30495117 17.08866699 138.07568359 18.00366211 C136.535927 24.07208265 134.83433614 30.07212906 133.01879883 36.06274414 C130.63875643 44.01920107 128.61886941 52.07027248 126.58642578 60.12133789 C125.18799936 65.6138791 123.70547922 71.05154113 122.01171875 76.4609375 C119.89902862 83.20934266 118.11509291 90.02242174 116.375 96.875 C115.77943194 99.20593016 115.18310073 101.5366655 114.5859375 103.8671875 C114.19994385 105.38481689 114.19994385 105.38481689 113.80615234 106.93310547 C112.92055962 110.30221986 111.95700816 113.65047143 111 117 C94.5 117 78 117 61 117 C61.64667467 111.82660263 62.29368889 107.33837266 63.55859375 102.375 C63.86216797 101.17359375 64.16574219 99.9721875 64.47851562 98.734375 C64.79498047 97.50203125 65.11144531 96.2696875 65.4375 95 C65.75009766 93.76765625 66.06269531 92.5353125 66.38476562 91.265625 C66.96973375 88.96038065 67.55664815 86.65562856 68.14624023 84.3515625 C69.1093551 80.5707101 70.05372448 76.78510208 71 73 C57.8 73 44.6 73 31 73 C29.68 78.28 28.36 83.56 27 89 C25.82316394 93.05685679 24.62997529 97.09353069 23.375 101.125 C23.0759375 102.09953125 22.776875 103.0740625 22.46875 104.078125 C21.03324615 108.74033662 19.5430176 113.37094721 18 118 C1.5 118 -15 118 -32 118 C-30.25939777 105.81578441 -26.80393251 94.17420927 -23.21435547 82.42944336 C-21.45506424 76.63311778 -19.89395772 70.81883863 -18.46655273 64.93310547 C-16.6980084 57.66778336 -14.66691268 50.47926673 -12.64111328 43.28222656 C-11.79512902 40.270703 -10.95815411 37.25671654 -10.12207031 34.24243164 C-9.70929447 32.7544622 -9.29588893 31.26666729 -8.88183594 29.77905273 C-7.79380425 25.86942077 -6.71374135 21.95779311 -5.64453125 18.04296875 C-5.42152344 17.23021484 -5.19851563 16.41746094 -4.96875 15.58007812 C-4.54321275 14.02864022 -4.11989807 12.47659032 -3.69921875 10.92382812 C-2.66021086 7.14530276 -1.46160069 3.65400171 0 0 Z " fill="#FEFDFD" transform="translate(1354,876)"/>
<path d="M0 0 C41.91 0 83.82 0 127 0 C124.69 8.58 122.38 17.16 120 26 C94.59 26 69.18 26 43 26 C42.67 28.31 42.34 30.62 42 33 C41.01 36.63 40.02 40.26 39 44 C59.46 44 79.92 44 101 44 C98 57 98 57 94 69 C73.54 69 53.08 69 32 69 C30.68 74.94 29.36 80.88 28 87 C27.505 88.485 27.505 88.485 27 90 C51.75 90 76.5 90 102 90 C99.75 100.125 99.75 100.125 98.7109375 103.59765625 C98.49179688 104.33564453 98.27265625 105.07363281 98.046875 105.83398438 C97.82515625 106.56939453 97.6034375 107.30480469 97.375 108.0625 C97.14554688 108.83271484 96.91609375 109.60292969 96.6796875 110.39648438 C96.12256886 112.26515315 95.56169058 114.13270039 95 116 C65.75070126 116.98071485 36.51238603 117.08925418 7.25 117.0625 C6.30712379 117.06164398 5.36424759 117.06078796 4.39279938 117.05990601 C-7.40481892 117.04840923 -19.20241021 117.02818201 -31 117 C-29.07230176 105.07837811 -25.60697049 93.43630682 -22.34765625 81.8203125 C-20.89407304 76.63704228 -19.47628077 71.44424704 -18.0625 66.25 C-17.81129395 65.32751465 -17.56008789 64.4050293 -17.30126953 63.45458984 C-16.78942859 61.57457753 -16.27771037 59.69453181 -15.76611328 57.81445312 C-14.51251869 53.20915088 -13.2561383 48.60460894 -12 44 C-11.50389246 42.18099334 -11.00779875 40.36198292 -10.51171875 38.54296875 C-7.0078125 25.6953125 -3.50390625 12.84765625 0 0 Z " fill="#FEFDFD" transform="translate(1522,876)"/>
<path d="M0 0 C39.6 0 79.2 0 120 0 C113 25 113 25 111 28 C108.44604513 28.26711404 106.13725626 28.34849029 103.5859375 28.29296875 C102.85629791 28.28872391 102.12665833 28.28447906 101.37490845 28.28010559 C99.04123241 28.26329353 96.7084156 28.22563868 94.375 28.1875 C92.79428329 28.17245634 91.21355307 28.15876738 89.6328125 28.14648438 C85.75487656 28.11338201 81.87758402 28.06158404 78 28 C77.88100342 28.63848877 77.76200684 29.27697754 77.6394043 29.93481445 C76.63977364 35.13687489 75.45316057 40.14232877 73.8125 45.1875 C73.37012352 46.56739767 72.92878192 47.94762738 72.48828125 49.328125 C72.25061035 50.06998047 72.01293945 50.81183594 71.76806641 51.57617188 C70.30761588 56.18499349 68.90584272 60.81178717 67.5 65.4375 C67.19876221 66.4277417 66.89752441 67.4179834 66.5871582 68.43823242 C64.66468687 74.77221464 62.77934847 81.11599061 60.92504883 87.47021484 C58.03617091 97.33925931 55.00338559 107.16538444 52 117 C36.16 117 20.32 117 4 117 C5.19144942 109.85130351 6.29511951 103.23601958 8.3125 96.375 C8.75933517 94.81256307 9.20594352 93.25006125 9.65234375 91.6875 C9.87776855 90.90632812 10.10319336 90.12515625 10.33544922 89.3203125 C11.17196003 86.3995929 11.97657936 83.47065625 12.78027344 80.54077148 C15.24330843 71.57132016 17.84847501 62.64571408 20.47070312 53.72167969 C22.52041633 46.7196241 24.45566682 39.69840811 26.2734375 32.6328125 C27 30 27 30 28 28 C16.45 28 4.9 28 -7 28 C-6.38604566 24.31627397 -5.79050141 20.93017488 -4.84375 17.36328125 C-4.51697266 16.12674805 -4.51697266 16.12674805 -4.18359375 14.86523438 C-3.95800781 14.02283203 -3.73242188 13.18042969 -3.5 12.3125 C-3.27441406 11.45849609 -3.04882812 10.60449219 -2.81640625 9.72460938 C-1.94695968 6.45003695 -1.07175304 3.21525912 0 0 Z " fill="#FEFEFE" transform="translate(1218,876)"/>
</svg>
