<?xml version="1.0" encoding="UTF-8"?>
<svg version="1.1" xmlns="http://www.w3.org/2000/svg" width="1020" height="680">
<path d="M0 0 C2.94789849 0.01611407 5.89442686 0.00000699 8.84228516 -0.01904297 C66.70690407 -0.08284871 123.57625338 21.14151887 168.44775391 57.39111328 C169.50487066 58.22206501 170.56215029 59.05280961 171.61962891 59.88330078 C187.46743675 72.73398434 202.5482942 87.80890197 214.44775391 104.39111328 C215.26238567 105.47838257 216.07882156 106.56430225 216.89697266 107.64892578 C247.4330201 148.61762284 267.38796898 200.9836138 267.65087891 252.40283203 C267.65789322 253.32561447 267.66490753 254.24839691 267.6721344 255.19914246 C267.68953527 258.15901632 267.69598623 261.11869015 267.69775391 264.07861328 C267.69876602 265.59518524 267.69876602 265.59518524 267.69979858 267.14239502 C267.68427136 281.76613535 267.31400534 296.00718806 264.44775391 310.39111328 C264.27083008 311.32391113 264.09390625 312.25670898 263.91162109 313.21777344 C255.60078098 356.47289727 237.75732544 395.8210768 210.44775391 430.39111328 C209.64724609 431.41720703 208.84673828 432.44330078 208.02197266 433.50048828 C195.15024438 449.34893202 180.0744201 464.51956228 163.44775391 476.39111328 C162.10358421 477.37882363 160.75985641 478.36713553 159.41650391 479.35595703 C114.78210565 511.87669992 61.59987648 529.8273266 6.34814453 529.70678711 C3.34711914 529.70363884 0.34709518 529.72714737 -2.65380859 529.75244141 C-66.03299737 529.95936293 -127.69745785 504.67372731 -174.55224609 462.39111328 C-175.16116699 461.84390625 -175.77008789 461.29669922 -176.39746094 460.73291016 C-188.73405156 449.60090245 -188.73405156 449.60090245 -193.74365234 443.56689453 C-195.17388394 441.84629194 -196.65019156 440.16399776 -198.14208984 438.49658203 C-211.45495836 423.56210234 -222.33348485 407.11635138 -231.55224609 389.39111328 C-232.08108398 388.3948291 -232.08108398 388.3948291 -232.62060547 387.37841797 C-244.2769331 365.38885431 -252.41919995 341.89312251 -257.36474609 317.51611328 C-257.55963623 316.55552002 -257.75452637 315.59492676 -257.95532227 314.60522461 C-260.91511495 299.14360154 -261.90221346 284.01064724 -261.86791992 268.29150391 C-261.86477165 265.29047852 -261.88828019 262.29045456 -261.91357422 259.28955078 C-262.12162877 195.56332163 -236.63500491 133.7939753 -193.87255859 86.93408203 C-192.25056958 85.15644761 -190.64224154 83.36629507 -189.04443359 81.56689453 C-184.84950976 76.86524443 -180.66734903 72.35256852 -175.83349609 68.30517578 C-174.07726967 66.83162964 -172.35411989 65.31859708 -170.64599609 63.78955078 C-124.24809378 22.42989264 -61.98991718 -0.40059764 0 0 Z " fill="#03A6E9" transform="translate(261.55224609375,74.60888671875)"/>
<path d="M0 0 C10.80279823 8.5072036 16.61373065 19.9867109 19.09375 33.390625 C20.55946941 46.30023057 17.94457898 59.21508392 10.24609375 69.8125 C0.71770792 81.57909726 -10.39709373 87.93696889 -25.5 89.96875 C-41.79042067 91.13698734 -56.75313431 88.46053568 -69.8828125 78.0859375 C-79.97255473 68.61001989 -85.43764053 56.01693321 -85.97265625 42.24609375 C-86.14052338 27.88146381 -81.34314458 17.48304639 -73.3125 5.78125 C-54.44748697 -13.08376303 -21.62342608 -14.83467603 0 0 Z M-53.125 24.7734375 C-57.55886539 31.85250668 -57.31748822 39.9023101 -56.5 47.96875 C-54.12459512 55.65446082 -50.33955356 59.77471939 -43.4375 63.71875 C-36.85652134 66.31386359 -29.15012839 65.96339491 -22.625 63.40625 C-16.3098247 60.12281647 -12.83256157 55.69363663 -10.625 48.96875 C-8.64913131 41.15936421 -9.23105927 34.33537701 -12.5 26.96875 C-16.44873247 21.06559438 -20.70303128 17.72763853 -27.375 15.28125 C-37.98961615 13.72027704 -46.17360158 16.51865188 -53.125 24.7734375 Z " fill="#221F1F" transform="translate(727.5,252.03125)"/>
<path d="M0 0 C61.10058824 0 61.10058824 0 77.75 15.25 C85.97830937 23.9925787 88.93004488 36.23770815 89.375 48 C88.89111113 60.791497 85.21233272 73.78766728 76 83 C54.50873145 101.29218659 26.87037615 96 0 96 C0 64.32 0 32.64 0 0 Z M28 23 C28 39.5 28 56 28 73 C43.04089647 73.15591373 43.04089647 73.15591373 54.52734375 65.609375 C59.51577056 60.15783164 60.32107571 53.55088068 60.21484375 46.46875 C59.58478229 39.22877109 57.4483775 32.97460555 52 28 C43.7455797 23.33250052 37.64782143 23 28 23 Z " fill="#221F1F" transform="translate(755,244)"/>
<path d="M0 0 C9.24 0 18.48 0 28 0 C28.02578125 4.3828125 28.0515625 8.765625 28.078125 13.28125 C28.10983674 16.79260398 28.14548889 20.30386915 28.18379211 23.81515503 C28.22305069 27.51253066 28.25548775 31.20966856 28.27099609 34.90722656 C28.28622464 38.47369583 28.32077753 42.03951781 28.36830902 45.60569763 C28.3902009 47.61728038 28.3924684 49.62904608 28.39434814 51.64074707 C28.50907481 58.85926894 28.99415152 63.90843106 33 70 C36.8946256 72.59641707 41.44066644 72.55427192 46 72 C49.93339684 70.73834441 51.50662264 69.82352273 53.63598633 66.26928711 C55.97531284 60.39980535 55.48303884 53.97329773 55.51171875 47.75390625 C55.52858537 46.37383954 55.54673826 44.993788 55.56611633 43.61375427 C55.61340792 40.00205225 55.64335125 36.39041177 55.66955566 32.77850342 C55.69946718 29.08463472 55.74580203 25.39097349 55.79101562 21.69726562 C55.87834918 14.46482846 55.9384706 7.2328867 56 0 C65.24 0 74.48 0 84 0 C84.09074739 8.93687296 84.16397158 17.87343467 84.20724869 26.81066608 C84.22803052 30.96159948 84.25617348 35.11219846 84.30175781 39.26293945 C84.3455548 43.27652919 84.36920763 47.28979939 84.37950897 51.30360985 C84.38684017 52.82687591 84.40115459 54.35012658 84.42292023 55.87325478 C84.59469202 68.40392452 83.23539605 78.73354489 74.27734375 88.05859375 C64.87171392 96.07677218 54.19458185 97.36141271 42.3125 97.375 C41.20455078 97.39949219 40.09660156 97.42398438 38.95507812 97.44921875 C27.90159589 97.48798023 17.49730949 95.0383384 9.23046875 87.35546875 C-0.14911241 77.6599438 -0.57397411 66.4437881 -0.390625 53.61328125 C-0.38314738 52.05959305 -0.37746166 50.50589529 -0.37347412 48.95219421 C-0.35833711 44.89963891 -0.31916171 40.8476741 -0.2746582 36.79534912 C-0.23344481 32.64554833 -0.21540795 28.49565039 -0.1953125 24.34570312 C-0.1526528 16.23017004 -0.08240418 8.11522692 0 0 Z " fill="#221F1F" transform="translate(566,131)"/>
<path d="M0 0 C10.23 0 20.46 0 31 0 C36.32983259 13.17196511 41.41810959 26.38895115 46.25 39.75 C47.54606231 43.32108333 48.84470035 46.8912243 50.14453125 50.4609375 C50.46631851 51.34508331 50.78810577 52.22922913 51.11964417 53.14016724 C53.25550188 58.9954997 55.43007069 64.83505981 57.63671875 70.6640625 C57.91957733 71.41212158 58.20243591 72.16018066 58.49386597 72.9309082 C59.82077032 76.43673991 61.15382516 79.94007845 62.49511719 83.44042969 C62.95950195 84.66407227 63.42388672 85.88771484 63.90234375 87.1484375 C64.30960693 88.21239746 64.71687012 89.27635742 65.13647461 90.37255859 C66 93 66 93 66 96 C56.43 96 46.86 96 37 96 C33 85 33 85 33 82 C15.675 82.495 15.675 82.495 -2 83 C-3.32 87.29 -4.64 91.58 -6 96 C-15.57 96 -25.14 96 -35 96 C-34.31243997 92.56219985 -33.65791031 89.78586573 -32.47216797 86.5690918 C-32.15976669 85.71618561 -31.84736542 84.86327942 -31.52549744 83.98452759 C-31.18450516 83.06537567 -30.84351288 82.14622375 -30.4921875 81.19921875 C-30.13431656 80.22592621 -29.77644562 79.25263367 -29.4077301 78.24984741 C-28.23392959 75.06099197 -27.05463752 71.87420033 -25.875 68.6875 C-25.0637003 66.48826743 -24.25258535 64.2889667 -23.44165039 62.08959961 C-18.14324951 47.73372681 -12.80601963 33.39229211 -7.4375 19.0625 C-6.9534671 17.76981705 -6.9534671 17.76981705 -6.45965576 16.45101929 C-5.55657681 14.0410205 -4.65175621 11.63168519 -3.74609375 9.22265625 C-3.48026993 8.51354095 -3.21444611 7.80442566 -2.94056702 7.07382202 C-1.11631132 2.23262263 -1.11631132 2.23262263 0 0 Z M15 26 C13.73514989 30.05636173 12.47176418 34.11317579 11.2097168 38.17041016 C10.78042901 39.54976639 10.35074557 40.92899956 9.9206543 42.30810547 C9.30152288 44.29362055 8.68382882 46.27957796 8.06640625 48.265625 C7.69459229 49.45961914 7.32277832 50.65361328 6.93969727 51.88378906 C6.22987151 54.2377033 5.5963006 56.61479761 5 59 C11.6 59 18.2 59 25 59 C23.19388179 51.39529173 21.12053482 43.95321708 18.71411133 36.52148438 C17.59408742 33.03561127 16.62589579 29.60933237 16 26 C15.67 26 15.34 26 15 26 Z " fill="#221F1F" transform="translate(766,131)"/>
<path d="M0 0 C10.23 0 20.46 0 31 0 C39.23581748 21.88730888 47.43284601 43.78908138 55.57580566 65.71112061 C56.48490812 68.15722151 57.3951492 70.60289953 58.30651855 73.04815674 C59.59161312 76.4970885 60.8725192 79.94754728 62.15234375 83.3984375 C62.73721809 84.96449738 62.73721809 84.96449738 63.33390808 86.56219482 C63.68641129 87.51539612 64.03891449 88.46859741 64.40209961 89.45068359 C64.71215439 90.28489838 65.02220917 91.11911316 65.34165955 91.97860718 C66 94 66 94 66 96 C56.43 96 46.86 96 37 96 C33 86 33 86 32 83 C20.78 83 9.56 83 -2 83 C-3.32 87.29 -4.64 91.58 -6 96 C-15.57 96 -25.14 96 -35 96 C-34.31243997 92.56219985 -33.65791031 89.78586573 -32.47216797 86.5690918 C-32.15976669 85.71618561 -31.84736542 84.86327942 -31.52549744 83.98452759 C-31.18450516 83.06537567 -30.84351288 82.14622375 -30.4921875 81.19921875 C-30.13431656 80.22592621 -29.77644562 79.25263367 -29.4077301 78.24984741 C-28.23392959 75.06099197 -27.05463752 71.87420033 -25.875 68.6875 C-25.0637003 66.48826743 -24.25258535 64.2889667 -23.44165039 62.08959961 C-18.14324951 47.73372681 -12.80601963 33.39229211 -7.4375 19.0625 C-6.9534671 17.76981705 -6.9534671 17.76981705 -6.45965576 16.45101929 C-5.55657681 14.0410205 -4.65175621 11.63168519 -3.74609375 9.22265625 C-3.48026993 8.51354095 -3.21444611 7.80442566 -2.94056702 7.07382202 C-1.11631132 2.23262263 -1.11631132 2.23262263 0 0 Z M15 27 C12.72040212 33.79670875 10.49720788 40.60971776 8.3125 47.4375 C7.99216797 48.42943359 7.67183594 49.42136719 7.34179688 50.44335938 C7.03951172 51.38888672 6.73722656 52.33441406 6.42578125 53.30859375 C6.15161377 54.16251709 5.87744629 55.01644043 5.5949707 55.89624023 C4.90928697 57.95637359 4.90928697 57.95637359 5 60 C11.6 60 18.2 60 25 60 C23.19388179 52.39529173 21.12053482 44.95321708 18.71411133 37.52148438 C17.59408742 34.03561127 16.62589579 30.60933237 16 27 C15.67 27 15.34 27 15 27 Z " fill="#221F1F" transform="translate(874,244)"/>
<path d="M0 0 C0.495 0.4125 0.99 0.825 1.5 1.25 C1.02709977 6.43177917 -1.67722033 9.91515852 -4.5625 14.0625 C-5.03494141 14.75537109 -5.50738281 15.44824219 -5.99414062 16.16210938 C-7.1554826 17.8630648 -8.3267678 19.55722395 -9.5 21.25 C-14.2578125 19.4375 -14.2578125 19.4375 -16.4375 17.75 C-21.49916725 14.06878745 -27.41960364 13.4982419 -33.5 14.25 C-35.7153554 15.1951895 -35.7153554 15.1951895 -37.5 16.25 C-37.5 18.23 -37.5 20.21 -37.5 22.25 C-31.94697037 25.2568248 -26.43138292 27.68303101 -20.4375 29.6875 C-11.3432692 32.85071071 -2.89770971 37.23448602 1.46484375 46.2421875 C4.91368522 55.17421012 4.39249676 63.86506986 0.83203125 72.671875 C-3.6559463 81.35828315 -10.73607991 86.63275243 -19.91357422 89.60620117 C-24.46537152 90.73920943 -28.95388789 90.78088791 -33.625 90.75 C-34.63328857 90.74427979 -35.64157715 90.73855957 -36.68041992 90.73266602 C-49.83977368 90.42062385 -60.19055829 86.66735594 -70.5 78.25 C-70.09611619 72.91666257 -67.07364729 69.52897805 -63.9375 65.4375 C-63.41736328 64.74462891 -62.89722656 64.05175781 -62.36132812 63.33789062 C-61.08200846 61.63604337 -59.79203986 59.94221036 -58.5 58.25 C-55.51678202 59.70359256 -52.894246 61.32691225 -50.1875 63.25 C-43.6669289 67.59350746 -38.44225116 68.52812509 -30.734375 67.9296875 C-27.82545747 67.04480699 -27.00223364 65.8452049 -25.5 63.25 C-25.19318599 60.10515635 -25.49275686 58.27172942 -26.5 55.25 C-29.16038085 54.13716315 -29.16038085 54.13716315 -32.5 53.25 C-57.63963999 45.22657601 -57.63963999 45.22657601 -64.5 34.25 C-67.62036587 26.4866155 -67.76521386 17.85384232 -65 9.9375 C-60.83529431 1.02965726 -54.39825562 -3.33092121 -45.4296875 -6.83984375 C-30.35393103 -11.52337876 -12.92843926 -9.04990748 0 0 Z " fill="#221F1F" transform="translate(727.5,137.75)"/>
<path d="M0 0 C10.23 0 20.46 0 31 0 C40.9 17.7375 40.9 17.7375 45.5 26.3125 C45.82548828 26.91521729 46.15097656 27.51793457 46.48632812 28.13891602 C48.20489823 31.36032276 49.71714203 34.58118351 51 38 C51.31710937 37.19820313 51.63421875 36.39640625 51.9609375 35.5703125 C54.94626622 28.29666629 58.29476441 21.36952116 62.125 14.5 C62.54442871 13.74734863 62.96385742 12.99469727 63.39599609 12.21923828 C64.57652202 10.13083059 65.75850902 8.05285162 67 6 C67.56992676 4.93894043 68.13985352 3.87788086 68.72705078 2.78466797 C71 0 71 0 74.11621094 -0.68115234 C75.90720215 -0.634021 75.90720215 -0.634021 77.734375 -0.5859375 C79.02988281 -0.56660156 80.32539062 -0.54726562 81.66015625 -0.52734375 C83.02346165 -0.477215 84.38674289 -0.42642536 85.75 -0.375 C87.12884865 -0.34489131 88.5077599 -0.31751703 89.88671875 -0.29296875 C93.25939731 -0.22221326 96.62890827 -0.12351802 100 0 C99.40978811 4.00162756 98.15443329 6.85292779 96.11328125 10.33203125 C95.51104736 11.36674561 94.90881348 12.40145996 94.28833008 13.4675293 C93.63630615 14.57136963 92.98428223 15.67520996 92.3125 16.8125 C91.6382537 17.96551465 90.96467869 19.11892208 90.29174805 20.27270508 C88.89884629 22.6583533 87.50194133 25.04158487 86.1015625 27.42285156 C83.43340254 31.96088021 80.78511254 36.51045163 78.13549805 41.05932617 C75.92821772 44.84690925 73.71535914 48.63121748 71.5012207 52.41479492 C71.00581787 53.2679126 70.51041504 54.12103027 70 55 C68.93833618 56.63654541 68.93833618 56.63654541 67.85522461 58.30615234 C65.682146 62.13150775 65.39815472 65.7846875 65.390625 70.12109375 C65.37408875 70.86585464 65.35755249 71.61061554 65.34051514 72.37794495 C65.29235387 74.73121647 65.27073706 77.08384349 65.25 79.4375 C65.22181337 81.04365167 65.19188221 82.64977372 65.16015625 84.25585938 C65.0833519 88.17086018 65.04254338 92.08388146 65 96 C55.43 96 45.86 96 36 96 C36.10183594 93.84726562 36.20367188 91.69453125 36.30859375 89.4765625 C36.92233983 69.267783 33.88225371 56.16839282 22.14453125 39.20019531 C18.40015214 33.61261319 15.17572811 27.73158337 11.875 21.875 C7.10884515 13.54693496 7.10884515 13.54693496 2.0703125 5.3828125 C0 2 0 2 0 0 Z " fill="#221F1F" transform="translate(920,244)"/>
<path d="M0 0 C24.75 0 49.5 0 75 0 C75 7.59 75 15.18 75 23 C67.41 23 59.82 23 52 23 C52 47.09 52 71.18 52 96 C42.76 96 33.52 96 24 96 C24 71.91 24 47.82 24 23 C16.08 23 8.16 23 0 23 C0 15.41 0 7.82 0 0 Z " fill="#221F1F" transform="translate(566,244)"/>
<path d="M0 0 C0.66 0 1.32 0 2 0 C3.5078125 1.8984375 3.5078125 1.8984375 5.125 4.375 C5.66382813 5.18710937 6.20265625 5.99921875 6.7578125 6.8359375 C8 9 8 9 8 11 C8.66 11 9.32 11 10 11 C10.2475 10.29875 10.495 9.5975 10.75 8.875 C12.17180238 5.60485452 13.87246288 2.858878 16 0 C16.66 0 17.32 0 18 0 C18.88021369 6.71162938 19.11381955 13.23405981 19 20 C17.68 20 16.36 20 15 20 C14.67 17.36 14.34 14.72 14 12 C13.071875 13.485 13.071875 13.485 12.125 15 C11.42375 15.99 10.7225 16.98 10 18 C9.34 18 8.68 18 8 18 C6.61061923 16.03852126 5.2739589 14.03833424 4 12 C3.67 14.64 3.34 17.28 3 20 C1.68 20 0.36 20 -1 20 C-0.67 13.4 -0.34 6.8 0 0 Z " fill="#221F1F" transform="translate(798,377)"/>
<path d="M0 0 C2.75329021 1.79562405 4.52627461 3.05254922 6 6 C6.5811138 13.08958838 6.5811138 13.08958838 4.125 16.9375 C0.90020496 20.06744812 -1.4492686 20.40937427 -5.9609375 20.34375 C-9.5266327 19.74263663 -10.96049868 17.84294123 -13 15 C-14.37295579 11.05275211 -14.08338163 9.26331041 -12.8125 5.25 C-11 2 -11 2 -9.25 0.5625 C-5.98376521 -0.2540587 -3.35661242 -0.35332762 0 0 Z M-7.8125 5.125 C-9.55198782 7.87155972 -9.39769128 9.81846974 -9 13 C-7.93654948 14.98029682 -7.93654948 14.98029682 -6 16 C-3.5 16.58333333 -3.5 16.58333333 -1 16 C1.02896212 14.46186579 1.02896212 14.46186579 2 12 C1.77962372 8.32706204 1.63033454 6.63033454 -1 4 C-3.80984248 3.63976378 -5.38241919 3.61667398 -7.8125 5.125 Z " fill="#221F1F" transform="translate(788,377)"/>
<path d="M0 0 C3.75843663 1.87921831 5.14975355 3.02470615 7.75 6.125 C8.36359375 6.84945313 8.9771875 7.57390625 9.609375 8.3203125 C10.29773438 9.15175781 10.29773438 9.15175781 11 10 C11.33 6.7 11.66 3.4 12 0 C13.32 0 14.64 0 16 0 C16 6.6 16 13.2 16 20 C12.50646162 18.25323081 10.86054237 17.08594785 8.25 14.375 C7.63640625 13.74335938 7.0228125 13.11171875 6.390625 12.4609375 C5.93171875 11.97882813 5.4728125 11.49671875 5 11 C4.67 13.97 4.34 16.94 4 20 C2.68 20 1.36 20 0 20 C0 13.4 0 6.8 0 0 Z " fill="#221F1F" transform="translate(649,377)"/>
<path d="M0 0 C3.75843663 1.87921831 5.14975355 3.02470615 7.75 6.125 C8.36359375 6.84945313 8.9771875 7.57390625 9.609375 8.3203125 C10.29773438 9.15175781 10.29773438 9.15175781 11 10 C11.33 6.7 11.66 3.4 12 0 C13.32 0 14.64 0 16 0 C16 6.6 16 13.2 16 20 C12.50646162 18.25323081 10.86054237 17.08594785 8.25 14.375 C7.63640625 13.74335938 7.0228125 13.11171875 6.390625 12.4609375 C5.93171875 11.97882813 5.4728125 11.49671875 5 11 C4.67 13.97 4.34 16.94 4 20 C2.68 20 1.36 20 0 20 C0 13.4 0 6.8 0 0 Z " fill="#221F1F" transform="translate(858,377)"/>
<path d="M0 0 C2 1.5 2 1.5 3 3 C2.67 3.66 2.34 4.32 2 5 C1.37351562 4.97679687 0.74703125 4.95359375 0.1015625 4.9296875 C-0.71570313 4.91164063 -1.53296875 4.89359375 -2.375 4.875 C-3.59316406 4.84019531 -3.59316406 4.84019531 -4.8359375 4.8046875 C-7.21342243 4.78629949 -7.21342243 4.78629949 -9 7 C-9.33333333 10 -9.33333333 10 -9 13 C-6.4345406 15.5654594 -4.52313332 15.54046087 -1 16 C-1 15.01 -1 14.02 -1 13 C-2.32 13 -3.64 13 -5 13 C-5 11.68 -5 10.36 -5 9 C-2.36 9 0.28 9 3 9 C3.08096803 10.45742463 3.13917774 11.91612807 3.1875 13.375 C3.23970703 14.59316406 3.23970703 14.59316406 3.29296875 15.8359375 C3.19628906 16.55007813 3.09960938 17.26421875 3 18 C-0.73224985 20.48816657 -3.68569723 20.39300329 -8 20 C-10.3125 19.4375 -10.3125 19.4375 -12 18 C-14.3196681 14.05656423 -15.11922695 11.87929878 -14.5 7.3125 C-11.29747227 0.24025126 -7.24085755 -0.81751618 0 0 Z " fill="#221F1F" transform="translate(621,377)"/>
<path d="M0 0 C3.49353838 1.74676919 5.13945763 2.91405215 7.75 5.625 C8.67039062 6.57246094 8.67039062 6.57246094 9.609375 7.5390625 C10.29773438 8.26222656 10.29773438 8.26222656 11 9 C11.33 6.03 11.66 3.06 12 0 C13.32 0 14.64 0 16 0 C16 6.6 16 13.2 16 20 C12.24156337 18.12078169 10.85024645 16.97529385 8.25 13.875 C7.63640625 13.15054687 7.0228125 12.42609375 6.390625 11.6796875 C5.93171875 11.12539063 5.4728125 10.57109375 5 10 C4.67 13.3 4.34 16.6 4 20 C2.68 20 1.36 20 0 20 C0 13.4 0 6.8 0 0 Z " fill="#221F1F" transform="translate(670,377)"/>
<path d="M0 0 C4.29 0 8.58 0 13 0 C13 1.32 13 2.64 13 4 C10.36 4 7.72 4 5 4 C5 5.32 5 6.64 5 8 C7.31 8 9.62 8 12 8 C12 9.32 12 10.64 12 12 C9.69 12 7.38 12 5 12 C5 13.32 5 14.64 5 16 C7.64 16 10.28 16 13 16 C13 17.32 13 18.64 13 20 C8.71 20 4.42 20 0 20 C0 13.4 0 6.8 0 0 Z " fill="#221F1F" transform="translate(691,377)"/>
<path d="M0 0 C-0.33 1.32 -0.66 2.64 -1 4 C-4.3 4 -7.6 4 -11 4 C-11 7.3 -11 10.6 -11 14 C-7.7 14 -4.4 14 -1 14 C-0.67 15.32 -0.34 16.64 0 18 C-5.02032969 19.67344323 -9.21826645 19.87191216 -13.9375 17.5625 C-16.86781321 13.92180783 -17.28831514 10.61304228 -17 6 C-15.79274538 3.01363331 -14.80179008 1.60134256 -12.25 -0.3125 C-8.03382751 -1.60077493 -4.14607758 -1.38202586 0 0 Z " fill="#221F1F" transform="translate(772,378)"/>
<path d="M0 0 C3 1 3 1 4.82421875 4.4921875 C5.45645873 5.94833599 6.07711137 7.40955756 6.6875 8.875 C7.00783203 9.60847656 7.32816406 10.34195312 7.65820312 11.09765625 C10 16.58015725 10 16.58015725 10 20 C8.68 20 7.36 20 6 20 C5.67 18.68 5.34 17.36 5 16 C1.56769552 16.26393501 1.56769552 16.26393501 -2 17 C-2.66 17.99 -3.32 18.98 -4 20 C-5.32 20 -6.64 20 -8 20 C-5.83836487 13.06001352 -3.1063786 6.56882431 0 0 Z M1 9 C0.67 9.99 0.34 10.98 0 12 C0.99 11.67 1.98 11.34 3 11 C2.34 10.34 1.68 9.68 1 9 Z " fill="#221F1F" transform="translate(585,377)"/>
<path d="M0 0 C0.66 0 1.32 0 2 0 C3.33934716 2.95564708 4.67044247 5.9149378 6 8.875 C6.3815625 9.71675781 6.763125 10.55851562 7.15625 11.42578125 C7.5171875 12.23144531 7.878125 13.03710938 8.25 13.8671875 C8.58515625 14.61081543 8.9203125 15.35444336 9.265625 16.12060547 C10 18 10 18 10 20 C7.5625 19.625 7.5625 19.625 5 19 C4.67 18.34 4.34 17.68 4 17 C1.67843403 16.59270772 -0.6568787 16.25561323 -3 16 C-3.33 17.32 -3.66 18.64 -4 20 C-5.32 20 -6.64 20 -8 20 C-7.35014905 15.28629244 -5.48438608 11.42313556 -3.4375 7.1875 C-2.9434668 6.14819336 -2.9434668 6.14819336 -2.43945312 5.08789062 C-1.63127749 3.38955052 -0.81631623 1.69444231 0 0 Z M0 9 C-0.33 9.99 -0.66 10.98 -1 12 C-0.01 12 0.98 12 2 12 C1.67 11.01 1.34 10.02 1 9 C0.67 9 0.34 9 0 9 Z " fill="#221F1F" transform="translate(844,377)"/>
<path d="M0 0 C0.66 0 1.32 0 2 0 C3.34277732 2.7663534 4.67255228 5.53876211 6 8.3125 C6.3815625 9.09818359 6.763125 9.88386719 7.15625 10.69335938 C7.5171875 11.45068359 7.878125 12.20800781 8.25 12.98828125 C8.58515625 13.68477783 8.9203125 14.38127441 9.265625 15.09887695 C10 17 10 17 10 20 C7.5625 19.625 7.5625 19.625 5 19 C4.67 18.34 4.34 17.68 4 17 C1.67843403 16.59270772 -0.6568787 16.25561323 -3 16 C-3.33 17.32 -3.66 18.64 -4 20 C-5.32 20 -6.64 20 -8 20 C-7.35014905 15.28629244 -5.48438608 11.42313556 -3.4375 7.1875 C-2.9434668 6.14819336 -2.9434668 6.14819336 -2.43945312 5.08789062 C-1.63127749 3.38955052 -0.81631623 1.69444231 0 0 Z M0 9 C-0.33 9.99 -0.66 10.98 -1 12 C-0.01 12 0.98 12 2 12 C1.67 11.01 1.34 10.02 1 9 C0.67 9 0.34 9 0 9 Z " fill="#221F1F" transform="translate(635,377)"/>
<path d="M0 0 C8 0 8 0 11 1 C13.27181092 3.27181092 13.38610725 3.90459172 13.5625 7 C13.3720827 9.87741696 13.21690451 10.74292799 11.3125 13 C8.6880612 14.13489245 6.83089822 14.23590819 4 14 C4 15.98 4 17.96 4 20 C2.68 20 1.36 20 0 20 C0 13.4 0 6.8 0 0 Z M4 4 C4 5.98 4 7.96 4 10 C5.65 9.67 7.3 9.34 9 9 C8.67 7.68 8.34 6.36 8 5 C6.68 4.67 5.36 4.34 4 4 Z " fill="#221F1F" transform="translate(822,377)"/>
<path d="M0 0 C4.95 0 9.9 0 15 0 C15 1.32 15 2.64 15 4 C13.35 4 11.7 4 10 4 C10 9.28 10 14.56 10 20 C8.35 20 6.7 20 5 20 C5 14.72 5 9.44 5 4 C3.35 4 1.7 4 0 4 C0 2.68 0 1.36 0 0 Z " fill="#221F1F" transform="translate(708,377)"/>
<path d="M0 0 C2.25 -0.375 2.25 -0.375 5 0 C7.3125 3 7.3125 3 9 6 C9.86625 4.515 9.86625 4.515 10.75 3 C11.4925 2.01 12.235 1.02 13 0 C14.32 0 15.64 0 17 0 C16.52685556 2.95715277 15.62998324 4.58971421 14 7.1875 C11.54149378 11.28501037 11.21327772 15.29722626 11 20 C9.68 20 8.36 20 7 20 C6.91363281 19.3709375 6.82726562 18.741875 6.73828125 18.09375 C5.80392571 12.40189607 4.36604531 8.30817951 1.0234375 3.59375 C0 2 0 2 0 0 Z " fill="#221F1F" transform="translate(877,377)"/>
<path d="M0 0 C1.32 0 2.64 0 4 0 C4.66 1.98 5.32 3.96 6 6 C6.99 4.02 7.98 2.04 9 0 C10.32 0 11.64 0 13 0 C13 4.29 13 8.58 13 13 C12.01 13 11.02 13 10 13 C9.67 12.01 9.34 11.02 9 10 C8.67 10.99 8.34 11.98 8 13 C7.01 13 6.02 13 5 13 C4.67 12.34 4.34 11.68 4 11 C3.67 11.66 3.34 12.32 3 13 C2.01 13 1.02 13 0 13 C0 8.71 0 4.42 0 0 Z " fill="#221F1F" transform="translate(1006,327)"/>
<path d="M0 0 C5.28 0 10.56 0 16 0 C16 1.32 16 2.64 16 4 C14.02 4 12.04 4 10 4 C10 9.28 10 14.56 10 20 C8.68 20 7.36 20 6 20 C6 14.72 6 9.44 6 4 C4.02 4 2.04 4 0 4 C0 2.68 0 1.36 0 0 Z " fill="#221F1F" transform="translate(726,377)"/>
<path d="M0 0 C3.3 0 6.6 0 10 0 C10 0.66 10 1.32 10 2 C8.68 2 7.36 2 6 2 C6 5.63 6 9.26 6 13 C5.34 13 4.68 13 4 13 C4 9.37 4 5.74 4 2 C2.68 2 1.36 2 0 2 C0 1.34 0 0.68 0 0 Z " fill="#221F1F" transform="translate(995,327)"/>
</svg>
